G75*
G70*
%OFA0B0*%
%FSLAX24Y24*%
%IPPOS*%
%LPD*%
%AMOC8*
5,1,8,0,0,1.08239X$1,22.5*
%
%ADD10R,0.0660X0.0320*%
%ADD11R,0.0320X0.0660*%
%ADD12C,0.0740*%
%ADD13R,0.0740X0.0740*%
%ADD14C,0.0160*%
%ADD15C,0.0357*%
D10*
X002450Y002924D03*
X002450Y003515D03*
X002450Y004105D03*
X002450Y004696D03*
X002450Y005286D03*
X002450Y005877D03*
X002450Y006468D03*
X002450Y007058D03*
X002450Y007649D03*
X002450Y008239D03*
X002450Y008830D03*
X002450Y009420D03*
X002450Y010011D03*
X007569Y010011D03*
X007569Y009420D03*
X007569Y008830D03*
X007569Y008239D03*
X007569Y007649D03*
X007569Y007058D03*
X007569Y006468D03*
X007569Y005877D03*
X007569Y005286D03*
X007569Y004696D03*
X007569Y004105D03*
X007569Y003515D03*
X007569Y002924D03*
D11*
X007069Y010716D03*
X006478Y010716D03*
X005887Y010716D03*
X005297Y010716D03*
X004706Y010716D03*
X004116Y010716D03*
X003525Y010716D03*
X002935Y010716D03*
D12*
X001001Y000875D03*
X001001Y001875D03*
X001001Y002875D03*
X001001Y003875D03*
X001001Y004875D03*
X001001Y005875D03*
X001001Y006875D03*
X001001Y007875D03*
X001001Y008875D03*
X001001Y009875D03*
X001001Y010875D03*
X001001Y011875D03*
X001001Y012875D03*
X002650Y014010D03*
X003650Y014010D03*
X004650Y014010D03*
X005650Y014010D03*
X006650Y014010D03*
X007650Y014010D03*
X008650Y014010D03*
X009211Y012839D03*
X009211Y011839D03*
X009211Y010839D03*
X009211Y009839D03*
X009211Y008839D03*
X009211Y007839D03*
X009211Y006839D03*
X009211Y005839D03*
X009211Y004839D03*
X009211Y003839D03*
X009211Y002839D03*
X009211Y001839D03*
X009211Y000839D03*
D13*
X001650Y014010D03*
D14*
X001630Y014017D02*
X000565Y014017D01*
X000562Y013859D02*
X001100Y013859D01*
X001100Y013990D02*
X001100Y013617D01*
X001112Y013571D01*
X001136Y013530D01*
X001169Y013496D01*
X001210Y013473D01*
X001256Y013460D01*
X001630Y013460D01*
X001630Y013990D01*
X001670Y013990D01*
X001670Y013460D01*
X002043Y013460D01*
X002089Y013473D01*
X002130Y013496D01*
X002164Y013530D01*
X002187Y013571D01*
X002200Y013617D01*
X002200Y013712D01*
X002200Y013710D01*
X002349Y013561D01*
X002544Y013480D01*
X002730Y013480D01*
X003211Y012999D01*
X003211Y011184D01*
X003205Y011190D01*
X003164Y011213D01*
X003118Y011226D01*
X002935Y011226D01*
X002935Y010716D01*
X002935Y010716D01*
X002935Y011226D01*
X002751Y011226D01*
X002705Y011213D01*
X002664Y011190D01*
X002631Y011156D01*
X002607Y011115D01*
X002595Y011069D01*
X002595Y010716D01*
X002935Y010716D01*
X002935Y010716D01*
X002595Y010716D01*
X002595Y010362D01*
X002598Y010351D01*
X002450Y010351D01*
X002097Y010351D01*
X002051Y010339D01*
X002010Y010315D01*
X001976Y010281D01*
X001953Y010240D01*
X001940Y010195D01*
X001940Y010011D01*
X002450Y010011D01*
X002450Y010011D01*
X002450Y010351D01*
X002450Y010011D01*
X002450Y010011D01*
X001940Y010011D01*
X001940Y009827D01*
X001953Y009781D01*
X001976Y009740D01*
X002010Y009707D01*
X002017Y009703D01*
X001960Y009647D01*
X001960Y009194D01*
X002029Y009125D01*
X001960Y009056D01*
X001960Y008728D01*
X001801Y008887D01*
X001801Y009249D01*
X001765Y009337D01*
X001697Y009405D01*
X001473Y009629D01*
X001531Y009769D01*
X001531Y009980D01*
X001450Y010175D01*
X001301Y010324D01*
X001179Y010375D01*
X001301Y010425D01*
X001450Y010575D01*
X001531Y010769D01*
X001531Y010980D01*
X001450Y011175D01*
X001301Y011324D01*
X001179Y011375D01*
X001301Y011425D01*
X001450Y011575D01*
X001531Y011769D01*
X001531Y011980D01*
X001450Y012175D01*
X001301Y012324D01*
X001207Y012363D01*
X001212Y012365D01*
X001289Y012404D01*
X001359Y012455D01*
X001421Y012516D01*
X001471Y012586D01*
X001511Y012664D01*
X001537Y012746D01*
X001551Y012831D01*
X001551Y012855D01*
X001021Y012855D01*
X001021Y012895D01*
X000981Y012895D01*
X000981Y013425D01*
X000958Y013425D01*
X000872Y013411D01*
X000790Y013384D01*
X000713Y013345D01*
X000643Y013294D01*
X000582Y013233D01*
X000560Y013203D01*
X000560Y013774D01*
X000574Y014441D01*
X001110Y014441D01*
X001100Y014404D01*
X001100Y014030D01*
X001630Y014030D01*
X001630Y013990D01*
X001100Y013990D01*
X001100Y014176D02*
X000568Y014176D01*
X000572Y014334D02*
X001100Y014334D01*
X001100Y013700D02*
X000560Y013700D01*
X000560Y013542D02*
X001129Y013542D01*
X001130Y013411D02*
X001044Y013425D01*
X001021Y013425D01*
X001021Y012895D01*
X001551Y012895D01*
X001551Y012918D01*
X001537Y013004D01*
X001511Y013086D01*
X001471Y013163D01*
X001421Y013233D01*
X001359Y013294D01*
X001289Y013345D01*
X001212Y013384D01*
X001130Y013411D01*
X001214Y013383D02*
X002827Y013383D01*
X002985Y013225D02*
X001427Y013225D01*
X001517Y013066D02*
X003144Y013066D01*
X003211Y012908D02*
X001551Y012908D01*
X001538Y012749D02*
X003211Y012749D01*
X003211Y012591D02*
X001474Y012591D01*
X001328Y012432D02*
X003211Y012432D01*
X003211Y012274D02*
X001351Y012274D01*
X001475Y012115D02*
X003211Y012115D01*
X003211Y011957D02*
X001531Y011957D01*
X001531Y011798D02*
X003211Y011798D01*
X003211Y011640D02*
X001477Y011640D01*
X001357Y011481D02*
X003211Y011481D01*
X003211Y011323D02*
X001302Y011323D01*
X001455Y011164D02*
X002639Y011164D01*
X002595Y011006D02*
X001520Y011006D01*
X001531Y010847D02*
X002595Y010847D01*
X002595Y010689D02*
X001498Y010689D01*
X001406Y010530D02*
X002595Y010530D01*
X002595Y010372D02*
X001186Y010372D01*
X001412Y010213D02*
X001946Y010213D01*
X001940Y010055D02*
X001500Y010055D01*
X001531Y009896D02*
X001940Y009896D01*
X001979Y009738D02*
X001518Y009738D01*
X001522Y009579D02*
X001960Y009579D01*
X001960Y009421D02*
X001681Y009421D01*
X001796Y009262D02*
X001960Y009262D01*
X002008Y009104D02*
X001801Y009104D01*
X001801Y008945D02*
X001960Y008945D01*
X001960Y008787D02*
X001901Y008787D01*
X001561Y008788D02*
X001974Y008374D01*
X001974Y008360D01*
X002119Y008215D01*
X002426Y008215D01*
X002450Y008239D01*
X002871Y007944D02*
X002940Y008013D01*
X002940Y008465D01*
X002871Y008534D01*
X002878Y008540D01*
X002997Y008491D01*
X003132Y008491D01*
X003256Y008543D01*
X003352Y008638D01*
X003403Y008762D01*
X003403Y008897D01*
X003352Y009022D01*
X003256Y009117D01*
X003202Y009139D01*
X003250Y009159D01*
X003346Y009255D01*
X003397Y009379D01*
X003397Y009514D01*
X003346Y009639D01*
X003250Y009734D01*
X003126Y009785D01*
X002991Y009785D01*
X002938Y009763D01*
X002948Y009781D01*
X002960Y009827D01*
X002960Y010011D01*
X002960Y010195D01*
X002958Y010206D01*
X003118Y010206D01*
X003164Y010218D01*
X003205Y010242D01*
X003239Y010275D01*
X003243Y010282D01*
X003299Y010226D01*
X003752Y010226D01*
X003821Y010295D01*
X003890Y010226D01*
X004342Y010226D01*
X004411Y010295D01*
X004480Y010226D01*
X004933Y010226D01*
X005002Y010295D01*
X005071Y010226D01*
X005523Y010226D01*
X005592Y010295D01*
X005661Y010226D01*
X006114Y010226D01*
X006183Y010295D01*
X006252Y010226D01*
X006704Y010226D01*
X006761Y010282D01*
X006765Y010275D01*
X006798Y010242D01*
X006839Y010218D01*
X006885Y010206D01*
X007062Y010206D01*
X007059Y010195D01*
X007059Y010011D01*
X007569Y010011D01*
X008079Y010011D01*
X008079Y010195D01*
X008066Y010240D01*
X008043Y010281D01*
X008009Y010315D01*
X007968Y010339D01*
X007922Y010351D01*
X007569Y010351D01*
X007569Y010011D01*
X007569Y010011D01*
X007569Y010011D01*
X008079Y010011D01*
X008079Y009827D01*
X008066Y009781D01*
X008043Y009740D01*
X008009Y009707D01*
X008002Y009703D01*
X008059Y009647D01*
X008059Y009194D01*
X007990Y009125D01*
X007993Y009122D01*
X008112Y009241D01*
X008112Y010028D01*
X008149Y010116D01*
X008706Y010674D01*
X008681Y010734D01*
X008681Y010945D01*
X008762Y011139D01*
X008911Y011288D01*
X009034Y011339D01*
X008911Y011390D01*
X008762Y011539D01*
X008681Y011734D01*
X008681Y011945D01*
X008762Y012139D01*
X008911Y012288D01*
X009006Y012328D01*
X009000Y012329D01*
X008923Y012369D01*
X008853Y012420D01*
X008792Y012481D01*
X008741Y012551D01*
X008702Y012628D01*
X008675Y012710D01*
X008661Y012796D01*
X008661Y012819D01*
X009191Y012819D01*
X009191Y012859D01*
X008661Y012859D01*
X008661Y012882D01*
X008675Y012968D01*
X008702Y013050D01*
X008741Y013127D01*
X008792Y013197D01*
X008853Y013259D01*
X008923Y013310D01*
X009000Y013349D01*
X009083Y013376D01*
X009168Y013389D01*
X009191Y013389D01*
X009191Y012859D01*
X009231Y012859D01*
X009231Y013389D01*
X009255Y013389D01*
X009340Y013376D01*
X009423Y013349D01*
X009500Y013310D01*
X009570Y013259D01*
X009631Y013197D01*
X009649Y013173D01*
X009649Y014441D01*
X008993Y014441D01*
X009008Y014430D01*
X009069Y014369D01*
X009120Y014299D01*
X009159Y014221D01*
X009186Y014139D01*
X009200Y014054D01*
X009200Y014030D01*
X008670Y014030D01*
X008670Y013990D01*
X009200Y013990D01*
X009200Y013967D01*
X009186Y013882D01*
X009159Y013799D01*
X009120Y013722D01*
X009069Y013652D01*
X009008Y013591D01*
X008938Y013540D01*
X008861Y013501D01*
X008778Y013474D01*
X008693Y013460D01*
X008670Y013460D01*
X008670Y013990D01*
X008630Y013990D01*
X008630Y013460D01*
X008606Y013460D01*
X008521Y013474D01*
X008439Y013501D01*
X008361Y013540D01*
X008291Y013591D01*
X008230Y013652D01*
X008179Y013722D01*
X008140Y013799D01*
X008138Y013805D01*
X008099Y013710D01*
X007950Y013561D01*
X007755Y013480D01*
X007656Y013480D01*
X006762Y012586D01*
X006762Y011151D01*
X006765Y011156D01*
X006798Y011190D01*
X006839Y011213D01*
X006885Y011226D01*
X007069Y011226D01*
X007069Y010716D01*
X007069Y010716D01*
X007409Y010716D01*
X007409Y011069D01*
X007396Y011115D01*
X007373Y011156D01*
X007339Y011190D01*
X007298Y011213D01*
X007252Y011226D01*
X007069Y011226D01*
X007069Y010716D01*
X007069Y010716D01*
X007409Y010716D01*
X007409Y010362D01*
X007406Y010351D01*
X007569Y010351D01*
X007569Y010011D01*
X007569Y010011D01*
X007059Y010011D01*
X007059Y009827D01*
X007071Y009781D01*
X007095Y009740D01*
X007128Y009707D01*
X007135Y009703D01*
X007092Y009660D01*
X005843Y009660D01*
X005843Y009660D01*
X005796Y009660D01*
X005748Y009660D01*
X004821Y009656D01*
X004788Y009660D01*
X004773Y009656D01*
X004759Y009656D01*
X004728Y009643D01*
X004696Y009634D01*
X004684Y009625D01*
X004671Y009619D01*
X004647Y009596D01*
X004621Y009575D01*
X004614Y009562D01*
X004603Y009552D01*
X004591Y009521D01*
X004222Y008860D01*
X004213Y008851D01*
X004199Y008819D01*
X004182Y008788D01*
X004180Y008775D01*
X004175Y008763D01*
X004175Y008728D01*
X004171Y008693D01*
X004174Y008681D01*
X004171Y008404D01*
X004121Y008354D01*
X004070Y008230D01*
X004070Y008095D01*
X004121Y007970D01*
X004217Y007875D01*
X004341Y007823D01*
X004476Y007823D01*
X004600Y007875D01*
X004696Y007970D01*
X004747Y008095D01*
X004747Y008230D01*
X004696Y008354D01*
X004651Y008398D01*
X004654Y008649D01*
X004949Y009177D01*
X005797Y009180D01*
X007092Y009180D01*
X007148Y009125D01*
X007079Y009056D01*
X007079Y008603D01*
X007148Y008534D01*
X007079Y008465D01*
X007079Y008013D01*
X007148Y007944D01*
X007079Y007875D01*
X007079Y007422D01*
X007148Y007353D01*
X007079Y007284D01*
X007079Y006832D01*
X007148Y006763D01*
X007079Y006694D01*
X007079Y006241D01*
X007148Y006172D01*
X007079Y006103D01*
X007079Y005651D01*
X007148Y005582D01*
X007079Y005513D01*
X007079Y005060D01*
X007148Y004991D01*
X007079Y004922D01*
X007079Y004470D01*
X007148Y004401D01*
X007079Y004332D01*
X007079Y003879D01*
X007148Y003810D01*
X007079Y003741D01*
X007079Y003713D01*
X006643Y003713D01*
X006596Y003760D01*
X006471Y003812D01*
X006336Y003812D01*
X006230Y003768D01*
X006230Y004911D01*
X006233Y004920D01*
X006230Y004958D01*
X006230Y004997D01*
X006227Y005006D01*
X006226Y005015D01*
X006208Y005050D01*
X006194Y005085D01*
X006187Y005092D01*
X006183Y005100D01*
X006153Y005125D01*
X006126Y005153D01*
X006117Y005156D01*
X005089Y006038D01*
X005089Y006080D01*
X005037Y006204D01*
X004942Y006299D01*
X004817Y006351D01*
X004683Y006351D01*
X004558Y006299D01*
X004463Y006204D01*
X004411Y006080D01*
X004411Y005945D01*
X004463Y005820D01*
X004558Y005725D01*
X004683Y005673D01*
X004776Y005673D01*
X005750Y004839D01*
X005750Y003102D01*
X005748Y003097D01*
X005749Y003090D01*
X002940Y003090D01*
X002940Y003150D01*
X002871Y003219D01*
X002940Y003288D01*
X002940Y003741D01*
X002871Y003810D01*
X002940Y003879D01*
X002940Y004332D01*
X002871Y004401D01*
X002940Y004470D01*
X002940Y004922D01*
X002871Y004991D01*
X002940Y005060D01*
X002940Y005513D01*
X002871Y005582D01*
X002940Y005651D01*
X002940Y006103D01*
X002871Y006172D01*
X002940Y006241D01*
X002940Y006694D01*
X002871Y006763D01*
X002940Y006832D01*
X002940Y007284D01*
X002871Y007353D01*
X002940Y007422D01*
X002940Y007875D01*
X002871Y007944D01*
X002922Y007994D02*
X004111Y007994D01*
X004070Y008153D02*
X002940Y008153D01*
X002940Y008311D02*
X004104Y008311D01*
X004172Y008470D02*
X002936Y008470D01*
X003064Y008830D02*
X002450Y008830D01*
X002450Y009420D02*
X002967Y009420D01*
X003058Y009447D01*
X003241Y009738D02*
X007097Y009738D01*
X007059Y009896D02*
X002960Y009896D01*
X002960Y010011D02*
X002450Y010011D01*
X002960Y010011D01*
X002960Y010055D02*
X007059Y010055D01*
X006856Y010213D02*
X003147Y010213D01*
X003525Y010716D02*
X003451Y010790D01*
X003451Y013099D01*
X002650Y013900D01*
X002650Y014010D01*
X002396Y013542D02*
X002171Y013542D01*
X002200Y013700D02*
X002210Y013700D01*
X001670Y013700D02*
X001630Y013700D01*
X001630Y013542D02*
X001670Y013542D01*
X001670Y013859D02*
X001630Y013859D01*
X001021Y013383D02*
X000981Y013383D01*
X000981Y013225D02*
X001021Y013225D01*
X001021Y013066D02*
X000981Y013066D01*
X000981Y012908D02*
X001021Y012908D01*
X000788Y013383D02*
X000560Y013383D01*
X000560Y013225D02*
X000576Y013225D01*
X002450Y010213D02*
X002450Y010213D01*
X002450Y010055D02*
X002450Y010055D01*
X002450Y010011D02*
X002450Y010011D01*
X002935Y010847D02*
X002935Y010847D01*
X002935Y011006D02*
X002935Y011006D01*
X002935Y011164D02*
X002935Y011164D01*
X003370Y009579D02*
X004626Y009579D01*
X004535Y009421D02*
X003397Y009421D01*
X003349Y009262D02*
X004447Y009262D01*
X004358Y009104D02*
X003269Y009104D01*
X003383Y008945D02*
X004270Y008945D01*
X004182Y008787D02*
X003403Y008787D01*
X003342Y008628D02*
X004174Y008628D01*
X004415Y008713D02*
X004408Y008162D01*
X004713Y008311D02*
X007079Y008311D01*
X007083Y008470D02*
X004652Y008470D01*
X004654Y008628D02*
X007079Y008628D01*
X007079Y008787D02*
X004731Y008787D01*
X004819Y008945D02*
X007079Y008945D01*
X007126Y009104D02*
X004908Y009104D01*
X004807Y009416D02*
X004415Y008713D01*
X004747Y008153D02*
X007079Y008153D01*
X007097Y007994D02*
X004706Y007994D01*
X004506Y007836D02*
X007079Y007836D01*
X007079Y007677D02*
X002940Y007677D01*
X002940Y007519D02*
X007079Y007519D01*
X007141Y007360D02*
X002878Y007360D01*
X002940Y007202D02*
X007079Y007202D01*
X007079Y007043D02*
X002940Y007043D01*
X002940Y006885D02*
X007079Y006885D01*
X007111Y006726D02*
X002908Y006726D01*
X002940Y006568D02*
X007079Y006568D01*
X007079Y006409D02*
X002940Y006409D01*
X002940Y006251D02*
X004510Y006251D01*
X004417Y006092D02*
X002940Y006092D01*
X002940Y005934D02*
X004416Y005934D01*
X004508Y005775D02*
X002940Y005775D01*
X002907Y005617D02*
X004843Y005617D01*
X005027Y005458D02*
X002940Y005458D01*
X002940Y005300D02*
X005212Y005300D01*
X005397Y005141D02*
X002940Y005141D01*
X002880Y004983D02*
X005582Y004983D01*
X005750Y004824D02*
X002940Y004824D01*
X002940Y004666D02*
X005750Y004666D01*
X005750Y004507D02*
X002940Y004507D01*
X002923Y004349D02*
X005750Y004349D01*
X005750Y004190D02*
X002940Y004190D01*
X002940Y004032D02*
X005750Y004032D01*
X005750Y003873D02*
X002935Y003873D01*
X002940Y003715D02*
X005750Y003715D01*
X005750Y003556D02*
X002940Y003556D01*
X002940Y003398D02*
X005750Y003398D01*
X005750Y003239D02*
X002891Y003239D01*
X002450Y003515D02*
X002433Y003532D01*
X002152Y003532D01*
X001856Y003237D01*
X001856Y002646D01*
X001085Y001875D01*
X001001Y001875D01*
X001001Y002875D02*
X001540Y003414D01*
X001561Y003414D01*
X002253Y004105D01*
X002450Y004105D01*
X002349Y004595D02*
X002450Y004696D01*
X002349Y004595D02*
X001974Y004595D01*
X001254Y003875D01*
X001001Y003875D01*
X001001Y004875D02*
X001132Y004875D01*
X001561Y005303D01*
X002433Y005303D01*
X002450Y005286D01*
X002448Y005875D02*
X002450Y005877D01*
X002448Y005875D02*
X001001Y005875D01*
X001561Y006426D02*
X002409Y006426D01*
X002450Y006468D01*
X002450Y007058D02*
X002433Y007075D01*
X001974Y007075D01*
X001175Y007875D01*
X001001Y007875D01*
X001620Y008197D02*
X001620Y008256D01*
X001001Y008875D01*
X001561Y008788D02*
X001561Y009201D01*
X001001Y009761D01*
X001001Y009875D01*
X001620Y008197D02*
X002169Y007649D01*
X002450Y007649D01*
X002940Y007836D02*
X004311Y007836D01*
X004990Y006251D02*
X007079Y006251D01*
X007079Y006092D02*
X005084Y006092D01*
X005210Y005934D02*
X007079Y005934D01*
X007079Y005775D02*
X005395Y005775D01*
X005580Y005617D02*
X007112Y005617D01*
X007079Y005458D02*
X005765Y005458D01*
X005950Y005300D02*
X007079Y005300D01*
X007079Y005141D02*
X006137Y005141D01*
X006230Y004983D02*
X007139Y004983D01*
X007079Y004824D02*
X006230Y004824D01*
X006230Y004666D02*
X007079Y004666D01*
X007079Y004507D02*
X006230Y004507D01*
X006230Y004349D02*
X007096Y004349D01*
X007079Y004190D02*
X006230Y004190D01*
X006230Y004032D02*
X007079Y004032D01*
X007084Y003873D02*
X006230Y003873D01*
X006404Y003473D02*
X007527Y003473D01*
X007569Y003515D01*
X007611Y004063D02*
X007569Y004105D01*
X007611Y004063D02*
X007998Y004063D01*
X009211Y002850D01*
X009211Y002839D01*
X009211Y003839D02*
X008931Y003839D01*
X008116Y004654D01*
X007611Y004654D01*
X007569Y004696D01*
X007569Y005286D02*
X007586Y005303D01*
X008411Y005303D01*
X008876Y004839D01*
X009211Y004839D01*
X009211Y005839D02*
X007606Y005839D01*
X007569Y005877D01*
X007670Y006366D02*
X007569Y006468D01*
X007670Y006366D02*
X008707Y006366D01*
X009179Y006839D01*
X009211Y006839D01*
X008293Y007016D02*
X009116Y007839D01*
X009211Y007839D01*
X008707Y008197D02*
X008707Y008334D01*
X009211Y008839D01*
X008648Y008670D02*
X008648Y009275D01*
X009211Y009839D01*
X008700Y010689D02*
X007409Y010689D01*
X007409Y010847D02*
X008681Y010847D01*
X008707Y011006D02*
X007409Y011006D01*
X007364Y011164D02*
X008787Y011164D01*
X008994Y011323D02*
X006762Y011323D01*
X006762Y011164D02*
X006773Y011164D01*
X007069Y011164D02*
X007069Y011164D01*
X007069Y011006D02*
X007069Y011006D01*
X007069Y010847D02*
X007069Y010847D01*
X007409Y010530D02*
X008563Y010530D01*
X008405Y010372D02*
X007409Y010372D01*
X007569Y010213D02*
X007569Y010213D01*
X007569Y010055D02*
X007569Y010055D01*
X007569Y009420D02*
X005796Y009420D01*
X004807Y009416D01*
X004706Y010716D02*
X004706Y013954D01*
X004650Y014010D01*
X004116Y013320D02*
X004116Y010716D01*
X005297Y010716D02*
X005341Y010759D01*
X005341Y013453D01*
X005650Y013762D01*
X005650Y014010D01*
X005872Y013099D02*
X005872Y010731D01*
X005887Y010716D01*
X006478Y010716D02*
X006522Y010759D01*
X006522Y012685D01*
X007650Y013813D01*
X007650Y014010D01*
X007904Y013542D02*
X008359Y013542D01*
X008195Y013700D02*
X008089Y013700D01*
X007559Y013383D02*
X009131Y013383D01*
X009191Y013383D02*
X009231Y013383D01*
X009292Y013383D02*
X009649Y013383D01*
X009649Y013225D02*
X009604Y013225D01*
X009649Y013542D02*
X008941Y013542D01*
X009104Y013700D02*
X009649Y013700D01*
X009649Y013859D02*
X009179Y013859D01*
X009174Y014176D02*
X009649Y014176D01*
X009649Y014334D02*
X009094Y014334D01*
X008670Y014017D02*
X009649Y014017D01*
X009231Y013225D02*
X009191Y013225D01*
X009191Y013066D02*
X009231Y013066D01*
X009231Y012908D02*
X009191Y012908D01*
X008840Y012432D02*
X006762Y012432D01*
X006762Y012274D02*
X008897Y012274D01*
X008752Y012115D02*
X006762Y012115D01*
X006762Y011957D02*
X008687Y011957D01*
X008681Y011798D02*
X006762Y011798D01*
X006762Y011640D02*
X008720Y011640D01*
X008820Y011481D02*
X006762Y011481D01*
X006767Y012591D02*
X008721Y012591D01*
X008669Y012749D02*
X006925Y012749D01*
X007084Y012908D02*
X008665Y012908D01*
X008710Y013066D02*
X007242Y013066D01*
X007401Y013225D02*
X008819Y013225D01*
X008670Y013542D02*
X008630Y013542D01*
X008630Y013700D02*
X008670Y013700D01*
X008670Y013859D02*
X008630Y013859D01*
X006650Y013876D02*
X005872Y013099D01*
X006650Y013876D02*
X006650Y014010D01*
X004116Y013320D02*
X003650Y013786D01*
X003650Y014010D01*
X005748Y009660D02*
X005748Y009660D01*
X007569Y008830D02*
X008040Y008830D01*
X008352Y009142D01*
X008352Y009980D01*
X009211Y010839D01*
X008246Y010213D02*
X008074Y010213D01*
X008079Y010055D02*
X008124Y010055D01*
X008112Y009896D02*
X008079Y009896D01*
X008112Y009738D02*
X008040Y009738D01*
X008059Y009579D02*
X008112Y009579D01*
X008112Y009421D02*
X008059Y009421D01*
X008059Y009262D02*
X008112Y009262D01*
X008648Y008670D02*
X008217Y008239D01*
X007569Y008239D01*
X007569Y007649D02*
X008158Y007649D01*
X008707Y008197D01*
X008293Y007016D02*
X007611Y007016D01*
X007569Y007058D01*
X005990Y004949D02*
X004750Y006012D01*
X005990Y004949D02*
X005990Y003059D01*
X006362Y002924D01*
X007569Y002924D01*
X007079Y003715D02*
X006641Y003715D01*
X002450Y002924D02*
X002329Y002803D01*
X002329Y001819D01*
X001384Y000875D01*
X001001Y000875D01*
X001561Y006426D02*
X001112Y006875D01*
X001001Y006875D01*
D15*
X003064Y008830D03*
X003058Y009447D03*
X004408Y008162D03*
X003451Y006662D03*
X004750Y006012D03*
X005754Y007548D03*
X005282Y004181D03*
X006404Y003473D03*
X008057Y012154D03*
X002329Y012272D03*
M02*
