G75*
G70*
%OFA0B0*%
%FSLAX24Y24*%
%IPPOS*%
%LPD*%
%AMOC8*
5,1,8,0,0,1.08239X$1,22.5*
%
%ADD10C,0.0000*%
%ADD11C,0.0780*%
%ADD12R,0.0780X0.0780*%
%ADD13R,0.0552X0.0670*%
%ADD14R,0.0355X0.0394*%
%ADD15R,0.0670X0.0552*%
%ADD16R,0.0355X0.0355*%
%ADD17R,0.0257X0.0512*%
%ADD18R,0.0540X0.0290*%
D10*
X000380Y000225D02*
X000380Y014621D01*
X009829Y014621D01*
X009829Y000225D01*
X000380Y000225D01*
D11*
X001001Y000875D03*
X001001Y001875D03*
X001001Y002875D03*
X001001Y003875D03*
X001001Y004875D03*
X001001Y005875D03*
X001001Y006875D03*
X001001Y007875D03*
X001001Y008875D03*
X001001Y009875D03*
X001001Y010875D03*
X001001Y011875D03*
X001001Y012875D03*
X002650Y014010D03*
X003650Y014010D03*
X004650Y014010D03*
X005650Y014010D03*
X006650Y014010D03*
X007650Y014010D03*
X008650Y014010D03*
X009211Y012839D03*
X009211Y011839D03*
X009211Y010839D03*
X009211Y009839D03*
X009211Y008839D03*
X009211Y007839D03*
X009211Y006839D03*
X009211Y005839D03*
X009211Y004839D03*
X009211Y003839D03*
X009211Y002839D03*
X009211Y001839D03*
X009211Y000839D03*
D12*
X001650Y014010D03*
D13*
X002902Y005330D03*
X003650Y005330D03*
X003663Y004484D03*
X004411Y004484D03*
X006552Y004112D03*
X007300Y004112D03*
D14*
X006526Y004807D03*
X006152Y005633D03*
X006900Y005633D03*
D15*
X006719Y007311D03*
X006719Y008099D03*
X006395Y009802D03*
X006395Y010550D03*
X005577Y010547D03*
X005577Y009799D03*
X004780Y009790D03*
X004780Y010538D03*
X004154Y007391D03*
X004154Y006604D03*
X005367Y006456D03*
X005367Y005708D03*
D16*
X005661Y011167D03*
X005661Y011757D03*
X006401Y011748D03*
X006401Y011158D03*
X004912Y011159D03*
X004912Y011750D03*
D17*
X005360Y008079D03*
X005734Y008079D03*
X006108Y008079D03*
X006108Y007055D03*
X005360Y007055D03*
D18*
X004883Y007521D03*
X004883Y007876D03*
M02*
