G75*
G70*
%OFA0B0*%
%FSLAX24Y24*%
%IPPOS*%
%LPD*%
%AMOC8*
5,1,8,0,0,1.08239X$1,22.5*
%
%ADD10C,0.0000*%
%ADD11C,0.0040*%
%ADD12C,0.0020*%
%ADD13C,0.0030*%
%ADD14C,0.0001*%
%ADD15C,0.0080*%
D10*
X000380Y000225D02*
X000380Y014621D01*
X009829Y014621D01*
X009829Y000225D01*
X000380Y000225D01*
X004020Y002264D02*
X003980Y002478D01*
X003973Y002633D01*
X003973Y002633D01*
X003972Y002633D01*
X003973Y002633D02*
X004942Y002633D01*
X004963Y002656D01*
X004806Y002825D01*
X004648Y003004D01*
X004725Y003102D01*
X004911Y003230D01*
X005129Y003283D01*
X005353Y003255D01*
X005551Y003148D01*
X005650Y003049D01*
X005721Y002927D01*
X005778Y002792D01*
X005789Y002647D01*
X005787Y002633D01*
X005740Y002405D01*
X005615Y002223D01*
X005440Y002089D01*
X005314Y002045D01*
X005181Y002034D01*
X004980Y002048D01*
X004851Y002112D01*
X004735Y002197D01*
X004689Y002357D01*
X004814Y002497D01*
X004942Y002633D01*
X003973Y002633D01*
X003972Y002633D02*
X003969Y002698D01*
X003990Y002916D01*
X004059Y003127D01*
X004166Y003322D01*
X004302Y003498D01*
X004465Y003649D01*
X004651Y003770D01*
X004858Y003853D01*
X005024Y003877D01*
X005192Y003884D01*
X005359Y003879D01*
X005571Y003844D01*
X005772Y003773D01*
X005957Y003664D01*
X006118Y003523D01*
X006249Y003354D01*
X006352Y003165D01*
X006428Y002965D01*
X006464Y002743D01*
X006463Y002633D01*
X005787Y002633D01*
X006463Y002633D01*
X006462Y002518D01*
X006423Y002297D01*
X006347Y002102D01*
X006240Y001921D01*
X006107Y001760D01*
X005949Y001622D01*
X005770Y001512D01*
X005585Y001444D01*
X005391Y001401D01*
X005194Y001383D01*
X004997Y001401D01*
X004869Y001433D01*
X004656Y001522D01*
X004455Y001640D01*
X004314Y001771D01*
X004192Y001920D01*
X004092Y002085D01*
X004020Y002264D01*
X005041Y002655D02*
X005066Y002633D01*
X005230Y002633D01*
X005232Y002596D01*
X005090Y002612D01*
X005066Y002633D01*
X005066Y002633D01*
X005230Y002633D01*
X005225Y002709D01*
X005085Y002686D01*
X005041Y002655D01*
D11*
X007738Y003064D02*
X008045Y003064D01*
X008199Y002987D02*
X008275Y003064D01*
X008429Y003064D01*
X008506Y002987D01*
X008506Y002681D01*
X008429Y002604D01*
X008275Y002604D01*
X008199Y002681D01*
X007892Y002604D02*
X007892Y003064D01*
X007892Y003545D02*
X007892Y004005D01*
X008045Y004005D02*
X007738Y004005D01*
X008199Y003928D02*
X008199Y003775D01*
X008275Y003698D01*
X008506Y003698D01*
X008506Y003545D02*
X008506Y004005D01*
X008275Y004005D01*
X008199Y003928D01*
X008352Y003698D02*
X008199Y003545D01*
X008275Y004545D02*
X008199Y004621D01*
X008199Y004928D01*
X008275Y005005D01*
X008506Y005005D01*
X008506Y004545D01*
X008275Y004545D01*
X008045Y004545D02*
X007815Y004545D01*
X007738Y004621D01*
X007738Y004928D01*
X007815Y005005D01*
X008045Y005005D01*
X008045Y004545D01*
X007969Y005545D02*
X007815Y005545D01*
X007738Y005621D01*
X007969Y005545D02*
X008045Y005621D01*
X008045Y005928D01*
X007969Y006005D01*
X007815Y006005D01*
X007738Y005928D01*
X008199Y005928D02*
X008199Y005621D01*
X008275Y005545D01*
X008506Y005545D01*
X008506Y006005D01*
X008275Y006005D01*
X008199Y005928D01*
X008217Y008545D02*
X008217Y008852D01*
X008370Y009005D01*
X008524Y008852D01*
X008524Y008545D01*
X008524Y008775D02*
X008217Y008775D01*
X008063Y008621D02*
X008063Y008928D01*
X007987Y009005D01*
X007833Y009005D01*
X007756Y008928D01*
X008063Y008621D01*
X007987Y008545D01*
X007833Y008545D01*
X007756Y008621D01*
X007756Y008928D01*
X007756Y009645D02*
X008063Y009645D01*
X007910Y009645D02*
X007910Y010105D01*
X008063Y009952D01*
X008217Y009952D02*
X008217Y009645D01*
X008217Y009875D02*
X008524Y009875D01*
X008524Y009952D02*
X008370Y010105D01*
X008217Y009952D01*
X008524Y009952D02*
X008524Y009645D01*
X008566Y010545D02*
X008566Y011005D01*
X008335Y011005D01*
X008259Y010928D01*
X008259Y010775D01*
X008335Y010698D01*
X008566Y010698D01*
X008412Y010698D02*
X008259Y010545D01*
X008105Y010545D02*
X007798Y010545D01*
X007645Y010621D02*
X007568Y010545D01*
X007415Y010545D01*
X007338Y010621D01*
X007338Y010698D01*
X007415Y010775D01*
X007568Y010775D01*
X007645Y010852D01*
X007645Y010928D01*
X007568Y011005D01*
X007415Y011005D01*
X007338Y010928D01*
X007211Y011481D02*
X007057Y011635D01*
X007057Y011942D01*
X007364Y011942D02*
X007364Y011635D01*
X007211Y011481D01*
X007518Y011558D02*
X007595Y011481D01*
X007748Y011481D01*
X007825Y011558D01*
X007978Y011558D02*
X007978Y011481D01*
X008055Y011481D01*
X008055Y011558D01*
X007978Y011558D01*
X007825Y011865D02*
X007748Y011942D01*
X007595Y011942D01*
X007518Y011865D01*
X007518Y011788D01*
X007595Y011712D01*
X007518Y011635D01*
X007518Y011558D01*
X007595Y011712D02*
X007671Y011712D01*
X007798Y011005D02*
X008105Y011005D01*
X008105Y010545D01*
X008105Y010775D02*
X007952Y010775D01*
X008285Y011481D02*
X008439Y011481D01*
X008515Y011558D01*
X008362Y011712D02*
X008285Y011712D01*
X008208Y011635D01*
X008208Y011558D01*
X008285Y011481D01*
X008285Y011712D02*
X008208Y011788D01*
X008208Y011865D01*
X008285Y011942D01*
X008439Y011942D01*
X008515Y011865D01*
X001996Y011806D02*
X001689Y012113D01*
X001689Y011806D01*
X001766Y011729D01*
X001919Y011729D01*
X001996Y011806D01*
X001996Y012113D01*
X001919Y012189D01*
X001766Y012189D01*
X001689Y012113D01*
X001709Y011026D02*
X001709Y010566D01*
X001862Y010566D02*
X001555Y010566D01*
X001862Y010873D02*
X001709Y011026D01*
X001766Y010089D02*
X001689Y010013D01*
X001689Y009936D01*
X001996Y009629D01*
X001689Y009629D01*
X001766Y010089D02*
X001919Y010089D01*
X001996Y010013D01*
X001919Y009058D02*
X001766Y009058D01*
X001689Y008981D01*
X001689Y008904D01*
X001766Y008827D01*
X001689Y008751D01*
X001689Y008674D01*
X001766Y008597D01*
X001919Y008597D01*
X001996Y008674D01*
X001843Y008827D02*
X001766Y008827D01*
X001996Y008981D02*
X001919Y009058D01*
X001750Y008073D02*
X001980Y007843D01*
X001673Y007843D01*
X001750Y007613D02*
X001750Y008073D01*
X001650Y007047D02*
X001957Y007047D01*
X001957Y006817D01*
X001803Y006893D01*
X001727Y006893D01*
X001650Y006817D01*
X001650Y006663D01*
X001727Y006586D01*
X001880Y006586D01*
X001957Y006663D01*
X001681Y006105D02*
X001834Y006028D01*
X001988Y005875D01*
X001757Y005875D01*
X001681Y005798D01*
X001681Y005721D01*
X001757Y005645D01*
X001911Y005645D01*
X001988Y005721D01*
X001988Y005875D01*
X001988Y005105D02*
X001681Y005105D01*
X001681Y005028D01*
X001988Y004721D01*
X001988Y004645D01*
X001880Y004105D02*
X001727Y004105D01*
X001650Y004028D01*
X001650Y003952D01*
X001727Y003875D01*
X001880Y003875D01*
X001957Y003952D01*
X001957Y004028D01*
X001880Y004105D01*
X001880Y003875D02*
X001957Y003798D01*
X001957Y003721D01*
X001880Y003645D01*
X001727Y003645D01*
X001650Y003721D01*
X001650Y003798D01*
X001727Y003875D01*
X001763Y003058D02*
X001917Y003058D01*
X001994Y002981D01*
X001994Y002904D01*
X001917Y002827D01*
X001687Y002827D01*
X001687Y002674D02*
X001687Y002981D01*
X001763Y003058D01*
X001687Y002674D02*
X001763Y002597D01*
X001917Y002597D01*
X001994Y002674D01*
X002140Y002005D02*
X002140Y001545D01*
X001987Y001545D02*
X002294Y001545D01*
X002294Y001852D02*
X002140Y002005D01*
X001833Y001928D02*
X001833Y001621D01*
X001526Y001928D01*
X001526Y001621D01*
X001603Y001545D01*
X001757Y001545D01*
X001833Y001621D01*
X001833Y001928D02*
X001757Y002005D01*
X001603Y002005D01*
X001526Y001928D01*
X001630Y001125D02*
X001630Y000665D01*
X001783Y000665D02*
X001476Y000665D01*
X001783Y000972D02*
X001630Y001125D01*
X001937Y000665D02*
X002244Y000665D01*
X002090Y000665D02*
X002090Y001125D01*
X002244Y000972D01*
X007760Y001053D02*
X008067Y000592D01*
X007760Y000592D02*
X008067Y001053D01*
X008221Y001053D02*
X008527Y001053D01*
X008374Y001053D02*
X008374Y000592D01*
X008517Y001597D02*
X008517Y002058D01*
X008287Y002058D01*
X008210Y001981D01*
X008210Y001828D01*
X008287Y001751D01*
X008517Y001751D01*
X008364Y001751D02*
X008210Y001597D01*
X008057Y001597D02*
X007750Y002058D01*
X008057Y002058D02*
X007750Y001597D01*
D12*
X007122Y003048D02*
X007207Y003134D01*
X006952Y003134D01*
X006952Y003219D02*
X006952Y003048D01*
X006994Y003302D02*
X007165Y003473D01*
X006994Y003473D01*
X006952Y003430D01*
X006952Y003345D01*
X006994Y003302D01*
X007165Y003302D01*
X007207Y003345D01*
X007207Y003430D01*
X007165Y003473D01*
X007207Y003556D02*
X006952Y003556D01*
X007037Y003556D02*
X006952Y003684D01*
X007037Y003556D02*
X007122Y003684D01*
X006664Y005110D02*
X006408Y005110D01*
X006408Y005238D01*
X006451Y005281D01*
X006493Y005281D01*
X006536Y005238D01*
X006536Y005110D01*
X006664Y005110D02*
X006664Y005238D01*
X006621Y005281D01*
X006578Y005281D01*
X006536Y005238D01*
X006578Y005364D02*
X006536Y005407D01*
X006536Y005492D01*
X006493Y005535D01*
X006451Y005535D01*
X006408Y005492D01*
X006408Y005407D01*
X006451Y005364D01*
X006578Y005364D02*
X006621Y005364D01*
X006664Y005407D01*
X006664Y005492D01*
X006621Y005535D01*
X006621Y005618D02*
X006578Y005618D01*
X006536Y005661D01*
X006536Y005746D01*
X006493Y005789D01*
X006451Y005789D01*
X006408Y005746D01*
X006408Y005661D01*
X006451Y005618D01*
X006408Y005872D02*
X006408Y006042D01*
X006408Y005957D02*
X006664Y005957D01*
X006578Y005872D01*
X006621Y005789D02*
X006664Y005746D01*
X006664Y005661D01*
X006621Y005618D01*
X006621Y006125D02*
X006664Y006168D01*
X006664Y006253D01*
X006621Y006296D01*
X006578Y006296D01*
X006536Y006253D01*
X006493Y006296D01*
X006451Y006296D01*
X006408Y006253D01*
X006408Y006168D01*
X006451Y006125D01*
X006536Y006211D02*
X006536Y006253D01*
X006578Y006379D02*
X006536Y006422D01*
X006536Y006507D01*
X006493Y006550D01*
X006451Y006550D01*
X006408Y006507D01*
X006408Y006422D01*
X006451Y006379D01*
X006493Y006379D01*
X006536Y006422D01*
X006578Y006379D02*
X006621Y006379D01*
X006664Y006422D01*
X006664Y006507D01*
X006621Y006550D01*
X006578Y006550D01*
X006536Y006507D01*
X006077Y007488D02*
X005991Y007488D01*
X005949Y007530D01*
X005949Y007573D01*
X005991Y007616D01*
X006034Y007616D01*
X005991Y007616D02*
X005949Y007658D01*
X005949Y007701D01*
X005991Y007744D01*
X006077Y007744D01*
X006119Y007701D01*
X006119Y007530D02*
X006077Y007488D01*
X005865Y007488D02*
X005823Y007488D01*
X005823Y007530D01*
X005865Y007530D01*
X005865Y007488D01*
X005739Y007530D02*
X005696Y007488D01*
X005611Y007488D01*
X005568Y007530D01*
X005568Y007573D01*
X005611Y007616D01*
X005653Y007616D01*
X005611Y007616D02*
X005568Y007658D01*
X005568Y007701D01*
X005611Y007744D01*
X005696Y007744D01*
X005739Y007701D01*
X005485Y007658D02*
X005400Y007488D01*
X005314Y007658D01*
X005607Y008644D02*
X005607Y008814D01*
X005521Y008897D02*
X005479Y008897D01*
X005521Y008897D02*
X005692Y009068D01*
X005735Y009068D01*
X005735Y008897D01*
X005735Y008771D02*
X005607Y008644D01*
X005479Y008771D02*
X005735Y008771D01*
X005692Y009151D02*
X005521Y009151D01*
X005692Y009322D01*
X005521Y009322D01*
X005479Y009279D01*
X005479Y009194D01*
X005521Y009151D01*
X005692Y009151D02*
X005735Y009194D01*
X005735Y009279D01*
X005692Y009322D01*
X006333Y008704D02*
X006504Y008704D01*
X006504Y008449D01*
X006587Y008449D02*
X006587Y008619D01*
X006504Y008577D02*
X006419Y008577D01*
X006587Y008449D02*
X006715Y008449D01*
X006758Y008491D01*
X006758Y008619D01*
X006926Y008704D02*
X006926Y008449D01*
X007011Y008449D02*
X006841Y008449D01*
X007011Y008619D02*
X006926Y008704D01*
X006954Y009432D02*
X006954Y009603D01*
X006868Y009686D02*
X006826Y009686D01*
X006868Y009686D02*
X007039Y009857D01*
X007081Y009857D01*
X007081Y009686D01*
X007081Y009560D02*
X006954Y009432D01*
X007081Y009560D02*
X006826Y009560D01*
X006868Y009940D02*
X007039Y010110D01*
X006868Y010110D01*
X006826Y010068D01*
X006826Y009982D01*
X006868Y009940D01*
X007039Y009940D01*
X007081Y009982D01*
X007081Y010068D01*
X007039Y010110D01*
X004917Y009279D02*
X004917Y009194D01*
X004875Y009151D01*
X004704Y009151D01*
X004875Y009322D01*
X004704Y009322D01*
X004662Y009279D01*
X004662Y009194D01*
X004704Y009151D01*
X004875Y009068D02*
X004704Y008897D01*
X004662Y008897D01*
X004662Y008771D02*
X004917Y008771D01*
X004790Y008644D01*
X004790Y008814D01*
X004917Y008897D02*
X004917Y009068D01*
X004875Y009068D01*
X004917Y009279D02*
X004875Y009322D01*
X003953Y009222D02*
X003953Y009137D01*
X003910Y009094D01*
X003740Y009094D01*
X003910Y009265D01*
X003740Y009265D01*
X003697Y009222D01*
X003697Y009137D01*
X003740Y009094D01*
X003697Y009011D02*
X003697Y008840D01*
X003697Y008926D02*
X003953Y008926D01*
X003868Y008840D01*
X003825Y008757D02*
X003825Y008587D01*
X003953Y008503D02*
X003697Y008503D01*
X003697Y008333D02*
X003953Y008333D01*
X003868Y008418D01*
X003953Y008503D01*
X003953Y008250D02*
X003697Y008250D01*
X003825Y008250D02*
X003825Y008079D01*
X003697Y008079D02*
X003953Y008079D01*
X003722Y007736D02*
X003722Y007565D01*
X003466Y007565D01*
X003466Y007482D02*
X003637Y007482D01*
X003594Y007565D02*
X003594Y007651D01*
X003466Y007482D02*
X003466Y007354D01*
X003509Y007312D01*
X003637Y007312D01*
X003722Y007143D02*
X003466Y007143D01*
X003466Y007058D02*
X003466Y007228D01*
X003637Y007058D02*
X003722Y007143D01*
X003540Y008079D02*
X003540Y008250D01*
X003540Y008333D02*
X003284Y008333D01*
X003412Y008333D02*
X003412Y008503D01*
X003497Y008587D02*
X003540Y008629D01*
X003540Y008715D01*
X003497Y008757D01*
X003326Y008757D01*
X003284Y008715D01*
X003284Y008629D01*
X003326Y008587D01*
X003497Y008587D01*
X003540Y008503D02*
X003284Y008503D01*
X003126Y008503D02*
X003126Y008333D01*
X002870Y008333D01*
X002870Y008503D01*
X002870Y008672D02*
X003126Y008672D01*
X003126Y008587D02*
X003126Y008757D01*
X003084Y008840D02*
X003041Y008840D01*
X002998Y008883D01*
X002998Y008968D01*
X002956Y009011D01*
X002913Y009011D01*
X002870Y008968D01*
X002870Y008883D01*
X002913Y008840D01*
X003084Y008840D02*
X003126Y008883D01*
X003126Y008968D01*
X003084Y009011D01*
X003126Y009094D02*
X003041Y009179D01*
X003126Y009265D01*
X002870Y009265D01*
X002870Y009348D02*
X003041Y009348D01*
X003126Y009433D01*
X003041Y009518D01*
X002870Y009518D01*
X002870Y009602D02*
X003126Y009602D01*
X002998Y009644D02*
X002870Y009772D01*
X002870Y009855D02*
X002870Y010026D01*
X002870Y010109D02*
X003126Y010109D01*
X003126Y010237D01*
X003084Y010280D01*
X002998Y010280D01*
X002956Y010237D01*
X002956Y010109D01*
X002956Y010194D02*
X002870Y010280D01*
X002913Y010363D02*
X002870Y010406D01*
X002870Y010491D01*
X002913Y010533D01*
X003084Y010533D01*
X003126Y010491D01*
X003126Y010406D01*
X003084Y010363D01*
X002913Y010363D01*
X002870Y010617D02*
X002870Y010745D01*
X002913Y010787D01*
X002956Y010787D01*
X002998Y010745D01*
X002998Y010617D01*
X002870Y010617D02*
X003126Y010617D01*
X003126Y010745D01*
X003084Y010787D01*
X003041Y010787D01*
X002998Y010745D01*
X002913Y010870D02*
X002870Y010913D01*
X002870Y010998D01*
X002913Y011041D01*
X003084Y011041D01*
X003126Y010998D01*
X003126Y010913D01*
X003084Y010870D01*
X002913Y010870D01*
X003126Y011124D02*
X003126Y011295D01*
X003126Y011209D02*
X002870Y011209D01*
X002913Y011378D02*
X002870Y011421D01*
X002870Y011506D01*
X002913Y011549D01*
X002956Y011549D01*
X002998Y011506D01*
X002998Y011421D01*
X003041Y011378D01*
X003084Y011378D01*
X003126Y011421D01*
X003126Y011506D01*
X003084Y011549D01*
X003084Y011759D02*
X002913Y011759D01*
X002870Y011801D01*
X002870Y011887D01*
X002913Y011929D01*
X002913Y012012D02*
X002870Y012055D01*
X002870Y012140D01*
X002913Y012183D01*
X003084Y012183D01*
X003126Y012140D01*
X003126Y012055D01*
X003084Y012012D01*
X002913Y012012D01*
X003084Y011929D02*
X003126Y011887D01*
X003126Y011801D01*
X003084Y011759D01*
X002913Y011674D02*
X002870Y011674D01*
X002870Y011632D01*
X002913Y011632D01*
X002913Y011674D01*
X003284Y011633D02*
X003540Y011633D01*
X003540Y011463D02*
X003284Y011463D01*
X003284Y011379D02*
X003284Y011293D01*
X003284Y011336D02*
X003540Y011336D01*
X003540Y011293D02*
X003540Y011379D01*
X003540Y011463D02*
X003284Y011633D01*
X003284Y011210D02*
X003454Y011210D01*
X003540Y011125D01*
X003454Y011040D01*
X003284Y011040D01*
X003412Y011040D02*
X003412Y011210D01*
X003540Y010956D02*
X003540Y010786D01*
X003540Y010703D02*
X003540Y010532D01*
X003540Y010448D02*
X003540Y010363D01*
X003540Y010406D02*
X003284Y010406D01*
X003284Y010448D02*
X003284Y010363D01*
X003284Y010280D02*
X003369Y010194D01*
X003369Y010237D02*
X003369Y010109D01*
X003369Y010026D02*
X003326Y010026D01*
X003284Y009983D01*
X003284Y009855D01*
X003540Y009855D01*
X003540Y009983D01*
X003497Y010026D01*
X003454Y010026D01*
X003412Y009983D01*
X003412Y009855D01*
X003412Y009983D02*
X003369Y010026D01*
X003284Y010109D02*
X003540Y010109D01*
X003540Y010237D01*
X003497Y010280D01*
X003412Y010280D01*
X003369Y010237D01*
X003126Y010026D02*
X003126Y009855D01*
X002870Y009855D01*
X002998Y009855D02*
X002998Y009941D01*
X003126Y009772D02*
X002956Y009602D01*
X002998Y009518D02*
X002998Y009348D01*
X002870Y009094D02*
X003126Y009094D01*
X003284Y009094D02*
X003454Y009094D01*
X003540Y009179D01*
X003454Y009265D01*
X003284Y009265D01*
X003326Y009348D02*
X003284Y009391D01*
X003284Y009476D01*
X003326Y009518D01*
X003369Y009518D01*
X003412Y009476D01*
X003412Y009391D01*
X003454Y009348D01*
X003497Y009348D01*
X003540Y009391D01*
X003540Y009476D01*
X003497Y009518D01*
X003697Y009602D02*
X003697Y009730D01*
X003740Y009772D01*
X003782Y009772D01*
X003825Y009730D01*
X003825Y009602D01*
X003825Y009730D02*
X003868Y009772D01*
X003910Y009772D01*
X003953Y009730D01*
X003953Y009602D01*
X003697Y009602D01*
X003697Y009855D02*
X003953Y009855D01*
X003953Y009983D01*
X003910Y010026D01*
X003825Y010026D01*
X003782Y009983D01*
X003782Y009855D01*
X003782Y009941D02*
X003697Y010026D01*
X003697Y010109D02*
X003697Y010280D01*
X003697Y010363D02*
X003868Y010363D01*
X003953Y010448D01*
X003868Y010533D01*
X003697Y010533D01*
X003697Y010617D02*
X003953Y010617D01*
X003825Y010659D02*
X003697Y010787D01*
X003740Y010870D02*
X003697Y010913D01*
X003697Y010998D01*
X003740Y011041D01*
X003910Y011041D01*
X003953Y010998D01*
X003953Y010913D01*
X003910Y010870D01*
X003740Y010870D01*
X003953Y010787D02*
X003782Y010617D01*
X003825Y010533D02*
X003825Y010363D01*
X003953Y010280D02*
X003953Y010109D01*
X003697Y010109D01*
X003825Y010109D02*
X003825Y010194D01*
X003540Y010617D02*
X003284Y010617D01*
X003284Y010871D02*
X003540Y010871D01*
X003740Y011124D02*
X003697Y011167D01*
X003697Y011252D01*
X003740Y011295D01*
X003953Y011295D01*
X003953Y011378D02*
X003953Y011549D01*
X003953Y011463D02*
X003697Y011463D01*
X003740Y011124D02*
X003953Y011124D01*
X003868Y011885D02*
X003697Y011971D01*
X003868Y012056D01*
X003740Y012139D02*
X003740Y012182D01*
X003697Y012182D01*
X003697Y012139D01*
X003740Y012139D01*
X003740Y012266D02*
X003697Y012309D01*
X003697Y012394D01*
X003740Y012437D01*
X003910Y012437D01*
X003953Y012394D01*
X003953Y012309D01*
X003910Y012266D01*
X003868Y012266D01*
X003825Y012309D01*
X003825Y012437D01*
X003740Y012520D02*
X003740Y012563D01*
X003697Y012563D01*
X003697Y012520D01*
X003740Y012520D01*
X003740Y012647D02*
X003697Y012689D01*
X003697Y012775D01*
X003740Y012817D01*
X003910Y012817D01*
X003953Y012775D01*
X003953Y012689D01*
X003910Y012647D01*
X003868Y012647D01*
X003825Y012689D01*
X003825Y012817D01*
X003126Y012437D02*
X002870Y012437D01*
X002870Y012266D02*
X003126Y012266D01*
X003041Y012351D01*
X003126Y012437D01*
X003412Y009265D02*
X003412Y009094D01*
X003540Y009011D02*
X003284Y009011D01*
X003284Y008840D02*
X003540Y008840D01*
X003454Y008926D01*
X003540Y009011D01*
X003910Y009265D02*
X003953Y009222D01*
X003540Y008164D02*
X003284Y008164D01*
X003126Y008079D02*
X002870Y008079D01*
X002870Y008250D01*
X002998Y008333D02*
X002998Y008418D01*
X002970Y006005D02*
X002885Y006005D01*
X002842Y005963D01*
X003013Y005792D01*
X002970Y005750D01*
X002885Y005750D01*
X002842Y005792D01*
X002842Y005963D01*
X002759Y006005D02*
X002759Y005750D01*
X002759Y005835D02*
X002631Y005920D01*
X002759Y005835D02*
X002631Y005750D01*
X002970Y006005D02*
X003013Y005963D01*
X003013Y005792D01*
X003096Y005750D02*
X003267Y005750D01*
X003182Y005750D02*
X003182Y006005D01*
X003267Y005920D01*
X004326Y005667D02*
X004454Y005582D01*
X004326Y005496D01*
X004454Y005496D02*
X004454Y005752D01*
X004537Y005710D02*
X004708Y005539D01*
X004665Y005496D01*
X004580Y005496D01*
X004537Y005539D01*
X004537Y005710D01*
X004580Y005752D01*
X004665Y005752D01*
X004708Y005710D01*
X004708Y005539D01*
X004791Y005496D02*
X004961Y005496D01*
X004876Y005496D02*
X004876Y005752D01*
X004961Y005667D01*
X004930Y004638D02*
X004930Y004382D01*
X004930Y004467D02*
X004802Y004552D01*
X004930Y004467D02*
X004802Y004382D01*
X005014Y004424D02*
X005056Y004382D01*
X005142Y004382D01*
X005184Y004424D01*
X005014Y004595D01*
X005014Y004424D01*
X005014Y004595D02*
X005056Y004638D01*
X005142Y004638D01*
X005184Y004595D01*
X005184Y004424D01*
X005267Y004382D02*
X005438Y004382D01*
X005267Y004552D01*
X005267Y004595D01*
X005310Y004638D01*
X005395Y004638D01*
X005438Y004595D01*
D13*
X005467Y001294D02*
X005467Y001227D01*
X005467Y001093D02*
X005467Y000824D01*
X005400Y000824D02*
X005535Y000824D01*
X005664Y000824D02*
X005664Y001093D01*
X005535Y001093D02*
X005467Y001093D01*
X005269Y001093D02*
X005269Y000824D01*
X005269Y001093D02*
X005067Y001093D01*
X005000Y001026D01*
X005000Y000824D01*
X004870Y000891D02*
X004870Y001026D01*
X004803Y001093D01*
X004668Y001093D01*
X004601Y001026D01*
X004601Y000891D01*
X004668Y000824D01*
X004803Y000824D01*
X004870Y000891D01*
X004471Y000891D02*
X004404Y000891D01*
X004404Y000824D01*
X004471Y000824D01*
X004471Y000891D01*
X004272Y000891D02*
X004205Y000824D01*
X004003Y000824D01*
X003873Y000891D02*
X003806Y000824D01*
X003671Y000824D01*
X003604Y000891D01*
X003604Y001026D01*
X003671Y001093D01*
X003806Y001093D01*
X003873Y001026D01*
X003873Y000891D01*
X004003Y001093D02*
X004205Y001093D01*
X004272Y001026D01*
X004272Y000891D01*
X003474Y000891D02*
X003407Y000891D01*
X003407Y000824D01*
X003474Y000824D01*
X003474Y000891D01*
X003275Y000891D02*
X003275Y001093D01*
X003275Y000891D02*
X003208Y000824D01*
X003006Y000824D01*
X003006Y001093D01*
X002876Y001227D02*
X002876Y000824D01*
X002876Y000958D02*
X002674Y001093D01*
X002876Y000958D02*
X002674Y000824D01*
X005664Y000824D02*
X005866Y000824D01*
X005933Y000891D01*
X005933Y001093D01*
X006063Y001093D02*
X006265Y001093D01*
X006332Y001026D01*
X006332Y000891D01*
X006265Y000824D01*
X006063Y000824D01*
X006063Y001227D01*
X006463Y001093D02*
X006530Y001093D01*
X006664Y000958D01*
X006664Y000824D02*
X006664Y001093D01*
X006794Y001026D02*
X006794Y000824D01*
X006996Y000824D01*
X007063Y000891D01*
X006996Y000958D01*
X006794Y000958D01*
X006794Y001026D02*
X006862Y001093D01*
X006996Y001093D01*
X007193Y001093D02*
X007395Y001093D01*
X007462Y001026D01*
X007462Y000891D01*
X007395Y000824D01*
X007193Y000824D01*
X006502Y012137D02*
X006299Y012137D01*
X006248Y012188D01*
X006248Y012290D01*
X006299Y012341D01*
X006299Y012446D02*
X006248Y012496D01*
X006248Y012598D01*
X006299Y012649D01*
X006502Y012649D01*
X006553Y012598D01*
X006553Y012496D01*
X006502Y012446D01*
X006299Y012446D01*
X006502Y012341D02*
X006553Y012290D01*
X006553Y012188D01*
X006502Y012137D01*
X006553Y012754D02*
X006248Y012754D01*
X006248Y012957D02*
X006553Y012957D01*
X006553Y013062D02*
X006248Y013265D01*
X006553Y013265D01*
X006553Y013062D02*
X006248Y013062D01*
X006248Y012957D02*
X006553Y012754D01*
X005836Y012791D02*
X005512Y012574D01*
X005512Y012465D02*
X005620Y012356D01*
X005620Y012410D02*
X005620Y012248D01*
X005512Y012248D02*
X005836Y012248D01*
X005836Y012410D01*
X005782Y012465D01*
X005674Y012465D01*
X005620Y012410D01*
X005836Y012574D02*
X005512Y012791D01*
X005067Y012771D02*
X004743Y012555D01*
X004743Y012771D02*
X005067Y012555D01*
X005067Y012445D02*
X005067Y012229D01*
X005067Y012337D02*
X004743Y012337D01*
D14*
X005087Y003879D02*
X005348Y003879D01*
X005363Y003878D02*
X005063Y003878D01*
X005039Y003877D02*
X005369Y003877D01*
X005375Y003876D02*
X005021Y003876D01*
X005014Y003875D02*
X005381Y003875D01*
X005387Y003874D02*
X005007Y003874D01*
X005000Y003873D02*
X005393Y003873D01*
X005399Y003872D02*
X004993Y003872D01*
X004986Y003871D02*
X005405Y003871D01*
X005411Y003870D02*
X004979Y003870D01*
X004972Y003869D02*
X005417Y003869D01*
X005423Y003868D02*
X004965Y003868D01*
X004957Y003867D02*
X005429Y003867D01*
X005435Y003866D02*
X004950Y003866D01*
X004943Y003865D02*
X005441Y003865D01*
X005447Y003864D02*
X004936Y003864D01*
X004929Y003863D02*
X005453Y003863D01*
X005459Y003862D02*
X004922Y003862D01*
X004915Y003861D02*
X005465Y003861D01*
X005471Y003860D02*
X004908Y003860D01*
X004901Y003859D02*
X005477Y003859D01*
X005483Y003858D02*
X004894Y003858D01*
X004887Y003857D02*
X005489Y003857D01*
X005495Y003856D02*
X004880Y003856D01*
X004873Y003855D02*
X005501Y003855D01*
X005507Y003854D02*
X004866Y003854D01*
X004858Y003853D02*
X005513Y003853D01*
X005519Y003852D02*
X004856Y003852D01*
X004853Y003851D02*
X005525Y003851D01*
X005531Y003850D02*
X004851Y003850D01*
X004848Y003849D02*
X005537Y003849D01*
X005543Y003848D02*
X004846Y003848D01*
X004843Y003847D02*
X005549Y003847D01*
X005555Y003846D02*
X004841Y003846D01*
X004838Y003845D02*
X005561Y003845D01*
X005567Y003844D02*
X004836Y003844D01*
X004833Y003843D02*
X005572Y003843D01*
X005575Y003842D02*
X004831Y003842D01*
X004828Y003841D02*
X005578Y003841D01*
X005581Y003840D02*
X004826Y003840D01*
X004823Y003839D02*
X005583Y003839D01*
X005586Y003838D02*
X004821Y003838D01*
X004818Y003837D02*
X005589Y003837D01*
X005592Y003836D02*
X004816Y003836D01*
X004813Y003835D02*
X005595Y003835D01*
X005598Y003834D02*
X004811Y003834D01*
X004808Y003833D02*
X005600Y003833D01*
X005603Y003832D02*
X004806Y003832D01*
X004803Y003831D02*
X005606Y003831D01*
X005609Y003830D02*
X004801Y003830D01*
X004798Y003829D02*
X005612Y003829D01*
X005615Y003828D02*
X004796Y003828D01*
X004793Y003827D02*
X005617Y003827D01*
X005620Y003826D02*
X004791Y003826D01*
X004788Y003825D02*
X005623Y003825D01*
X005626Y003824D02*
X004786Y003824D01*
X004783Y003823D02*
X005629Y003823D01*
X005632Y003822D02*
X004781Y003822D01*
X004778Y003821D02*
X005634Y003821D01*
X005637Y003820D02*
X004776Y003820D01*
X004773Y003819D02*
X005640Y003819D01*
X005643Y003818D02*
X004771Y003818D01*
X004768Y003817D02*
X005646Y003817D01*
X005649Y003816D02*
X004766Y003816D01*
X004763Y003815D02*
X005651Y003815D01*
X005654Y003814D02*
X004761Y003814D01*
X004758Y003813D02*
X005657Y003813D01*
X005660Y003812D02*
X004756Y003812D01*
X004753Y003811D02*
X005663Y003811D01*
X005666Y003810D02*
X004751Y003810D01*
X004748Y003809D02*
X005668Y003809D01*
X005671Y003808D02*
X004746Y003808D01*
X004743Y003807D02*
X005674Y003807D01*
X005677Y003806D02*
X004741Y003806D01*
X004738Y003805D02*
X005680Y003805D01*
X005683Y003804D02*
X004736Y003804D01*
X004733Y003803D02*
X005685Y003803D01*
X005688Y003802D02*
X004731Y003802D01*
X004728Y003801D02*
X005691Y003801D01*
X005694Y003800D02*
X004726Y003800D01*
X004723Y003799D02*
X005697Y003799D01*
X005700Y003798D02*
X004721Y003798D01*
X004718Y003797D02*
X005702Y003797D01*
X005705Y003796D02*
X004716Y003796D01*
X004713Y003795D02*
X005708Y003795D01*
X005711Y003794D02*
X004711Y003794D01*
X004708Y003793D02*
X005714Y003793D01*
X005717Y003792D02*
X004706Y003792D01*
X004703Y003791D02*
X005719Y003791D01*
X005722Y003790D02*
X004701Y003790D01*
X004698Y003789D02*
X005725Y003789D01*
X005728Y003788D02*
X004696Y003788D01*
X004693Y003787D02*
X005731Y003787D01*
X005734Y003786D02*
X004691Y003786D01*
X004688Y003785D02*
X005736Y003785D01*
X005739Y003784D02*
X004686Y003784D01*
X004683Y003783D02*
X005742Y003783D01*
X005745Y003782D02*
X004681Y003782D01*
X004678Y003781D02*
X005748Y003781D01*
X005751Y003780D02*
X004676Y003780D01*
X004673Y003779D02*
X005753Y003779D01*
X005756Y003778D02*
X004671Y003778D01*
X004668Y003777D02*
X005759Y003777D01*
X005762Y003776D02*
X004666Y003776D01*
X004663Y003775D02*
X005765Y003775D01*
X005768Y003774D02*
X004661Y003774D01*
X004658Y003773D02*
X005770Y003773D01*
X005773Y003772D02*
X004656Y003772D01*
X004653Y003771D02*
X005775Y003771D01*
X005776Y003770D02*
X004651Y003770D01*
X004649Y003769D02*
X005778Y003769D01*
X005780Y003768D02*
X004648Y003768D01*
X004646Y003767D02*
X005781Y003767D01*
X005783Y003766D02*
X004645Y003766D01*
X004643Y003765D02*
X005785Y003765D01*
X005786Y003764D02*
X004642Y003764D01*
X004640Y003763D02*
X005788Y003763D01*
X005790Y003762D02*
X004639Y003762D01*
X004637Y003761D02*
X005792Y003761D01*
X005793Y003760D02*
X004636Y003760D01*
X004634Y003759D02*
X005795Y003759D01*
X005797Y003758D02*
X004632Y003758D01*
X004631Y003757D02*
X005798Y003757D01*
X005800Y003756D02*
X004629Y003756D01*
X004628Y003755D02*
X005802Y003755D01*
X005803Y003754D02*
X004626Y003754D01*
X004625Y003753D02*
X005805Y003753D01*
X005807Y003752D02*
X004623Y003752D01*
X004622Y003751D02*
X005808Y003751D01*
X005810Y003750D02*
X004620Y003750D01*
X004619Y003749D02*
X005812Y003749D01*
X005814Y003748D02*
X004617Y003748D01*
X004616Y003747D02*
X005815Y003747D01*
X005817Y003746D02*
X004614Y003746D01*
X004613Y003745D02*
X005819Y003745D01*
X005820Y003744D02*
X004611Y003744D01*
X004609Y003743D02*
X005822Y003743D01*
X005824Y003742D02*
X004608Y003742D01*
X004606Y003741D02*
X005825Y003741D01*
X005827Y003740D02*
X004605Y003740D01*
X004603Y003739D02*
X005829Y003739D01*
X005831Y003738D02*
X004602Y003738D01*
X004600Y003737D02*
X005832Y003737D01*
X005834Y003736D02*
X004599Y003736D01*
X004597Y003735D02*
X005836Y003735D01*
X005837Y003734D02*
X004596Y003734D01*
X004594Y003733D02*
X005839Y003733D01*
X005841Y003732D02*
X004593Y003732D01*
X004591Y003731D02*
X005842Y003731D01*
X005844Y003730D02*
X004590Y003730D01*
X004588Y003729D02*
X005846Y003729D01*
X005847Y003728D02*
X004586Y003728D01*
X004585Y003727D02*
X005849Y003727D01*
X005851Y003726D02*
X004583Y003726D01*
X004582Y003725D02*
X005853Y003725D01*
X005854Y003724D02*
X004580Y003724D01*
X004579Y003723D02*
X005856Y003723D01*
X005858Y003722D02*
X004577Y003722D01*
X004576Y003721D02*
X005859Y003721D01*
X005861Y003720D02*
X004574Y003720D01*
X004573Y003719D02*
X005863Y003719D01*
X005864Y003718D02*
X004571Y003718D01*
X004570Y003717D02*
X005866Y003717D01*
X005868Y003716D02*
X004568Y003716D01*
X004566Y003715D02*
X005870Y003715D01*
X005871Y003714D02*
X004565Y003714D01*
X004563Y003713D02*
X005873Y003713D01*
X005875Y003712D02*
X004562Y003712D01*
X004560Y003711D02*
X005876Y003711D01*
X005878Y003710D02*
X004559Y003710D01*
X004557Y003709D02*
X005880Y003709D01*
X005881Y003708D02*
X004556Y003708D01*
X004554Y003707D02*
X005883Y003707D01*
X005885Y003706D02*
X004553Y003706D01*
X004551Y003705D02*
X005887Y003705D01*
X005888Y003704D02*
X004550Y003704D01*
X004548Y003703D02*
X005890Y003703D01*
X005892Y003702D02*
X004547Y003702D01*
X004545Y003701D02*
X005893Y003701D01*
X005895Y003700D02*
X004543Y003700D01*
X004542Y003699D02*
X005897Y003699D01*
X005898Y003698D02*
X004540Y003698D01*
X004539Y003697D02*
X005900Y003697D01*
X005902Y003696D02*
X004537Y003696D01*
X004536Y003695D02*
X005903Y003695D01*
X005905Y003694D02*
X004534Y003694D01*
X004533Y003693D02*
X005907Y003693D01*
X005909Y003692D02*
X004531Y003692D01*
X004530Y003691D02*
X005910Y003691D01*
X005912Y003690D02*
X004528Y003690D01*
X004527Y003689D02*
X005914Y003689D01*
X005915Y003688D02*
X004525Y003688D01*
X004524Y003687D02*
X005917Y003687D01*
X005919Y003686D02*
X004522Y003686D01*
X004520Y003685D02*
X005920Y003685D01*
X005922Y003684D02*
X004519Y003684D01*
X004517Y003683D02*
X005924Y003683D01*
X005926Y003682D02*
X004516Y003682D01*
X004514Y003681D02*
X005927Y003681D01*
X005929Y003680D02*
X004513Y003680D01*
X004511Y003679D02*
X005931Y003679D01*
X005932Y003678D02*
X004510Y003678D01*
X004508Y003677D02*
X005934Y003677D01*
X005936Y003676D02*
X004507Y003676D01*
X004505Y003675D02*
X005937Y003675D01*
X005939Y003674D02*
X004504Y003674D01*
X004502Y003673D02*
X005941Y003673D01*
X005942Y003672D02*
X004501Y003672D01*
X004499Y003671D02*
X005944Y003671D01*
X005946Y003670D02*
X004497Y003670D01*
X004496Y003669D02*
X005948Y003669D01*
X005949Y003668D02*
X004494Y003668D01*
X004493Y003667D02*
X005951Y003667D01*
X005953Y003666D02*
X004491Y003666D01*
X004490Y003665D02*
X005954Y003665D01*
X005956Y003664D02*
X004488Y003664D01*
X004487Y003663D02*
X005957Y003663D01*
X005959Y003662D02*
X004485Y003662D01*
X004484Y003661D02*
X005960Y003661D01*
X005961Y003660D02*
X004482Y003660D01*
X004481Y003659D02*
X005962Y003659D01*
X005963Y003658D02*
X004479Y003658D01*
X004478Y003657D02*
X005964Y003657D01*
X005965Y003656D02*
X004476Y003656D01*
X004474Y003655D02*
X005967Y003655D01*
X005968Y003654D02*
X004473Y003654D01*
X004471Y003653D02*
X005969Y003653D01*
X005970Y003652D02*
X004470Y003652D01*
X004468Y003651D02*
X005971Y003651D01*
X005972Y003650D02*
X004467Y003650D01*
X004465Y003649D02*
X005973Y003649D01*
X005974Y003648D02*
X004464Y003648D01*
X004463Y003647D02*
X005976Y003647D01*
X005977Y003646D02*
X004462Y003646D01*
X004461Y003645D02*
X005978Y003645D01*
X005979Y003644D02*
X004460Y003644D01*
X004459Y003643D02*
X005980Y003643D01*
X005981Y003642D02*
X004458Y003642D01*
X004457Y003641D02*
X005982Y003641D01*
X005984Y003640D02*
X004456Y003640D01*
X004454Y003639D02*
X005985Y003639D01*
X005986Y003638D02*
X004453Y003638D01*
X004452Y003637D02*
X005987Y003637D01*
X005988Y003636D02*
X004451Y003636D01*
X004450Y003635D02*
X005989Y003635D01*
X005990Y003634D02*
X004449Y003634D01*
X004448Y003633D02*
X005992Y003633D01*
X005993Y003632D02*
X004447Y003632D01*
X004446Y003631D02*
X005994Y003631D01*
X005995Y003630D02*
X004445Y003630D01*
X004444Y003629D02*
X005996Y003629D01*
X005997Y003628D02*
X004443Y003628D01*
X004442Y003627D02*
X005998Y003627D01*
X005999Y003626D02*
X004441Y003626D01*
X004439Y003625D02*
X006001Y003625D01*
X006002Y003624D02*
X004438Y003624D01*
X004437Y003623D02*
X006003Y003623D01*
X006004Y003623D02*
X004436Y003623D01*
X004435Y003622D02*
X006005Y003622D01*
X006006Y003621D02*
X004434Y003621D01*
X004433Y003620D02*
X006007Y003620D01*
X006009Y003619D02*
X004432Y003619D01*
X004431Y003618D02*
X006010Y003618D01*
X006011Y003617D02*
X004430Y003617D01*
X004429Y003616D02*
X006012Y003616D01*
X006013Y003615D02*
X004428Y003615D01*
X004427Y003614D02*
X006014Y003614D01*
X006015Y003613D02*
X004426Y003613D01*
X004424Y003612D02*
X006017Y003612D01*
X006018Y003611D02*
X004423Y003611D01*
X004422Y003610D02*
X006019Y003610D01*
X006020Y003609D02*
X004421Y003609D01*
X004420Y003608D02*
X006021Y003608D01*
X006022Y003607D02*
X004419Y003607D01*
X004418Y003606D02*
X006023Y003606D01*
X006025Y003605D02*
X004417Y003605D01*
X004416Y003604D02*
X006026Y003604D01*
X006027Y003603D02*
X004415Y003603D01*
X004414Y003602D02*
X006028Y003602D01*
X006029Y003601D02*
X004413Y003601D01*
X004412Y003600D02*
X006030Y003600D01*
X006031Y003599D02*
X004411Y003599D01*
X004409Y003598D02*
X006032Y003598D01*
X006034Y003597D02*
X004408Y003597D01*
X004407Y003596D02*
X006035Y003596D01*
X006036Y003595D02*
X004406Y003595D01*
X004405Y003594D02*
X006037Y003594D01*
X006038Y003593D02*
X004404Y003593D01*
X004403Y003592D02*
X006039Y003592D01*
X006040Y003591D02*
X004402Y003591D01*
X004401Y003590D02*
X006042Y003590D01*
X006043Y003589D02*
X004400Y003589D01*
X004399Y003588D02*
X006044Y003588D01*
X006045Y003587D02*
X004398Y003587D01*
X004397Y003586D02*
X006046Y003586D01*
X006047Y003585D02*
X004396Y003585D01*
X004394Y003584D02*
X006048Y003584D01*
X006050Y003583D02*
X004393Y003583D01*
X004392Y003582D02*
X006051Y003582D01*
X006052Y003581D02*
X004391Y003581D01*
X004390Y003580D02*
X006053Y003580D01*
X006054Y003579D02*
X004389Y003579D01*
X004388Y003578D02*
X006055Y003578D01*
X006056Y003577D02*
X004387Y003577D01*
X004386Y003576D02*
X006057Y003576D01*
X006059Y003575D02*
X004385Y003575D01*
X004384Y003574D02*
X006060Y003574D01*
X006061Y003573D02*
X004383Y003573D01*
X004382Y003572D02*
X006062Y003572D01*
X006063Y003571D02*
X004381Y003571D01*
X004379Y003570D02*
X006064Y003570D01*
X006065Y003569D02*
X004378Y003569D01*
X004377Y003568D02*
X006067Y003568D01*
X006068Y003567D02*
X004376Y003567D01*
X004375Y003566D02*
X006069Y003566D01*
X006070Y003565D02*
X004374Y003565D01*
X004373Y003564D02*
X006071Y003564D01*
X006072Y003563D02*
X004372Y003563D01*
X004371Y003562D02*
X006073Y003562D01*
X006075Y003561D02*
X004370Y003561D01*
X004369Y003560D02*
X006076Y003560D01*
X006077Y003559D02*
X004368Y003559D01*
X004367Y003558D02*
X006078Y003558D01*
X006079Y003557D02*
X004366Y003557D01*
X004364Y003556D02*
X006080Y003556D01*
X006081Y003555D02*
X004363Y003555D01*
X004362Y003554D02*
X006082Y003554D01*
X006084Y003553D02*
X004361Y003553D01*
X004360Y003552D02*
X006085Y003552D01*
X006086Y003551D02*
X004359Y003551D01*
X004358Y003550D02*
X006087Y003550D01*
X006088Y003549D02*
X004357Y003549D01*
X004356Y003548D02*
X006089Y003548D01*
X006090Y003547D02*
X004355Y003547D01*
X004354Y003546D02*
X006092Y003546D01*
X006093Y003545D02*
X004353Y003545D01*
X004352Y003544D02*
X006094Y003544D01*
X006095Y003543D02*
X004351Y003543D01*
X004349Y003542D02*
X006096Y003542D01*
X006097Y003541D02*
X004348Y003541D01*
X004347Y003540D02*
X006098Y003540D01*
X006100Y003539D02*
X004346Y003539D01*
X004345Y003538D02*
X006101Y003538D01*
X006102Y003537D02*
X004344Y003537D01*
X004343Y003536D02*
X006103Y003536D01*
X006104Y003535D02*
X004342Y003535D01*
X004341Y003534D02*
X006105Y003534D01*
X006106Y003533D02*
X004340Y003533D01*
X004339Y003532D02*
X006107Y003532D01*
X006109Y003531D02*
X004338Y003531D01*
X004337Y003530D02*
X006110Y003530D01*
X006111Y003529D02*
X004336Y003529D01*
X004334Y003528D02*
X006112Y003528D01*
X006113Y003527D02*
X004333Y003527D01*
X004332Y003526D02*
X006114Y003526D01*
X006115Y003525D02*
X004331Y003525D01*
X004330Y003524D02*
X006117Y003524D01*
X006118Y003523D02*
X004329Y003523D01*
X004328Y003522D02*
X006119Y003522D01*
X006119Y003521D02*
X004327Y003521D01*
X004326Y003520D02*
X006120Y003520D01*
X006121Y003519D02*
X004325Y003519D01*
X004324Y003518D02*
X006122Y003518D01*
X006122Y003517D02*
X004323Y003517D01*
X004322Y003516D02*
X006123Y003516D01*
X006124Y003515D02*
X004321Y003515D01*
X004319Y003514D02*
X006125Y003514D01*
X006126Y003513D02*
X004318Y003513D01*
X004317Y003512D02*
X006126Y003512D01*
X006127Y003511D02*
X004316Y003511D01*
X004315Y003510D02*
X006128Y003510D01*
X006129Y003509D02*
X004314Y003509D01*
X004313Y003508D02*
X006129Y003508D01*
X006130Y003507D02*
X004312Y003507D01*
X004311Y003506D02*
X006131Y003506D01*
X006132Y003505D02*
X004310Y003505D01*
X004309Y003504D02*
X006133Y003504D01*
X006133Y003503D02*
X004308Y003503D01*
X004307Y003502D02*
X006134Y003502D01*
X006135Y003501D02*
X004306Y003501D01*
X004304Y003500D02*
X006136Y003500D01*
X006136Y003499D02*
X004303Y003499D01*
X004302Y003498D02*
X006137Y003498D01*
X006138Y003497D02*
X004302Y003497D01*
X004301Y003496D02*
X006139Y003496D01*
X006139Y003495D02*
X004300Y003495D01*
X004299Y003494D02*
X006140Y003494D01*
X006141Y003493D02*
X004298Y003493D01*
X004298Y003492D02*
X006142Y003492D01*
X006143Y003491D02*
X004297Y003491D01*
X004296Y003490D02*
X006143Y003490D01*
X006144Y003489D02*
X004295Y003489D01*
X004295Y003488D02*
X006145Y003488D01*
X006146Y003487D02*
X004294Y003487D01*
X004293Y003486D02*
X006146Y003486D01*
X006147Y003485D02*
X004292Y003485D01*
X004291Y003484D02*
X006148Y003484D01*
X006149Y003483D02*
X004291Y003483D01*
X004290Y003482D02*
X006150Y003482D01*
X006150Y003481D02*
X004289Y003481D01*
X004288Y003480D02*
X006151Y003480D01*
X006152Y003479D02*
X004288Y003479D01*
X004287Y003478D02*
X006153Y003478D01*
X006153Y003477D02*
X004286Y003477D01*
X004285Y003476D02*
X006154Y003476D01*
X006155Y003475D02*
X004284Y003475D01*
X004284Y003474D02*
X006156Y003474D01*
X006157Y003473D02*
X004283Y003473D01*
X004282Y003472D02*
X006157Y003472D01*
X006158Y003471D02*
X004281Y003471D01*
X004281Y003470D02*
X006159Y003470D01*
X006160Y003469D02*
X004280Y003469D01*
X004279Y003468D02*
X006160Y003468D01*
X006161Y003467D02*
X004278Y003467D01*
X004277Y003466D02*
X006162Y003466D01*
X006163Y003465D02*
X004277Y003465D01*
X004276Y003464D02*
X006164Y003464D01*
X006164Y003463D02*
X004275Y003463D01*
X004274Y003462D02*
X006165Y003462D01*
X006166Y003461D02*
X004274Y003461D01*
X004273Y003460D02*
X006167Y003460D01*
X006167Y003459D02*
X004272Y003459D01*
X004271Y003458D02*
X006168Y003458D01*
X006169Y003457D02*
X004270Y003457D01*
X004270Y003456D02*
X006170Y003456D01*
X006171Y003455D02*
X004269Y003455D01*
X004268Y003454D02*
X006171Y003454D01*
X006172Y003453D02*
X004267Y003453D01*
X004267Y003452D02*
X006173Y003452D01*
X006174Y003451D02*
X004266Y003451D01*
X004265Y003450D02*
X006174Y003450D01*
X006175Y003449D02*
X004264Y003449D01*
X004263Y003448D02*
X006176Y003448D01*
X006177Y003447D02*
X004263Y003447D01*
X004262Y003446D02*
X006178Y003446D01*
X006178Y003445D02*
X004261Y003445D01*
X004260Y003444D02*
X006179Y003444D01*
X006180Y003443D02*
X004260Y003443D01*
X004259Y003442D02*
X006181Y003442D01*
X006181Y003441D02*
X004258Y003441D01*
X004257Y003440D02*
X006182Y003440D01*
X006183Y003439D02*
X004256Y003439D01*
X004256Y003438D02*
X006184Y003438D01*
X006185Y003437D02*
X004255Y003437D01*
X004254Y003436D02*
X006185Y003436D01*
X006186Y003435D02*
X004253Y003435D01*
X004253Y003434D02*
X006187Y003434D01*
X006188Y003433D02*
X004252Y003433D01*
X004251Y003432D02*
X006188Y003432D01*
X006189Y003431D02*
X004250Y003431D01*
X004249Y003430D02*
X006190Y003430D01*
X006191Y003429D02*
X004249Y003429D01*
X004248Y003428D02*
X006192Y003428D01*
X006192Y003427D02*
X004247Y003427D01*
X004246Y003426D02*
X006193Y003426D01*
X006194Y003425D02*
X004246Y003425D01*
X004245Y003424D02*
X006195Y003424D01*
X006195Y003423D02*
X004244Y003423D01*
X004243Y003422D02*
X006196Y003422D01*
X006197Y003421D02*
X004242Y003421D01*
X004242Y003420D02*
X006198Y003420D01*
X006199Y003419D02*
X004241Y003419D01*
X004240Y003418D02*
X006199Y003418D01*
X006200Y003417D02*
X004239Y003417D01*
X004239Y003416D02*
X006201Y003416D01*
X006202Y003415D02*
X004238Y003415D01*
X004237Y003414D02*
X006202Y003414D01*
X006203Y003413D02*
X004236Y003413D01*
X004235Y003412D02*
X006204Y003412D01*
X006205Y003411D02*
X004235Y003411D01*
X004234Y003410D02*
X006206Y003410D01*
X006206Y003409D02*
X004233Y003409D01*
X004232Y003408D02*
X006207Y003408D01*
X006208Y003407D02*
X004232Y003407D01*
X004231Y003406D02*
X006209Y003406D01*
X006209Y003405D02*
X004230Y003405D01*
X004229Y003404D02*
X006210Y003404D01*
X006211Y003403D02*
X004228Y003403D01*
X004228Y003402D02*
X006212Y003402D01*
X006213Y003401D02*
X004227Y003401D01*
X004226Y003400D02*
X006213Y003400D01*
X006214Y003399D02*
X004225Y003399D01*
X004225Y003398D02*
X006215Y003398D01*
X006216Y003397D02*
X004224Y003397D01*
X004223Y003396D02*
X006216Y003396D01*
X006217Y003395D02*
X004222Y003395D01*
X004221Y003394D02*
X006218Y003394D01*
X006219Y003393D02*
X004221Y003393D01*
X004220Y003392D02*
X006220Y003392D01*
X006220Y003391D02*
X004219Y003391D01*
X004218Y003390D02*
X006221Y003390D01*
X006222Y003389D02*
X004218Y003389D01*
X004217Y003388D02*
X006223Y003388D01*
X006223Y003387D02*
X004216Y003387D01*
X004215Y003386D02*
X006224Y003386D01*
X006225Y003385D02*
X004214Y003385D01*
X004214Y003384D02*
X006226Y003384D01*
X006227Y003383D02*
X004213Y003383D01*
X004212Y003382D02*
X006227Y003382D01*
X006228Y003381D02*
X004211Y003381D01*
X004211Y003380D02*
X006229Y003380D01*
X006230Y003379D02*
X004210Y003379D01*
X004209Y003378D02*
X006230Y003378D01*
X006231Y003377D02*
X004208Y003377D01*
X004207Y003376D02*
X006232Y003376D01*
X006233Y003375D02*
X004207Y003375D01*
X004206Y003374D02*
X006234Y003374D01*
X006234Y003373D02*
X004205Y003373D01*
X004204Y003372D02*
X006235Y003372D01*
X006236Y003371D02*
X004204Y003371D01*
X004203Y003370D02*
X006237Y003370D01*
X006237Y003369D02*
X004202Y003369D01*
X004201Y003368D02*
X006238Y003368D01*
X006239Y003367D02*
X004200Y003367D01*
X004200Y003366D02*
X006240Y003366D01*
X006241Y003365D02*
X004199Y003365D01*
X004198Y003364D02*
X006241Y003364D01*
X006242Y003363D02*
X004197Y003363D01*
X004197Y003362D02*
X006243Y003362D01*
X006244Y003361D02*
X004196Y003361D01*
X004195Y003360D02*
X006244Y003360D01*
X006245Y003359D02*
X004194Y003359D01*
X004193Y003358D02*
X006246Y003358D01*
X006247Y003357D02*
X004193Y003357D01*
X004192Y003356D02*
X006248Y003356D01*
X006248Y003355D02*
X004191Y003355D01*
X004190Y003354D02*
X006249Y003354D01*
X006250Y003353D02*
X004190Y003353D01*
X004189Y003352D02*
X006250Y003352D01*
X006251Y003351D02*
X004188Y003351D01*
X004187Y003350D02*
X006251Y003350D01*
X006252Y003349D02*
X004186Y003349D01*
X004186Y003348D02*
X006252Y003348D01*
X006253Y003347D02*
X004185Y003347D01*
X004184Y003346D02*
X006253Y003346D01*
X006254Y003345D02*
X004183Y003345D01*
X004183Y003344D02*
X006255Y003344D01*
X006255Y003343D02*
X004182Y003343D01*
X004181Y003342D02*
X006256Y003342D01*
X006256Y003341D02*
X004180Y003341D01*
X004179Y003340D02*
X006257Y003340D01*
X006257Y003339D02*
X004179Y003339D01*
X004178Y003338D02*
X006258Y003338D01*
X006258Y003337D02*
X004177Y003337D01*
X004176Y003336D02*
X006259Y003336D01*
X006259Y003335D02*
X004176Y003335D01*
X004175Y003334D02*
X006260Y003334D01*
X006261Y003333D02*
X004174Y003333D01*
X004173Y003332D02*
X006261Y003332D01*
X006262Y003331D02*
X004172Y003331D01*
X004172Y003330D02*
X006262Y003330D01*
X006263Y003329D02*
X004171Y003329D01*
X004170Y003328D02*
X006263Y003328D01*
X006264Y003327D02*
X004169Y003327D01*
X004169Y003326D02*
X006264Y003326D01*
X006265Y003325D02*
X004168Y003325D01*
X004167Y003324D02*
X006266Y003324D01*
X006266Y003323D02*
X004166Y003323D01*
X004166Y003322D02*
X006267Y003322D01*
X006267Y003321D02*
X004165Y003321D01*
X004164Y003320D02*
X006268Y003320D01*
X006268Y003319D02*
X004164Y003319D01*
X004163Y003318D02*
X006269Y003318D01*
X006269Y003317D02*
X004163Y003317D01*
X004162Y003316D02*
X006270Y003316D01*
X006270Y003315D02*
X004162Y003315D01*
X004161Y003314D02*
X006271Y003314D01*
X006272Y003313D02*
X004161Y003313D01*
X004160Y003312D02*
X006272Y003312D01*
X006273Y003311D02*
X004160Y003311D01*
X004159Y003310D02*
X006273Y003310D01*
X006274Y003309D02*
X004158Y003309D01*
X004158Y003308D02*
X006274Y003308D01*
X006275Y003307D02*
X004157Y003307D01*
X004157Y003306D02*
X006275Y003306D01*
X006276Y003305D02*
X004156Y003305D01*
X004156Y003304D02*
X006276Y003304D01*
X006277Y003303D02*
X004155Y003303D01*
X004155Y003302D02*
X006278Y003302D01*
X006278Y003301D02*
X004154Y003301D01*
X004154Y003300D02*
X006279Y003300D01*
X006279Y003299D02*
X004153Y003299D01*
X004152Y003298D02*
X006280Y003298D01*
X006280Y003297D02*
X004152Y003297D01*
X004151Y003296D02*
X006281Y003296D01*
X006281Y003295D02*
X004151Y003295D01*
X004150Y003294D02*
X006282Y003294D01*
X006282Y003293D02*
X004150Y003293D01*
X004149Y003292D02*
X006283Y003292D01*
X006284Y003291D02*
X004149Y003291D01*
X004148Y003290D02*
X006284Y003290D01*
X006285Y003289D02*
X004148Y003289D01*
X004147Y003288D02*
X006285Y003288D01*
X006286Y003287D02*
X004147Y003287D01*
X004146Y003286D02*
X006286Y003286D01*
X006287Y003285D02*
X004145Y003285D01*
X004145Y003284D02*
X006287Y003284D01*
X006288Y003283D02*
X005134Y003283D01*
X005127Y003283D02*
X004144Y003283D01*
X004144Y003282D02*
X005123Y003282D01*
X005119Y003281D02*
X004143Y003281D01*
X004143Y003280D02*
X005115Y003280D01*
X005111Y003279D02*
X004142Y003279D01*
X004142Y003278D02*
X005107Y003278D01*
X005103Y003277D02*
X004141Y003277D01*
X004141Y003276D02*
X005099Y003276D01*
X005094Y003275D02*
X004140Y003275D01*
X004139Y003274D02*
X005090Y003274D01*
X005086Y003273D02*
X004139Y003273D01*
X004138Y003272D02*
X005082Y003272D01*
X005078Y003271D02*
X004138Y003271D01*
X004137Y003270D02*
X005074Y003270D01*
X005070Y003269D02*
X004137Y003269D01*
X004136Y003268D02*
X005066Y003268D01*
X005062Y003267D02*
X004136Y003267D01*
X004135Y003266D02*
X005058Y003266D01*
X005054Y003265D02*
X004135Y003265D01*
X004134Y003264D02*
X005050Y003264D01*
X005046Y003263D02*
X004133Y003263D01*
X004133Y003262D02*
X005042Y003262D01*
X005038Y003261D02*
X004132Y003261D01*
X004132Y003260D02*
X005034Y003260D01*
X005030Y003259D02*
X004131Y003259D01*
X004131Y003258D02*
X005026Y003258D01*
X005022Y003257D02*
X004130Y003257D01*
X004130Y003256D02*
X005018Y003256D01*
X005014Y003255D02*
X004129Y003255D01*
X004129Y003254D02*
X005010Y003254D01*
X005006Y003253D02*
X004128Y003253D01*
X004127Y003252D02*
X005002Y003252D01*
X004998Y003251D02*
X004127Y003251D01*
X004126Y003250D02*
X004993Y003250D01*
X004989Y003249D02*
X004126Y003249D01*
X004125Y003248D02*
X004985Y003248D01*
X004981Y003247D02*
X004125Y003247D01*
X004124Y003246D02*
X004977Y003246D01*
X004973Y003245D02*
X004124Y003245D01*
X004123Y003244D02*
X004969Y003244D01*
X004965Y003243D02*
X004123Y003243D01*
X004122Y003242D02*
X004961Y003242D01*
X004957Y003241D02*
X004122Y003241D01*
X004121Y003240D02*
X004953Y003240D01*
X004949Y003239D02*
X004120Y003239D01*
X004120Y003238D02*
X004945Y003238D01*
X004941Y003237D02*
X004119Y003237D01*
X004119Y003236D02*
X004937Y003236D01*
X004933Y003235D02*
X004118Y003235D01*
X004118Y003234D02*
X004929Y003234D01*
X004925Y003233D02*
X004117Y003233D01*
X004117Y003232D02*
X004921Y003232D01*
X004917Y003231D02*
X004116Y003231D01*
X004116Y003230D02*
X004913Y003230D01*
X004910Y003229D02*
X004115Y003229D01*
X004114Y003228D02*
X004909Y003228D01*
X004907Y003227D02*
X004114Y003227D01*
X004113Y003226D02*
X004906Y003226D01*
X004904Y003225D02*
X004113Y003225D01*
X004112Y003224D02*
X004903Y003224D01*
X004902Y003223D02*
X004112Y003223D01*
X004111Y003222D02*
X004900Y003222D01*
X004899Y003221D02*
X004111Y003221D01*
X004110Y003220D02*
X004897Y003220D01*
X004896Y003219D02*
X004110Y003219D01*
X004109Y003218D02*
X004894Y003218D01*
X004893Y003217D02*
X004108Y003217D01*
X004108Y003216D02*
X004891Y003216D01*
X004890Y003215D02*
X004107Y003215D01*
X004107Y003214D02*
X004888Y003214D01*
X004887Y003213D02*
X004106Y003213D01*
X004106Y003212D02*
X004885Y003212D01*
X004884Y003211D02*
X004105Y003211D01*
X004105Y003210D02*
X004883Y003210D01*
X004881Y003209D02*
X004104Y003209D01*
X004104Y003208D02*
X004880Y003208D01*
X004878Y003207D02*
X004103Y003207D01*
X004102Y003206D02*
X004877Y003206D01*
X004875Y003205D02*
X004102Y003205D01*
X004101Y003204D02*
X004874Y003204D01*
X004872Y003203D02*
X004101Y003203D01*
X004100Y003202D02*
X004871Y003202D01*
X004869Y003201D02*
X004100Y003201D01*
X004099Y003200D02*
X004868Y003200D01*
X004867Y003199D02*
X004099Y003199D01*
X004098Y003198D02*
X004865Y003198D01*
X004864Y003197D02*
X004098Y003197D01*
X004097Y003196D02*
X004862Y003196D01*
X004861Y003195D02*
X004097Y003195D01*
X004096Y003194D02*
X004859Y003194D01*
X004858Y003193D02*
X004095Y003193D01*
X004095Y003192D02*
X004856Y003192D01*
X004855Y003191D02*
X004094Y003191D01*
X004094Y003190D02*
X004853Y003190D01*
X004852Y003189D02*
X004093Y003189D01*
X004093Y003188D02*
X004850Y003188D01*
X004849Y003187D02*
X004092Y003187D01*
X004092Y003186D02*
X004848Y003186D01*
X004846Y003185D02*
X004091Y003185D01*
X004091Y003184D02*
X004845Y003184D01*
X004843Y003183D02*
X004090Y003183D01*
X004089Y003182D02*
X004842Y003182D01*
X004840Y003181D02*
X004089Y003181D01*
X004088Y003180D02*
X004839Y003180D01*
X004837Y003179D02*
X004088Y003179D01*
X004087Y003178D02*
X004836Y003178D01*
X004834Y003177D02*
X004087Y003177D01*
X004086Y003176D02*
X004833Y003176D01*
X004832Y003175D02*
X004086Y003175D01*
X004085Y003174D02*
X004830Y003174D01*
X004829Y003173D02*
X004085Y003173D01*
X004084Y003172D02*
X004827Y003172D01*
X004826Y003171D02*
X004083Y003171D01*
X004083Y003170D02*
X004824Y003170D01*
X004823Y003169D02*
X004082Y003169D01*
X004082Y003168D02*
X004821Y003168D01*
X004820Y003167D02*
X004081Y003167D01*
X004081Y003166D02*
X004818Y003166D01*
X004817Y003165D02*
X004080Y003165D01*
X004080Y003164D02*
X004815Y003164D01*
X004814Y003163D02*
X004079Y003163D01*
X004079Y003162D02*
X004813Y003162D01*
X004811Y003161D02*
X004078Y003161D01*
X004077Y003160D02*
X004810Y003160D01*
X004808Y003159D02*
X004077Y003159D01*
X004076Y003158D02*
X004807Y003158D01*
X004805Y003157D02*
X004076Y003157D01*
X004075Y003156D02*
X004804Y003156D01*
X004802Y003155D02*
X004075Y003155D01*
X004074Y003154D02*
X004801Y003154D01*
X004799Y003153D02*
X004074Y003153D01*
X004073Y003152D02*
X004798Y003152D01*
X004796Y003151D02*
X004073Y003151D01*
X004072Y003150D02*
X004795Y003150D01*
X004794Y003149D02*
X004072Y003149D01*
X004071Y003148D02*
X004792Y003148D01*
X004791Y003147D02*
X004070Y003147D01*
X004070Y003146D02*
X004789Y003146D01*
X004788Y003145D02*
X004069Y003145D01*
X004069Y003144D02*
X004786Y003144D01*
X004785Y003143D02*
X004068Y003143D01*
X004068Y003142D02*
X004783Y003142D01*
X004782Y003141D02*
X004067Y003141D01*
X004067Y003140D02*
X004780Y003140D01*
X004779Y003139D02*
X004066Y003139D01*
X004066Y003138D02*
X004778Y003138D01*
X004776Y003137D02*
X004065Y003137D01*
X004064Y003136D02*
X004775Y003136D01*
X004773Y003135D02*
X004064Y003135D01*
X004063Y003134D02*
X004772Y003134D01*
X004770Y003133D02*
X004063Y003133D01*
X004062Y003132D02*
X004769Y003132D01*
X004767Y003131D02*
X004062Y003131D01*
X004061Y003130D02*
X004766Y003130D01*
X004764Y003129D02*
X004061Y003129D01*
X004060Y003128D02*
X004763Y003128D01*
X004761Y003127D02*
X004060Y003127D01*
X004059Y003126D02*
X004760Y003126D01*
X004759Y003125D02*
X004059Y003125D01*
X004058Y003124D02*
X004757Y003124D01*
X004756Y003123D02*
X004058Y003123D01*
X004058Y003122D02*
X004754Y003122D01*
X004753Y003121D02*
X004057Y003121D01*
X004057Y003120D02*
X004751Y003120D01*
X004750Y003119D02*
X004057Y003119D01*
X004057Y003118D02*
X004748Y003118D01*
X004747Y003117D02*
X004056Y003117D01*
X004056Y003116D02*
X004745Y003116D01*
X004744Y003115D02*
X004056Y003115D01*
X004055Y003114D02*
X004743Y003114D01*
X004741Y003113D02*
X004055Y003113D01*
X004055Y003112D02*
X004740Y003112D01*
X004738Y003111D02*
X004054Y003111D01*
X004054Y003110D02*
X004737Y003110D01*
X004735Y003109D02*
X004054Y003109D01*
X004053Y003108D02*
X004734Y003108D01*
X004732Y003107D02*
X004053Y003107D01*
X004053Y003106D02*
X004731Y003106D01*
X004729Y003105D02*
X004052Y003105D01*
X004052Y003104D02*
X004728Y003104D01*
X004726Y003103D02*
X004052Y003103D01*
X004051Y003102D02*
X004725Y003102D01*
X004724Y003101D02*
X004051Y003101D01*
X004051Y003100D02*
X004724Y003100D01*
X004723Y003099D02*
X004050Y003099D01*
X004050Y003098D02*
X004722Y003098D01*
X004721Y003097D02*
X004050Y003097D01*
X004049Y003096D02*
X004720Y003096D01*
X004720Y003095D02*
X004049Y003095D01*
X004049Y003094D02*
X004719Y003094D01*
X004718Y003093D02*
X004048Y003093D01*
X004048Y003092D02*
X004717Y003092D01*
X004716Y003091D02*
X004048Y003091D01*
X004047Y003090D02*
X004716Y003090D01*
X004715Y003089D02*
X004047Y003089D01*
X004047Y003088D02*
X004714Y003088D01*
X004713Y003087D02*
X004046Y003087D01*
X004046Y003086D02*
X004712Y003086D01*
X004712Y003085D02*
X004046Y003085D01*
X004045Y003084D02*
X004711Y003084D01*
X004710Y003083D02*
X004045Y003083D01*
X004045Y003082D02*
X004709Y003082D01*
X004708Y003081D02*
X004044Y003081D01*
X004044Y003080D02*
X004708Y003080D01*
X004707Y003079D02*
X004044Y003079D01*
X004043Y003078D02*
X004706Y003078D01*
X004705Y003077D02*
X004043Y003077D01*
X004043Y003076D02*
X004705Y003076D01*
X004704Y003075D02*
X004043Y003075D01*
X004042Y003074D02*
X004703Y003074D01*
X004702Y003073D02*
X004042Y003073D01*
X004042Y003072D02*
X004701Y003072D01*
X004701Y003071D02*
X004041Y003071D01*
X004041Y003070D02*
X004700Y003070D01*
X004699Y003069D02*
X004041Y003069D01*
X004040Y003068D02*
X004698Y003068D01*
X004697Y003067D02*
X004040Y003067D01*
X004040Y003066D02*
X004697Y003066D01*
X004696Y003065D02*
X004039Y003065D01*
X004039Y003064D02*
X004695Y003064D01*
X004694Y003063D02*
X004039Y003063D01*
X004038Y003062D02*
X004693Y003062D01*
X004693Y003061D02*
X004038Y003061D01*
X004038Y003060D02*
X004692Y003060D01*
X004691Y003059D02*
X004037Y003059D01*
X004037Y003058D02*
X004690Y003058D01*
X004689Y003057D02*
X004037Y003057D01*
X004036Y003056D02*
X004689Y003056D01*
X004688Y003055D02*
X004036Y003055D01*
X004036Y003054D02*
X004687Y003054D01*
X004686Y003053D02*
X004035Y003053D01*
X004035Y003052D02*
X004686Y003052D01*
X004685Y003051D02*
X004035Y003051D01*
X004034Y003050D02*
X004684Y003050D01*
X004683Y003049D02*
X004034Y003049D01*
X004034Y003048D02*
X004682Y003048D01*
X004682Y003047D02*
X004033Y003047D01*
X004033Y003046D02*
X004681Y003046D01*
X004680Y003045D02*
X004033Y003045D01*
X004032Y003044D02*
X004679Y003044D01*
X004678Y003043D02*
X004032Y003043D01*
X004032Y003042D02*
X004678Y003042D01*
X004677Y003041D02*
X004031Y003041D01*
X004031Y003040D02*
X004676Y003040D01*
X004675Y003039D02*
X004031Y003039D01*
X004030Y003038D02*
X004674Y003038D01*
X004674Y003037D02*
X004030Y003037D01*
X004030Y003036D02*
X004673Y003036D01*
X004672Y003035D02*
X004029Y003035D01*
X004029Y003034D02*
X004671Y003034D01*
X004670Y003033D02*
X004029Y003033D01*
X004029Y003032D02*
X004670Y003032D01*
X004669Y003031D02*
X004028Y003031D01*
X004028Y003030D02*
X004668Y003030D01*
X004667Y003029D02*
X004028Y003029D01*
X004027Y003028D02*
X004667Y003028D01*
X004666Y003027D02*
X004027Y003027D01*
X004027Y003026D02*
X004665Y003026D01*
X004664Y003025D02*
X004026Y003025D01*
X004026Y003024D02*
X004663Y003024D01*
X004663Y003023D02*
X004026Y003023D01*
X004025Y003022D02*
X004662Y003022D01*
X004661Y003021D02*
X004025Y003021D01*
X004025Y003020D02*
X004660Y003020D01*
X004659Y003019D02*
X004024Y003019D01*
X004024Y003018D02*
X004659Y003018D01*
X004658Y003017D02*
X004024Y003017D01*
X004023Y003016D02*
X004657Y003016D01*
X004656Y003015D02*
X004023Y003015D01*
X004023Y003014D02*
X004655Y003014D01*
X004655Y003013D02*
X004022Y003013D01*
X004022Y003012D02*
X004654Y003012D01*
X004653Y003011D02*
X004022Y003011D01*
X004021Y003010D02*
X004652Y003010D01*
X004652Y003009D02*
X004021Y003009D01*
X004021Y003008D02*
X004651Y003008D01*
X004650Y003007D02*
X004020Y003007D01*
X004020Y003006D02*
X004649Y003006D01*
X004648Y003005D02*
X004020Y003005D01*
X004019Y003004D02*
X004648Y003004D01*
X004649Y003003D02*
X004019Y003003D01*
X004019Y003002D02*
X004650Y003002D01*
X004651Y003001D02*
X004018Y003001D01*
X004018Y003000D02*
X004652Y003000D01*
X004652Y002999D02*
X004018Y002999D01*
X004017Y002998D02*
X004653Y002998D01*
X004654Y002997D02*
X004017Y002997D01*
X004017Y002996D02*
X004655Y002996D01*
X004656Y002995D02*
X004016Y002995D01*
X004016Y002994D02*
X004657Y002994D01*
X004658Y002993D02*
X004016Y002993D01*
X004015Y002992D02*
X004659Y002992D01*
X004660Y002991D02*
X004015Y002991D01*
X004015Y002990D02*
X004660Y002990D01*
X004661Y002989D02*
X004014Y002989D01*
X004014Y002988D02*
X004662Y002988D01*
X004663Y002987D02*
X004014Y002987D01*
X004014Y002986D02*
X004664Y002986D01*
X004665Y002985D02*
X004013Y002985D01*
X004013Y002984D02*
X004666Y002984D01*
X004667Y002983D02*
X004013Y002983D01*
X004012Y002982D02*
X004667Y002982D01*
X004668Y002981D02*
X004012Y002981D01*
X004012Y002980D02*
X004669Y002980D01*
X004670Y002979D02*
X004011Y002979D01*
X004011Y002978D02*
X004671Y002978D01*
X004672Y002977D02*
X004011Y002977D01*
X004010Y002976D02*
X004673Y002976D01*
X004674Y002975D02*
X004010Y002975D01*
X004010Y002974D02*
X004675Y002974D01*
X004675Y002973D02*
X004009Y002973D01*
X004009Y002972D02*
X004676Y002972D01*
X004677Y002971D02*
X004009Y002971D01*
X004008Y002970D02*
X004678Y002970D01*
X004679Y002969D02*
X004008Y002969D01*
X004008Y002968D02*
X004680Y002968D01*
X004681Y002967D02*
X004007Y002967D01*
X004007Y002966D02*
X004682Y002966D01*
X004682Y002965D02*
X004007Y002965D01*
X004006Y002964D02*
X004683Y002964D01*
X004684Y002963D02*
X004006Y002963D01*
X004006Y002962D02*
X004685Y002962D01*
X004686Y002961D02*
X004005Y002961D01*
X004005Y002960D02*
X004687Y002960D01*
X004688Y002959D02*
X004005Y002959D01*
X004004Y002958D02*
X004689Y002958D01*
X004689Y002957D02*
X004004Y002957D01*
X004004Y002956D02*
X004690Y002956D01*
X004691Y002955D02*
X004003Y002955D01*
X004003Y002954D02*
X004692Y002954D01*
X004693Y002953D02*
X004003Y002953D01*
X004002Y002952D02*
X004694Y002952D01*
X004695Y002951D02*
X004002Y002951D01*
X004002Y002950D02*
X004696Y002950D01*
X004697Y002949D02*
X004001Y002949D01*
X004001Y002948D02*
X004697Y002948D01*
X004698Y002947D02*
X004001Y002947D01*
X004000Y002946D02*
X004699Y002946D01*
X004700Y002945D02*
X004000Y002945D01*
X004000Y002944D02*
X004701Y002944D01*
X004702Y002943D02*
X004000Y002943D01*
X003999Y002942D02*
X004703Y002942D01*
X004704Y002941D02*
X003999Y002941D01*
X003999Y002940D02*
X004704Y002940D01*
X004705Y002939D02*
X003998Y002939D01*
X003998Y002938D02*
X004706Y002938D01*
X004707Y002937D02*
X003998Y002937D01*
X003997Y002936D02*
X004708Y002936D01*
X004709Y002935D02*
X003997Y002935D01*
X003997Y002934D02*
X004710Y002934D01*
X004711Y002933D02*
X003996Y002933D01*
X003996Y002932D02*
X004712Y002932D01*
X004712Y002931D02*
X003996Y002931D01*
X003995Y002930D02*
X004713Y002930D01*
X004714Y002929D02*
X003995Y002929D01*
X003995Y002928D02*
X004715Y002928D01*
X004716Y002927D02*
X003994Y002927D01*
X003994Y002926D02*
X004717Y002926D01*
X004718Y002925D02*
X003994Y002925D01*
X003993Y002924D02*
X004719Y002924D01*
X004719Y002923D02*
X003993Y002923D01*
X003993Y002922D02*
X004720Y002922D01*
X004721Y002921D02*
X003992Y002921D01*
X003992Y002920D02*
X004722Y002920D01*
X004723Y002919D02*
X003992Y002919D01*
X003991Y002918D02*
X004724Y002918D01*
X004725Y002917D02*
X003991Y002917D01*
X003991Y002916D02*
X004726Y002916D01*
X004727Y002915D02*
X003990Y002915D01*
X003990Y002914D02*
X004727Y002914D01*
X004728Y002913D02*
X003990Y002913D01*
X003990Y002912D02*
X004729Y002912D01*
X004730Y002911D02*
X003990Y002911D01*
X003990Y002910D02*
X004731Y002910D01*
X004732Y002909D02*
X003990Y002909D01*
X003990Y002908D02*
X004733Y002908D01*
X004734Y002907D02*
X003990Y002907D01*
X003990Y002906D02*
X004734Y002906D01*
X004735Y002905D02*
X003989Y002905D01*
X003989Y002904D02*
X004736Y002904D01*
X004737Y002903D02*
X003989Y002903D01*
X003989Y002902D02*
X004738Y002902D01*
X004739Y002901D02*
X003989Y002901D01*
X003989Y002900D02*
X004740Y002900D01*
X004741Y002899D02*
X003989Y002899D01*
X003989Y002898D02*
X004741Y002898D01*
X004742Y002897D02*
X003989Y002897D01*
X003989Y002896D02*
X004743Y002896D01*
X004744Y002895D02*
X003989Y002895D01*
X003988Y002894D02*
X004745Y002894D01*
X004746Y002893D02*
X003988Y002893D01*
X003988Y002892D02*
X004747Y002892D01*
X004748Y002891D02*
X003988Y002891D01*
X003988Y002890D02*
X004749Y002890D01*
X004749Y002889D02*
X003988Y002889D01*
X003988Y002888D02*
X004750Y002888D01*
X004751Y002887D02*
X003988Y002887D01*
X003988Y002886D02*
X004752Y002886D01*
X004753Y002885D02*
X003988Y002885D01*
X003987Y002884D02*
X004754Y002884D01*
X004755Y002883D02*
X003987Y002883D01*
X003987Y002882D02*
X004756Y002882D01*
X004756Y002881D02*
X003987Y002881D01*
X003987Y002880D02*
X004757Y002880D01*
X004758Y002879D02*
X003987Y002879D01*
X003987Y002878D02*
X004759Y002878D01*
X004760Y002877D02*
X003987Y002877D01*
X003987Y002876D02*
X004761Y002876D01*
X004762Y002875D02*
X003987Y002875D01*
X003986Y002874D02*
X004763Y002874D01*
X004764Y002873D02*
X003986Y002873D01*
X003986Y002872D02*
X004764Y002872D01*
X004765Y002871D02*
X003986Y002871D01*
X003986Y002870D02*
X004766Y002870D01*
X004767Y002869D02*
X003986Y002869D01*
X003986Y002868D02*
X004768Y002868D01*
X004769Y002867D02*
X003986Y002867D01*
X003986Y002866D02*
X004770Y002866D01*
X004771Y002865D02*
X003986Y002865D01*
X003986Y002864D02*
X004771Y002864D01*
X004772Y002863D02*
X003985Y002863D01*
X003985Y002862D02*
X004773Y002862D01*
X004774Y002861D02*
X003985Y002861D01*
X003985Y002860D02*
X004775Y002860D01*
X004776Y002859D02*
X003985Y002859D01*
X003985Y002858D02*
X004777Y002858D01*
X004778Y002857D02*
X003985Y002857D01*
X003985Y002856D02*
X004779Y002856D01*
X004779Y002855D02*
X003985Y002855D01*
X003985Y002854D02*
X004780Y002854D01*
X004781Y002853D02*
X003984Y002853D01*
X003984Y002852D02*
X004782Y002852D01*
X004783Y002851D02*
X003984Y002851D01*
X003984Y002850D02*
X004784Y002850D01*
X004785Y002849D02*
X003984Y002849D01*
X003984Y002848D02*
X004786Y002848D01*
X004786Y002847D02*
X003984Y002847D01*
X003984Y002846D02*
X004787Y002846D01*
X004788Y002845D02*
X003984Y002845D01*
X003984Y002844D02*
X004789Y002844D01*
X004790Y002843D02*
X003984Y002843D01*
X003983Y002842D02*
X004791Y002842D01*
X004792Y002841D02*
X003983Y002841D01*
X003983Y002840D02*
X004793Y002840D01*
X004793Y002839D02*
X003983Y002839D01*
X003983Y002838D02*
X004794Y002838D01*
X004795Y002837D02*
X003983Y002837D01*
X003983Y002836D02*
X004796Y002836D01*
X004797Y002835D02*
X003983Y002835D01*
X003983Y002834D02*
X004798Y002834D01*
X004799Y002833D02*
X003983Y002833D01*
X003982Y002832D02*
X004800Y002832D01*
X004801Y002831D02*
X003982Y002831D01*
X003982Y002830D02*
X004801Y002830D01*
X004802Y002829D02*
X003982Y002829D01*
X003982Y002828D02*
X004803Y002828D01*
X004804Y002827D02*
X003982Y002827D01*
X003982Y002826D02*
X004805Y002826D01*
X004806Y002825D02*
X003982Y002825D01*
X003982Y002824D02*
X004807Y002824D01*
X004808Y002823D02*
X003982Y002823D01*
X003981Y002822D02*
X004809Y002822D01*
X004810Y002821D02*
X003981Y002821D01*
X003981Y002820D02*
X004810Y002820D01*
X004811Y002819D02*
X003981Y002819D01*
X003981Y002818D02*
X004812Y002818D01*
X004813Y002817D02*
X003981Y002817D01*
X003981Y002816D02*
X004814Y002816D01*
X004815Y002815D02*
X003981Y002815D01*
X003981Y002814D02*
X004816Y002814D01*
X004817Y002813D02*
X003981Y002813D01*
X003981Y002812D02*
X004818Y002812D01*
X004819Y002811D02*
X003980Y002811D01*
X003980Y002810D02*
X004820Y002810D01*
X004821Y002809D02*
X003980Y002809D01*
X003980Y002808D02*
X004822Y002808D01*
X004822Y002807D02*
X003980Y002807D01*
X003980Y002806D02*
X004823Y002806D01*
X004824Y002805D02*
X003980Y002805D01*
X003980Y002804D02*
X004825Y002804D01*
X004826Y002803D02*
X003980Y002803D01*
X003980Y002802D02*
X004827Y002802D01*
X004828Y002801D02*
X003979Y002801D01*
X003979Y002800D02*
X004829Y002800D01*
X004830Y002799D02*
X003979Y002799D01*
X003979Y002798D02*
X004831Y002798D01*
X004832Y002797D02*
X003979Y002797D01*
X003979Y002796D02*
X004833Y002796D01*
X004834Y002795D02*
X003979Y002795D01*
X003979Y002794D02*
X004835Y002794D01*
X004835Y002793D02*
X003979Y002793D01*
X003979Y002792D02*
X004836Y002792D01*
X004837Y002791D02*
X003978Y002791D01*
X003978Y002790D02*
X004838Y002790D01*
X004839Y002789D02*
X003978Y002789D01*
X003978Y002788D02*
X004840Y002788D01*
X004841Y002787D02*
X003978Y002787D01*
X003978Y002786D02*
X004842Y002786D01*
X004843Y002785D02*
X003978Y002785D01*
X003978Y002784D02*
X004844Y002784D01*
X004845Y002783D02*
X003978Y002783D01*
X003978Y002782D02*
X004846Y002782D01*
X004847Y002781D02*
X003978Y002781D01*
X003977Y002780D02*
X004847Y002780D01*
X004848Y002779D02*
X003977Y002779D01*
X003977Y002778D02*
X004849Y002778D01*
X004850Y002777D02*
X003977Y002777D01*
X003977Y002776D02*
X004851Y002776D01*
X004852Y002775D02*
X003977Y002775D01*
X003977Y002774D02*
X004853Y002774D01*
X004854Y002773D02*
X003977Y002773D01*
X003977Y002772D02*
X004855Y002772D01*
X004856Y002771D02*
X003977Y002771D01*
X003976Y002770D02*
X004857Y002770D01*
X004858Y002769D02*
X003976Y002769D01*
X003976Y002768D02*
X004859Y002768D01*
X004859Y002767D02*
X003976Y002767D01*
X003976Y002766D02*
X004860Y002766D01*
X004861Y002765D02*
X003976Y002765D01*
X003976Y002764D02*
X004862Y002764D01*
X004863Y002763D02*
X003976Y002763D01*
X003976Y002762D02*
X004864Y002762D01*
X004865Y002761D02*
X003976Y002761D01*
X003975Y002760D02*
X004866Y002760D01*
X004867Y002759D02*
X003975Y002759D01*
X003975Y002758D02*
X004868Y002758D01*
X004869Y002757D02*
X003975Y002757D01*
X003975Y002756D02*
X004870Y002756D01*
X004871Y002755D02*
X003975Y002755D01*
X003975Y002754D02*
X004872Y002754D01*
X004872Y002753D02*
X003975Y002753D01*
X003975Y002752D02*
X004873Y002752D01*
X004874Y002751D02*
X003975Y002751D01*
X003975Y002750D02*
X004875Y002750D01*
X004876Y002749D02*
X003974Y002749D01*
X003974Y002748D02*
X004877Y002748D01*
X004878Y002747D02*
X003974Y002747D01*
X003974Y002746D02*
X004879Y002746D01*
X004880Y002745D02*
X003974Y002745D01*
X003974Y002744D02*
X004881Y002744D01*
X004882Y002743D02*
X003974Y002743D01*
X003974Y002742D02*
X004883Y002742D01*
X004884Y002741D02*
X003974Y002741D01*
X003974Y002740D02*
X004884Y002740D01*
X004885Y002739D02*
X003973Y002739D01*
X003973Y002738D02*
X004886Y002738D01*
X004887Y002737D02*
X003973Y002737D01*
X003973Y002736D02*
X004888Y002736D01*
X004889Y002735D02*
X003973Y002735D01*
X003973Y002734D02*
X004890Y002734D01*
X004891Y002733D02*
X003973Y002733D01*
X003973Y002732D02*
X004892Y002732D01*
X004893Y002731D02*
X003973Y002731D01*
X003973Y002730D02*
X004894Y002730D01*
X004895Y002729D02*
X003972Y002729D01*
X003972Y002728D02*
X004896Y002728D01*
X004897Y002727D02*
X003972Y002727D01*
X003972Y002726D02*
X004897Y002726D01*
X004898Y002725D02*
X003972Y002725D01*
X003972Y002724D02*
X004899Y002724D01*
X004900Y002723D02*
X003972Y002723D01*
X003972Y002722D02*
X004901Y002722D01*
X004902Y002721D02*
X003972Y002721D01*
X003972Y002720D02*
X004903Y002720D01*
X004904Y002719D02*
X003972Y002719D01*
X003971Y002718D02*
X004905Y002718D01*
X004906Y002717D02*
X003971Y002717D01*
X003971Y002716D02*
X004907Y002716D01*
X004908Y002715D02*
X003971Y002715D01*
X003971Y002714D02*
X004909Y002714D01*
X004909Y002713D02*
X003971Y002713D01*
X003971Y002712D02*
X004910Y002712D01*
X004911Y002711D02*
X003971Y002711D01*
X003971Y002710D02*
X004912Y002710D01*
X004913Y002709D02*
X003971Y002709D01*
X003970Y002708D02*
X004914Y002708D01*
X004915Y002707D02*
X003970Y002707D01*
X003970Y002706D02*
X004916Y002706D01*
X004917Y002705D02*
X003970Y002705D01*
X003970Y002704D02*
X004918Y002704D01*
X004919Y002703D02*
X003970Y002703D01*
X003970Y002702D02*
X004920Y002702D01*
X004921Y002701D02*
X003970Y002701D01*
X003970Y002700D02*
X004921Y002700D01*
X004922Y002699D02*
X003970Y002699D01*
X003969Y002698D02*
X004923Y002698D01*
X004924Y002697D02*
X003969Y002697D01*
X003969Y002696D02*
X004925Y002696D01*
X004926Y002695D02*
X003969Y002695D01*
X003970Y002694D02*
X004927Y002694D01*
X004928Y002693D02*
X003970Y002693D01*
X003970Y002692D02*
X004929Y002692D01*
X004930Y002691D02*
X003970Y002691D01*
X003970Y002690D02*
X004931Y002690D01*
X004932Y002689D02*
X003970Y002689D01*
X003970Y002688D02*
X004933Y002688D01*
X004934Y002687D02*
X003970Y002687D01*
X003970Y002686D02*
X004934Y002686D01*
X004935Y002685D02*
X003970Y002685D01*
X003970Y002684D02*
X004936Y002684D01*
X004937Y002683D02*
X003970Y002683D01*
X003970Y002682D02*
X004938Y002682D01*
X004939Y002681D02*
X003970Y002681D01*
X003970Y002680D02*
X004940Y002680D01*
X004941Y002679D02*
X003970Y002679D01*
X003970Y002678D02*
X004942Y002678D01*
X004943Y002677D02*
X003970Y002677D01*
X003970Y002676D02*
X004944Y002676D01*
X004945Y002675D02*
X003970Y002675D01*
X003971Y002674D02*
X004946Y002674D01*
X004946Y002673D02*
X003971Y002673D01*
X003971Y002672D02*
X004947Y002672D01*
X004948Y002671D02*
X003971Y002671D01*
X003971Y002670D02*
X004949Y002670D01*
X004950Y002669D02*
X003971Y002669D01*
X003971Y002668D02*
X004951Y002668D01*
X004952Y002667D02*
X003971Y002667D01*
X003971Y002666D02*
X004953Y002666D01*
X004954Y002665D02*
X003971Y002665D01*
X003971Y002664D02*
X004955Y002664D01*
X004956Y002663D02*
X003971Y002663D01*
X003971Y002662D02*
X004957Y002662D01*
X004958Y002661D02*
X003971Y002661D01*
X003971Y002660D02*
X004959Y002660D01*
X004959Y002659D02*
X003971Y002659D01*
X003971Y002658D02*
X004960Y002658D01*
X004961Y002657D02*
X003971Y002657D01*
X003971Y002656D02*
X004962Y002656D01*
X004962Y002655D02*
X003971Y002655D01*
X003971Y002654D02*
X004962Y002654D01*
X004961Y002653D02*
X003972Y002653D01*
X003972Y002652D02*
X004960Y002652D01*
X004959Y002651D02*
X003972Y002651D01*
X003972Y002650D02*
X004958Y002650D01*
X004957Y002649D02*
X003972Y002649D01*
X003972Y002648D02*
X004956Y002648D01*
X004955Y002647D02*
X003972Y002647D01*
X003972Y002646D02*
X004954Y002646D01*
X004953Y002645D02*
X003972Y002645D01*
X003972Y002644D02*
X004952Y002644D01*
X004951Y002643D02*
X003972Y002643D01*
X003972Y002642D02*
X004950Y002642D01*
X004949Y002641D02*
X003972Y002641D01*
X003972Y002640D02*
X004949Y002640D01*
X004948Y002639D02*
X003972Y002639D01*
X003972Y002638D02*
X004947Y002638D01*
X004946Y002637D02*
X003972Y002637D01*
X003972Y002636D02*
X004945Y002636D01*
X004944Y002635D02*
X003972Y002635D01*
X003972Y002634D02*
X004943Y002634D01*
X004942Y002633D02*
X003972Y002633D01*
X003973Y002632D02*
X004941Y002632D01*
X004940Y002631D02*
X003973Y002631D01*
X003973Y002630D02*
X004939Y002630D01*
X004938Y002629D02*
X003973Y002629D01*
X003973Y002628D02*
X004937Y002628D01*
X004936Y002627D02*
X003973Y002627D01*
X003973Y002626D02*
X004935Y002626D01*
X004934Y002625D02*
X003973Y002625D01*
X003973Y002624D02*
X004934Y002624D01*
X004933Y002623D02*
X003973Y002623D01*
X003973Y002622D02*
X004932Y002622D01*
X004931Y002621D02*
X003973Y002621D01*
X003973Y002620D02*
X004930Y002620D01*
X004929Y002619D02*
X003973Y002619D01*
X003973Y002618D02*
X004928Y002618D01*
X004927Y002617D02*
X003973Y002617D01*
X003973Y002616D02*
X004926Y002616D01*
X004925Y002615D02*
X003973Y002615D01*
X003973Y002614D02*
X004924Y002614D01*
X004923Y002613D02*
X003973Y002613D01*
X003974Y002612D02*
X004922Y002612D01*
X004921Y002611D02*
X003974Y002611D01*
X003974Y002610D02*
X004920Y002610D01*
X004919Y002609D02*
X003974Y002609D01*
X003974Y002608D02*
X004919Y002608D01*
X004918Y002608D02*
X003974Y002608D01*
X003974Y002607D02*
X004917Y002607D01*
X004916Y002606D02*
X003974Y002606D01*
X003974Y002605D02*
X004915Y002605D01*
X004914Y002604D02*
X003974Y002604D01*
X003974Y002603D02*
X004913Y002603D01*
X004912Y002602D02*
X003974Y002602D01*
X003974Y002601D02*
X004911Y002601D01*
X004910Y002600D02*
X003974Y002600D01*
X003974Y002599D02*
X004909Y002599D01*
X004908Y002598D02*
X003974Y002598D01*
X003974Y002597D02*
X004907Y002597D01*
X004906Y002596D02*
X003974Y002596D01*
X003974Y002595D02*
X004905Y002595D01*
X004905Y002594D02*
X003974Y002594D01*
X003974Y002593D02*
X004904Y002593D01*
X004903Y002592D02*
X003974Y002592D01*
X003975Y002591D02*
X004902Y002591D01*
X004901Y002590D02*
X003975Y002590D01*
X003975Y002589D02*
X004900Y002589D01*
X004899Y002588D02*
X003975Y002588D01*
X003975Y002587D02*
X004898Y002587D01*
X004897Y002586D02*
X003975Y002586D01*
X003975Y002585D02*
X004896Y002585D01*
X004895Y002584D02*
X003975Y002584D01*
X003975Y002583D02*
X004894Y002583D01*
X004893Y002582D02*
X003975Y002582D01*
X003975Y002581D02*
X004892Y002581D01*
X004891Y002580D02*
X003975Y002580D01*
X003975Y002579D02*
X004890Y002579D01*
X004890Y002578D02*
X003975Y002578D01*
X003975Y002577D02*
X004889Y002577D01*
X004888Y002576D02*
X003975Y002576D01*
X003975Y002575D02*
X004887Y002575D01*
X004886Y002574D02*
X003975Y002574D01*
X003975Y002573D02*
X004885Y002573D01*
X004884Y002572D02*
X003975Y002572D01*
X003975Y002571D02*
X004883Y002571D01*
X004882Y002570D02*
X003975Y002570D01*
X003976Y002569D02*
X004881Y002569D01*
X004880Y002568D02*
X003976Y002568D01*
X003976Y002567D02*
X004879Y002567D01*
X004878Y002566D02*
X003976Y002566D01*
X003976Y002565D02*
X004877Y002565D01*
X004876Y002564D02*
X003976Y002564D01*
X003976Y002563D02*
X004875Y002563D01*
X004875Y002562D02*
X003976Y002562D01*
X003976Y002561D02*
X004874Y002561D01*
X004873Y002560D02*
X003976Y002560D01*
X003976Y002559D02*
X004872Y002559D01*
X004871Y002558D02*
X003976Y002558D01*
X003976Y002557D02*
X004870Y002557D01*
X004869Y002556D02*
X003976Y002556D01*
X003976Y002555D02*
X004868Y002555D01*
X004867Y002554D02*
X003976Y002554D01*
X003976Y002553D02*
X004866Y002553D01*
X004865Y002552D02*
X003976Y002552D01*
X003976Y002551D02*
X004864Y002551D01*
X004863Y002550D02*
X003976Y002550D01*
X003976Y002549D02*
X004862Y002549D01*
X004861Y002548D02*
X003976Y002548D01*
X003977Y002547D02*
X004861Y002547D01*
X004860Y002546D02*
X003977Y002546D01*
X003977Y002545D02*
X004859Y002545D01*
X004858Y002544D02*
X003977Y002544D01*
X003977Y002543D02*
X004857Y002543D01*
X004856Y002542D02*
X003977Y002542D01*
X003977Y002541D02*
X004855Y002541D01*
X004854Y002540D02*
X003977Y002540D01*
X003977Y002539D02*
X004853Y002539D01*
X004852Y002538D02*
X003977Y002538D01*
X003977Y002537D02*
X004851Y002537D01*
X004850Y002536D02*
X003977Y002536D01*
X003977Y002535D02*
X004849Y002535D01*
X004848Y002534D02*
X003977Y002534D01*
X003977Y002533D02*
X004847Y002533D01*
X004846Y002532D02*
X003977Y002532D01*
X003977Y002531D02*
X004846Y002531D01*
X004845Y002530D02*
X003977Y002530D01*
X003977Y002529D02*
X004844Y002529D01*
X004843Y002528D02*
X003977Y002528D01*
X003977Y002527D02*
X004842Y002527D01*
X004841Y002526D02*
X003977Y002526D01*
X003978Y002525D02*
X004840Y002525D01*
X004839Y002524D02*
X003978Y002524D01*
X003978Y002523D02*
X004838Y002523D01*
X004837Y002522D02*
X003978Y002522D01*
X003978Y002521D02*
X004836Y002521D01*
X004835Y002520D02*
X003978Y002520D01*
X003978Y002519D02*
X004834Y002519D01*
X004833Y002518D02*
X003978Y002518D01*
X003978Y002517D02*
X004832Y002517D01*
X004832Y002516D02*
X003978Y002516D01*
X003978Y002515D02*
X004831Y002515D01*
X004830Y002514D02*
X003978Y002514D01*
X003978Y002513D02*
X004829Y002513D01*
X004828Y002512D02*
X003978Y002512D01*
X003978Y002511D02*
X004827Y002511D01*
X004826Y002510D02*
X003978Y002510D01*
X003978Y002509D02*
X004825Y002509D01*
X004824Y002508D02*
X003978Y002508D01*
X003978Y002507D02*
X004823Y002507D01*
X004822Y002506D02*
X003978Y002506D01*
X003978Y002505D02*
X004821Y002505D01*
X004820Y002504D02*
X003978Y002504D01*
X003979Y002503D02*
X004819Y002503D01*
X004818Y002502D02*
X003979Y002502D01*
X003979Y002501D02*
X004817Y002501D01*
X004817Y002500D02*
X003979Y002500D01*
X003979Y002499D02*
X004816Y002499D01*
X004815Y002498D02*
X003979Y002498D01*
X003979Y002497D02*
X004814Y002497D01*
X004813Y002496D02*
X003979Y002496D01*
X003979Y002495D02*
X004812Y002495D01*
X004811Y002494D02*
X003979Y002494D01*
X003979Y002493D02*
X004810Y002493D01*
X004809Y002492D02*
X003979Y002492D01*
X003979Y002491D02*
X004808Y002491D01*
X004807Y002490D02*
X003979Y002490D01*
X003979Y002489D02*
X004807Y002489D01*
X004806Y002488D02*
X003979Y002488D01*
X003979Y002487D02*
X004805Y002487D01*
X004804Y002486D02*
X003979Y002486D01*
X003979Y002485D02*
X004803Y002485D01*
X004802Y002484D02*
X003979Y002484D01*
X003979Y002483D02*
X004801Y002483D01*
X004800Y002482D02*
X003979Y002482D01*
X003979Y002481D02*
X004799Y002481D01*
X004798Y002480D02*
X003980Y002480D01*
X003980Y002479D02*
X004798Y002479D01*
X004797Y002478D02*
X003980Y002478D01*
X003980Y002477D02*
X004796Y002477D01*
X004795Y002476D02*
X003980Y002476D01*
X003980Y002475D02*
X004794Y002475D01*
X004793Y002474D02*
X003981Y002474D01*
X003981Y002473D02*
X004792Y002473D01*
X004791Y002472D02*
X003981Y002472D01*
X003981Y002471D02*
X004790Y002471D01*
X004789Y002470D02*
X003981Y002470D01*
X003981Y002469D02*
X004789Y002469D01*
X004788Y002468D02*
X003982Y002468D01*
X003982Y002467D02*
X004787Y002467D01*
X004786Y002466D02*
X003982Y002466D01*
X003982Y002465D02*
X004785Y002465D01*
X004784Y002464D02*
X003982Y002464D01*
X003983Y002463D02*
X004783Y002463D01*
X004782Y002462D02*
X003983Y002462D01*
X003983Y002461D02*
X004781Y002461D01*
X004781Y002460D02*
X003983Y002460D01*
X003983Y002459D02*
X004780Y002459D01*
X004779Y002458D02*
X003984Y002458D01*
X003984Y002457D02*
X004778Y002457D01*
X004777Y002456D02*
X003984Y002456D01*
X003984Y002455D02*
X004776Y002455D01*
X004775Y002454D02*
X003984Y002454D01*
X003984Y002453D02*
X004774Y002453D01*
X004773Y002452D02*
X003985Y002452D01*
X003985Y002451D02*
X004772Y002451D01*
X004772Y002450D02*
X003985Y002450D01*
X003985Y002449D02*
X004771Y002449D01*
X004770Y002448D02*
X003985Y002448D01*
X003986Y002447D02*
X004769Y002447D01*
X004768Y002446D02*
X003986Y002446D01*
X003986Y002445D02*
X004767Y002445D01*
X004766Y002444D02*
X003986Y002444D01*
X003986Y002443D02*
X004765Y002443D01*
X004764Y002442D02*
X003987Y002442D01*
X003987Y002441D02*
X004763Y002441D01*
X004763Y002440D02*
X003987Y002440D01*
X003987Y002439D02*
X004762Y002439D01*
X004761Y002438D02*
X003987Y002438D01*
X003987Y002437D02*
X004760Y002437D01*
X004759Y002436D02*
X003988Y002436D01*
X003988Y002435D02*
X004758Y002435D01*
X004757Y002434D02*
X003988Y002434D01*
X003988Y002433D02*
X004756Y002433D01*
X004755Y002432D02*
X003988Y002432D01*
X003989Y002431D02*
X004754Y002431D01*
X004754Y002430D02*
X003989Y002430D01*
X003989Y002429D02*
X004753Y002429D01*
X004752Y002428D02*
X003989Y002428D01*
X003989Y002427D02*
X004751Y002427D01*
X004750Y002426D02*
X003990Y002426D01*
X003990Y002425D02*
X004749Y002425D01*
X004748Y002424D02*
X003990Y002424D01*
X003990Y002423D02*
X004747Y002423D01*
X004746Y002422D02*
X003990Y002422D01*
X003991Y002421D02*
X004745Y002421D01*
X004745Y002420D02*
X003991Y002420D01*
X003991Y002419D02*
X004744Y002419D01*
X004743Y002418D02*
X003991Y002418D01*
X003991Y002417D02*
X004742Y002417D01*
X004741Y002416D02*
X003991Y002416D01*
X003992Y002415D02*
X004740Y002415D01*
X004739Y002414D02*
X003992Y002414D01*
X003992Y002413D02*
X004738Y002413D01*
X004737Y002412D02*
X003992Y002412D01*
X003992Y002411D02*
X004736Y002411D01*
X004736Y002410D02*
X003993Y002410D01*
X003993Y002409D02*
X004735Y002409D01*
X004734Y002408D02*
X003993Y002408D01*
X003993Y002407D02*
X004733Y002407D01*
X004732Y002406D02*
X003993Y002406D01*
X003994Y002405D02*
X004731Y002405D01*
X004730Y002404D02*
X003994Y002404D01*
X003994Y002403D02*
X004729Y002403D01*
X004728Y002402D02*
X003994Y002402D01*
X003994Y002401D02*
X004728Y002401D01*
X004727Y002400D02*
X003994Y002400D01*
X003995Y002399D02*
X004726Y002399D01*
X004725Y002398D02*
X003995Y002398D01*
X003995Y002397D02*
X004724Y002397D01*
X004723Y002396D02*
X003995Y002396D01*
X003995Y002395D02*
X004722Y002395D01*
X004721Y002394D02*
X003996Y002394D01*
X003996Y002393D02*
X004720Y002393D01*
X004719Y002392D02*
X003996Y002392D01*
X003996Y002391D02*
X004719Y002391D01*
X004718Y002390D02*
X003996Y002390D01*
X003997Y002389D02*
X004717Y002389D01*
X004716Y002388D02*
X003997Y002388D01*
X003997Y002387D02*
X004715Y002387D01*
X004714Y002386D02*
X003997Y002386D01*
X003997Y002385D02*
X004713Y002385D01*
X004712Y002384D02*
X003997Y002384D01*
X003998Y002383D02*
X004711Y002383D01*
X004710Y002382D02*
X003998Y002382D01*
X003998Y002381D02*
X004710Y002381D01*
X004709Y002380D02*
X003998Y002380D01*
X003998Y002379D02*
X004708Y002379D01*
X004707Y002378D02*
X003999Y002378D01*
X003999Y002377D02*
X004706Y002377D01*
X004705Y002376D02*
X003999Y002376D01*
X003999Y002375D02*
X004704Y002375D01*
X004703Y002374D02*
X003999Y002374D01*
X004000Y002373D02*
X004702Y002373D01*
X004701Y002372D02*
X004000Y002372D01*
X004000Y002371D02*
X004701Y002371D01*
X004700Y002370D02*
X004000Y002370D01*
X004000Y002369D02*
X004699Y002369D01*
X004698Y002368D02*
X004001Y002368D01*
X004001Y002367D02*
X004697Y002367D01*
X004696Y002366D02*
X004001Y002366D01*
X004001Y002365D02*
X004695Y002365D01*
X004694Y002364D02*
X004001Y002364D01*
X004001Y002363D02*
X004693Y002363D01*
X004692Y002362D02*
X004002Y002362D01*
X004002Y002361D02*
X004692Y002361D01*
X004691Y002360D02*
X004002Y002360D01*
X004002Y002359D02*
X004690Y002359D01*
X004689Y002358D02*
X004002Y002358D01*
X004003Y002357D02*
X004689Y002357D01*
X004689Y002356D02*
X004003Y002356D01*
X004003Y002355D02*
X004689Y002355D01*
X004690Y002354D02*
X004003Y002354D01*
X004003Y002353D02*
X004690Y002353D01*
X004690Y002352D02*
X004004Y002352D01*
X004004Y002351D02*
X004691Y002351D01*
X004691Y002350D02*
X004004Y002350D01*
X004004Y002349D02*
X004691Y002349D01*
X004691Y002348D02*
X004004Y002348D01*
X004004Y002347D02*
X004692Y002347D01*
X004692Y002346D02*
X004005Y002346D01*
X004005Y002345D02*
X004692Y002345D01*
X004693Y002344D02*
X004005Y002344D01*
X004005Y002343D02*
X004693Y002343D01*
X004693Y002342D02*
X004005Y002342D01*
X004006Y002341D02*
X004693Y002341D01*
X004694Y002340D02*
X004006Y002340D01*
X004006Y002339D02*
X004694Y002339D01*
X004694Y002338D02*
X004006Y002338D01*
X004006Y002337D02*
X004695Y002337D01*
X004695Y002336D02*
X004007Y002336D01*
X004007Y002335D02*
X004695Y002335D01*
X004695Y002334D02*
X004007Y002334D01*
X004007Y002333D02*
X004696Y002333D01*
X004696Y002332D02*
X004007Y002332D01*
X004007Y002331D02*
X004696Y002331D01*
X004697Y002330D02*
X004008Y002330D01*
X004008Y002329D02*
X004697Y002329D01*
X004697Y002328D02*
X004008Y002328D01*
X004008Y002327D02*
X004697Y002327D01*
X004698Y002326D02*
X004008Y002326D01*
X004009Y002325D02*
X004698Y002325D01*
X004698Y002324D02*
X004009Y002324D01*
X004009Y002323D02*
X004699Y002323D01*
X004699Y002322D02*
X004009Y002322D01*
X004009Y002321D02*
X004699Y002321D01*
X004699Y002320D02*
X004010Y002320D01*
X004010Y002319D02*
X004700Y002319D01*
X004700Y002318D02*
X004010Y002318D01*
X004010Y002317D02*
X004700Y002317D01*
X004701Y002316D02*
X004010Y002316D01*
X004011Y002315D02*
X004701Y002315D01*
X004701Y002314D02*
X004011Y002314D01*
X004011Y002313D02*
X004701Y002313D01*
X004702Y002312D02*
X004011Y002312D01*
X004011Y002311D02*
X004702Y002311D01*
X004702Y002310D02*
X004011Y002310D01*
X004012Y002309D02*
X004703Y002309D01*
X004703Y002308D02*
X004012Y002308D01*
X004012Y002307D02*
X004703Y002307D01*
X004703Y002306D02*
X004012Y002306D01*
X004012Y002305D02*
X004704Y002305D01*
X004704Y002304D02*
X004013Y002304D01*
X004013Y002303D02*
X004704Y002303D01*
X004705Y002302D02*
X004013Y002302D01*
X004013Y002301D02*
X004705Y002301D01*
X004705Y002300D02*
X004013Y002300D01*
X004014Y002299D02*
X004705Y002299D01*
X004706Y002298D02*
X004014Y002298D01*
X004014Y002297D02*
X004706Y002297D01*
X004706Y002296D02*
X004014Y002296D01*
X004014Y002295D02*
X004707Y002295D01*
X004707Y002294D02*
X004014Y002294D01*
X004015Y002293D02*
X004707Y002293D01*
X004707Y002292D02*
X004015Y002292D01*
X004015Y002291D02*
X004708Y002291D01*
X004708Y002290D02*
X004015Y002290D01*
X004015Y002289D02*
X004708Y002289D01*
X004709Y002288D02*
X004016Y002288D01*
X004016Y002287D02*
X004709Y002287D01*
X004709Y002286D02*
X004016Y002286D01*
X004016Y002285D02*
X004709Y002285D01*
X004710Y002284D02*
X004016Y002284D01*
X004017Y002283D02*
X004710Y002283D01*
X004710Y002282D02*
X004017Y002282D01*
X004017Y002281D02*
X004711Y002281D01*
X004711Y002280D02*
X004017Y002280D01*
X004017Y002279D02*
X004711Y002279D01*
X004712Y002278D02*
X004017Y002278D01*
X004018Y002277D02*
X004712Y002277D01*
X004712Y002276D02*
X004018Y002276D01*
X004018Y002275D02*
X004712Y002275D01*
X004713Y002274D02*
X004018Y002274D01*
X004018Y002273D02*
X004713Y002273D01*
X004713Y002272D02*
X004019Y002272D01*
X004019Y002271D02*
X004714Y002271D01*
X004714Y002270D02*
X004019Y002270D01*
X004019Y002269D02*
X004714Y002269D01*
X004714Y002268D02*
X004019Y002268D01*
X004020Y002267D02*
X004715Y002267D01*
X004715Y002266D02*
X004020Y002266D01*
X004020Y002265D02*
X004715Y002265D01*
X004716Y002264D02*
X004020Y002264D01*
X004020Y002263D02*
X004716Y002263D01*
X004716Y002262D02*
X004021Y002262D01*
X004021Y002261D02*
X004716Y002261D01*
X004717Y002260D02*
X004022Y002260D01*
X004022Y002259D02*
X004717Y002259D01*
X004717Y002258D02*
X004022Y002258D01*
X004023Y002257D02*
X004718Y002257D01*
X004718Y002256D02*
X004023Y002256D01*
X004024Y002255D02*
X004718Y002255D01*
X004718Y002254D02*
X004024Y002254D01*
X004025Y002253D02*
X004719Y002253D01*
X004719Y002252D02*
X004025Y002252D01*
X004025Y002251D02*
X004719Y002251D01*
X004720Y002250D02*
X004026Y002250D01*
X004026Y002249D02*
X004720Y002249D01*
X004720Y002248D02*
X004027Y002248D01*
X004027Y002247D02*
X004720Y002247D01*
X004721Y002246D02*
X004027Y002246D01*
X004028Y002245D02*
X004721Y002245D01*
X004721Y002244D02*
X004028Y002244D01*
X004029Y002243D02*
X004722Y002243D01*
X004722Y002242D02*
X004029Y002242D01*
X004029Y002241D02*
X004722Y002241D01*
X004722Y002240D02*
X004030Y002240D01*
X004030Y002239D02*
X004723Y002239D01*
X004723Y002238D02*
X004031Y002238D01*
X004031Y002237D02*
X004723Y002237D01*
X004724Y002236D02*
X004031Y002236D01*
X004032Y002235D02*
X004724Y002235D01*
X004724Y002234D02*
X004032Y002234D01*
X004033Y002233D02*
X004724Y002233D01*
X004725Y002232D02*
X004033Y002232D01*
X004033Y002231D02*
X004725Y002231D01*
X004725Y002230D02*
X004034Y002230D01*
X004034Y002229D02*
X004726Y002229D01*
X004726Y002228D02*
X004035Y002228D01*
X004035Y002227D02*
X004726Y002227D01*
X004726Y002226D02*
X004035Y002226D01*
X004036Y002225D02*
X004727Y002225D01*
X004727Y002224D02*
X004036Y002224D01*
X004037Y002223D02*
X004727Y002223D01*
X004728Y002222D02*
X004037Y002222D01*
X004037Y002221D02*
X004728Y002221D01*
X004728Y002220D02*
X004038Y002220D01*
X004038Y002219D02*
X004728Y002219D01*
X004729Y002218D02*
X004039Y002218D01*
X004039Y002217D02*
X004729Y002217D01*
X004729Y002216D02*
X004039Y002216D01*
X004040Y002215D02*
X004730Y002215D01*
X004730Y002214D02*
X004040Y002214D01*
X004041Y002213D02*
X004730Y002213D01*
X004730Y002212D02*
X004041Y002212D01*
X004041Y002211D02*
X004731Y002211D01*
X004731Y002210D02*
X004042Y002210D01*
X004042Y002209D02*
X004731Y002209D01*
X004732Y002208D02*
X004043Y002208D01*
X004043Y002207D02*
X004732Y002207D01*
X004732Y002206D02*
X004043Y002206D01*
X004044Y002205D02*
X004732Y002205D01*
X004733Y002204D02*
X004044Y002204D01*
X004045Y002203D02*
X004733Y002203D01*
X004733Y002202D02*
X004045Y002202D01*
X004045Y002201D02*
X004734Y002201D01*
X004734Y002200D02*
X004046Y002200D01*
X004046Y002199D02*
X004734Y002199D01*
X004735Y002198D02*
X004047Y002198D01*
X004047Y002197D02*
X004735Y002197D01*
X004736Y002196D02*
X004047Y002196D01*
X004048Y002195D02*
X004738Y002195D01*
X004739Y002194D02*
X004048Y002194D01*
X004049Y002193D02*
X004741Y002193D01*
X004742Y002192D02*
X004049Y002192D01*
X004049Y002191D02*
X004743Y002191D01*
X004745Y002190D02*
X004050Y002190D01*
X004050Y002189D02*
X004746Y002189D01*
X004747Y002188D02*
X004051Y002188D01*
X004051Y002187D02*
X004749Y002187D01*
X004750Y002186D02*
X004052Y002186D01*
X004052Y002185D02*
X004752Y002185D01*
X004753Y002184D02*
X004052Y002184D01*
X004053Y002183D02*
X004754Y002183D01*
X004756Y002182D02*
X004053Y002182D01*
X004054Y002181D02*
X004757Y002181D01*
X004758Y002180D02*
X004054Y002180D01*
X004054Y002179D02*
X004760Y002179D01*
X004761Y002178D02*
X004055Y002178D01*
X004055Y002177D02*
X004762Y002177D01*
X004764Y002176D02*
X004056Y002176D01*
X004056Y002175D02*
X004765Y002175D01*
X004767Y002174D02*
X004056Y002174D01*
X004057Y002173D02*
X004768Y002173D01*
X004769Y002172D02*
X004057Y002172D01*
X004058Y002171D02*
X004771Y002171D01*
X004772Y002170D02*
X004058Y002170D01*
X004058Y002169D02*
X004773Y002169D01*
X004775Y002168D02*
X004059Y002168D01*
X004059Y002167D02*
X004776Y002167D01*
X004777Y002166D02*
X004060Y002166D01*
X004060Y002165D02*
X004779Y002165D01*
X004780Y002164D02*
X004060Y002164D01*
X004061Y002163D02*
X004782Y002163D01*
X004783Y002162D02*
X004061Y002162D01*
X004062Y002161D02*
X004784Y002161D01*
X004786Y002160D02*
X004062Y002160D01*
X004062Y002159D02*
X004787Y002159D01*
X004788Y002158D02*
X004063Y002158D01*
X004063Y002157D02*
X004790Y002157D01*
X004791Y002156D02*
X004064Y002156D01*
X004064Y002155D02*
X004792Y002155D01*
X004794Y002154D02*
X004064Y002154D01*
X004065Y002153D02*
X004795Y002153D01*
X004797Y002152D02*
X004065Y002152D01*
X004066Y002151D02*
X004798Y002151D01*
X004799Y002150D02*
X004066Y002150D01*
X004066Y002149D02*
X004801Y002149D01*
X004802Y002148D02*
X004067Y002148D01*
X004067Y002147D02*
X004803Y002147D01*
X004805Y002146D02*
X004068Y002146D01*
X004068Y002145D02*
X004806Y002145D01*
X004807Y002144D02*
X004068Y002144D01*
X004069Y002143D02*
X004809Y002143D01*
X004810Y002142D02*
X004069Y002142D01*
X004070Y002141D02*
X004812Y002141D01*
X004813Y002140D02*
X004070Y002140D01*
X004070Y002139D02*
X004814Y002139D01*
X004816Y002138D02*
X004071Y002138D01*
X004071Y002137D02*
X004817Y002137D01*
X004818Y002136D02*
X004072Y002136D01*
X004072Y002135D02*
X004820Y002135D01*
X004821Y002134D02*
X004072Y002134D01*
X004073Y002133D02*
X004822Y002133D01*
X004824Y002132D02*
X004073Y002132D01*
X004074Y002131D02*
X004825Y002131D01*
X004827Y002130D02*
X004074Y002130D01*
X004074Y002129D02*
X004828Y002129D01*
X004829Y002128D02*
X004075Y002128D01*
X004075Y002127D02*
X004831Y002127D01*
X004832Y002126D02*
X004076Y002126D01*
X004076Y002125D02*
X004833Y002125D01*
X004835Y002124D02*
X004076Y002124D01*
X004077Y002123D02*
X004836Y002123D01*
X004837Y002122D02*
X004077Y002122D01*
X004078Y002121D02*
X004839Y002121D01*
X004840Y002120D02*
X004078Y002120D01*
X004079Y002119D02*
X004842Y002119D01*
X004843Y002118D02*
X004079Y002118D01*
X004079Y002117D02*
X004844Y002117D01*
X004846Y002116D02*
X004080Y002116D01*
X004080Y002115D02*
X004847Y002115D01*
X004848Y002114D02*
X004081Y002114D01*
X004081Y002113D02*
X004850Y002113D01*
X004851Y002112D02*
X004081Y002112D01*
X004082Y002111D02*
X004853Y002111D01*
X004855Y002110D02*
X004082Y002110D01*
X004083Y002109D02*
X004857Y002109D01*
X004859Y002108D02*
X004083Y002108D01*
X004083Y002107D02*
X004861Y002107D01*
X004863Y002106D02*
X004084Y002106D01*
X004084Y002105D02*
X004865Y002105D01*
X004867Y002104D02*
X004085Y002104D01*
X004085Y002103D02*
X004869Y002103D01*
X004871Y002102D02*
X004085Y002102D01*
X004086Y002101D02*
X004873Y002101D01*
X004875Y002100D02*
X004086Y002100D01*
X004087Y002099D02*
X004877Y002099D01*
X004879Y002098D02*
X004087Y002098D01*
X004087Y002097D02*
X004881Y002097D01*
X004883Y002096D02*
X004088Y002096D01*
X004088Y002095D02*
X004885Y002095D01*
X004887Y002094D02*
X004089Y002094D01*
X004089Y002093D02*
X004889Y002093D01*
X004891Y002092D02*
X004089Y002092D01*
X004090Y002091D02*
X004893Y002091D01*
X004895Y002090D02*
X004090Y002090D01*
X004091Y002089D02*
X004897Y002089D01*
X004899Y002088D02*
X004091Y002088D01*
X004091Y002087D02*
X004901Y002087D01*
X004903Y002086D02*
X004092Y002086D01*
X004092Y002085D02*
X004905Y002085D01*
X004907Y002084D02*
X004093Y002084D01*
X004093Y002083D02*
X004909Y002083D01*
X004911Y002082D02*
X004094Y002082D01*
X004095Y002081D02*
X004913Y002081D01*
X004915Y002080D02*
X004095Y002080D01*
X004096Y002079D02*
X004917Y002079D01*
X004919Y002078D02*
X004097Y002078D01*
X004097Y002077D02*
X004921Y002077D01*
X004923Y002076D02*
X004098Y002076D01*
X004098Y002075D02*
X004925Y002075D01*
X004928Y002074D02*
X004099Y002074D01*
X004100Y002073D02*
X004930Y002073D01*
X004932Y002072D02*
X004100Y002072D01*
X004101Y002071D02*
X004934Y002071D01*
X004936Y002070D02*
X004101Y002070D01*
X004102Y002069D02*
X004938Y002069D01*
X004940Y002068D02*
X004103Y002068D01*
X004103Y002067D02*
X004942Y002067D01*
X004944Y002066D02*
X004104Y002066D01*
X004104Y002065D02*
X004946Y002065D01*
X004948Y002064D02*
X004105Y002064D01*
X004106Y002063D02*
X004950Y002063D01*
X004952Y002062D02*
X004106Y002062D01*
X004107Y002061D02*
X004954Y002061D01*
X004956Y002060D02*
X004107Y002060D01*
X004108Y002059D02*
X004958Y002059D01*
X004960Y002058D02*
X004109Y002058D01*
X004109Y002057D02*
X004962Y002057D01*
X004964Y002056D02*
X004110Y002056D01*
X004110Y002055D02*
X004966Y002055D01*
X004968Y002054D02*
X004111Y002054D01*
X004112Y002053D02*
X004970Y002053D01*
X004972Y002052D02*
X004112Y002052D01*
X004113Y002051D02*
X004974Y002051D01*
X004976Y002050D02*
X004113Y002050D01*
X004114Y002049D02*
X004978Y002049D01*
X004980Y002048D02*
X004115Y002048D01*
X004115Y002047D02*
X004992Y002047D01*
X005007Y002046D02*
X004116Y002046D01*
X004116Y002045D02*
X005021Y002045D01*
X005035Y002044D02*
X004117Y002044D01*
X004118Y002043D02*
X005049Y002043D01*
X005064Y002042D02*
X004118Y002042D01*
X004119Y002041D02*
X005078Y002041D01*
X005092Y002040D02*
X004119Y002040D01*
X004120Y002039D02*
X005106Y002039D01*
X005120Y002038D02*
X004121Y002038D01*
X004121Y002037D02*
X005135Y002037D01*
X005149Y002036D02*
X004122Y002036D01*
X004122Y002035D02*
X005163Y002035D01*
X005177Y002034D02*
X004123Y002034D01*
X004124Y002033D02*
X006306Y002033D01*
X006306Y002032D02*
X004124Y002032D01*
X004125Y002031D02*
X006305Y002031D01*
X006305Y002030D02*
X004125Y002030D01*
X004126Y002029D02*
X006304Y002029D01*
X006303Y002028D02*
X004127Y002028D01*
X004127Y002027D02*
X006303Y002027D01*
X006302Y002026D02*
X004128Y002026D01*
X004128Y002025D02*
X006302Y002025D01*
X006301Y002024D02*
X004129Y002024D01*
X004130Y002023D02*
X006300Y002023D01*
X006300Y002022D02*
X004130Y002022D01*
X004131Y002021D02*
X006299Y002021D01*
X006299Y002020D02*
X004131Y002020D01*
X004132Y002019D02*
X006298Y002019D01*
X006297Y002018D02*
X004133Y002018D01*
X004133Y002017D02*
X006297Y002017D01*
X006296Y002016D02*
X004134Y002016D01*
X004134Y002015D02*
X006296Y002015D01*
X006295Y002014D02*
X004135Y002014D01*
X004136Y002013D02*
X006295Y002013D01*
X006294Y002012D02*
X004136Y002012D01*
X004137Y002011D02*
X006293Y002011D01*
X006293Y002010D02*
X004138Y002010D01*
X004138Y002009D02*
X006292Y002009D01*
X006292Y002008D02*
X004139Y002008D01*
X004139Y002007D02*
X006291Y002007D01*
X006290Y002006D02*
X004140Y002006D01*
X004141Y002005D02*
X006290Y002005D01*
X006289Y002004D02*
X004141Y002004D01*
X004142Y002003D02*
X006289Y002003D01*
X006288Y002002D02*
X004142Y002002D01*
X004143Y002001D02*
X006287Y002001D01*
X006287Y002000D02*
X004144Y002000D01*
X004144Y001999D02*
X006286Y001999D01*
X006286Y001998D02*
X004145Y001998D01*
X004145Y001997D02*
X006285Y001997D01*
X006285Y001996D02*
X004146Y001996D01*
X004147Y001995D02*
X006284Y001995D01*
X006283Y001994D02*
X004147Y001994D01*
X004148Y001993D02*
X006283Y001993D01*
X006282Y001992D02*
X004148Y001992D01*
X004149Y001991D02*
X006282Y001991D01*
X006281Y001990D02*
X004150Y001990D01*
X004150Y001989D02*
X006280Y001989D01*
X006280Y001988D02*
X004151Y001988D01*
X004151Y001987D02*
X006279Y001987D01*
X006279Y001986D02*
X004152Y001986D01*
X004153Y001985D02*
X006278Y001985D01*
X006277Y001984D02*
X004153Y001984D01*
X004154Y001983D02*
X006277Y001983D01*
X006276Y001982D02*
X004154Y001982D01*
X004155Y001981D02*
X006276Y001981D01*
X006275Y001980D02*
X004156Y001980D01*
X004156Y001979D02*
X006275Y001979D01*
X006274Y001978D02*
X004157Y001978D01*
X004157Y001977D02*
X006273Y001977D01*
X006273Y001976D02*
X004158Y001976D01*
X004159Y001975D02*
X006272Y001975D01*
X006272Y001974D02*
X004159Y001974D01*
X004160Y001973D02*
X006271Y001973D01*
X006270Y001972D02*
X004160Y001972D01*
X004161Y001971D02*
X006270Y001971D01*
X006269Y001970D02*
X004162Y001970D01*
X004162Y001969D02*
X006269Y001969D01*
X006268Y001968D02*
X004163Y001968D01*
X004163Y001967D02*
X006267Y001967D01*
X006267Y001966D02*
X004164Y001966D01*
X004165Y001965D02*
X006266Y001965D01*
X006266Y001964D02*
X004165Y001964D01*
X004166Y001963D02*
X006265Y001963D01*
X006265Y001962D02*
X004166Y001962D01*
X004167Y001961D02*
X006264Y001961D01*
X006263Y001960D02*
X004168Y001960D01*
X004168Y001959D02*
X006263Y001959D01*
X006262Y001958D02*
X004169Y001958D01*
X004169Y001957D02*
X006262Y001957D01*
X006261Y001956D02*
X004170Y001956D01*
X004171Y001955D02*
X006260Y001955D01*
X006260Y001954D02*
X004171Y001954D01*
X004172Y001953D02*
X006259Y001953D01*
X006259Y001952D02*
X004172Y001952D01*
X004173Y001951D02*
X006258Y001951D01*
X006257Y001950D02*
X004174Y001950D01*
X004174Y001949D02*
X006257Y001949D01*
X006256Y001948D02*
X004175Y001948D01*
X004175Y001947D02*
X006256Y001947D01*
X006255Y001946D02*
X004176Y001946D01*
X004177Y001945D02*
X006255Y001945D01*
X006254Y001944D02*
X004177Y001944D01*
X004178Y001943D02*
X006253Y001943D01*
X006253Y001942D02*
X004178Y001942D01*
X004179Y001941D02*
X006252Y001941D01*
X006252Y001940D02*
X004180Y001940D01*
X004180Y001939D02*
X006251Y001939D01*
X006250Y001938D02*
X004181Y001938D01*
X004182Y001937D02*
X006250Y001937D01*
X006249Y001936D02*
X004182Y001936D01*
X004183Y001935D02*
X006249Y001935D01*
X006248Y001934D02*
X004183Y001934D01*
X004184Y001933D02*
X006247Y001933D01*
X006247Y001932D02*
X004185Y001932D01*
X004185Y001931D02*
X006246Y001931D01*
X006246Y001930D02*
X004186Y001930D01*
X004186Y001929D02*
X006245Y001929D01*
X006245Y001928D02*
X004187Y001928D01*
X004188Y001927D02*
X006244Y001927D01*
X006243Y001926D02*
X004188Y001926D01*
X004189Y001925D02*
X006243Y001925D01*
X006242Y001924D02*
X004189Y001924D01*
X004190Y001923D02*
X006242Y001923D01*
X006241Y001922D02*
X004191Y001922D01*
X004191Y001921D02*
X006240Y001921D01*
X006240Y001920D02*
X004192Y001920D01*
X004192Y001919D02*
X006239Y001919D01*
X006238Y001918D02*
X004193Y001918D01*
X004194Y001917D02*
X006237Y001917D01*
X006236Y001916D02*
X004195Y001916D01*
X004196Y001915D02*
X006235Y001915D01*
X006235Y001914D02*
X004197Y001914D01*
X004197Y001913D02*
X006234Y001913D01*
X006233Y001912D02*
X004198Y001912D01*
X004199Y001911D02*
X006232Y001911D01*
X006231Y001910D02*
X004200Y001910D01*
X004201Y001909D02*
X006230Y001909D01*
X006230Y001908D02*
X004201Y001908D01*
X004202Y001907D02*
X006229Y001907D01*
X006228Y001906D02*
X004203Y001906D01*
X004204Y001905D02*
X006227Y001905D01*
X006226Y001904D02*
X004205Y001904D01*
X004206Y001903D02*
X006226Y001903D01*
X006225Y001902D02*
X004206Y001902D01*
X004207Y001901D02*
X006224Y001901D01*
X006223Y001900D02*
X004208Y001900D01*
X004209Y001899D02*
X006222Y001899D01*
X006221Y001898D02*
X004210Y001898D01*
X004211Y001897D02*
X006221Y001897D01*
X006220Y001896D02*
X004211Y001896D01*
X004212Y001895D02*
X006219Y001895D01*
X006218Y001894D02*
X004213Y001894D01*
X004214Y001893D02*
X006217Y001893D01*
X006216Y001892D02*
X004215Y001892D01*
X004215Y001891D02*
X006216Y001891D01*
X006215Y001890D02*
X004216Y001890D01*
X004217Y001889D02*
X006214Y001889D01*
X006213Y001888D02*
X004218Y001888D01*
X004219Y001887D02*
X006212Y001887D01*
X006211Y001886D02*
X004220Y001886D01*
X004220Y001885D02*
X006211Y001885D01*
X006210Y001884D02*
X004221Y001884D01*
X004222Y001883D02*
X006209Y001883D01*
X006208Y001882D02*
X004223Y001882D01*
X004224Y001881D02*
X006207Y001881D01*
X006206Y001880D02*
X004224Y001880D01*
X004225Y001879D02*
X006206Y001879D01*
X006205Y001878D02*
X004226Y001878D01*
X004227Y001877D02*
X006204Y001877D01*
X006203Y001876D02*
X004228Y001876D01*
X004229Y001875D02*
X006202Y001875D01*
X006201Y001874D02*
X004229Y001874D01*
X004230Y001873D02*
X006201Y001873D01*
X006200Y001872D02*
X004231Y001872D01*
X004232Y001871D02*
X006199Y001871D01*
X006198Y001870D02*
X004233Y001870D01*
X004233Y001869D02*
X006197Y001869D01*
X006197Y001868D02*
X004234Y001868D01*
X004235Y001867D02*
X006196Y001867D01*
X006195Y001866D02*
X004236Y001866D01*
X004237Y001865D02*
X006194Y001865D01*
X006193Y001864D02*
X004238Y001864D01*
X004238Y001863D02*
X006192Y001863D01*
X006192Y001862D02*
X004239Y001862D01*
X004240Y001861D02*
X006191Y001861D01*
X006190Y001860D02*
X004241Y001860D01*
X004242Y001859D02*
X006189Y001859D01*
X006188Y001858D02*
X004242Y001858D01*
X004243Y001857D02*
X006187Y001857D01*
X006187Y001856D02*
X004244Y001856D01*
X004245Y001855D02*
X006186Y001855D01*
X006185Y001854D02*
X004246Y001854D01*
X004247Y001853D02*
X006184Y001853D01*
X006183Y001852D02*
X004247Y001852D01*
X004248Y001851D02*
X006182Y001851D01*
X006182Y001850D02*
X004249Y001850D01*
X004250Y001849D02*
X006181Y001849D01*
X006180Y001848D02*
X004251Y001848D01*
X004252Y001847D02*
X006179Y001847D01*
X006178Y001846D02*
X004252Y001846D01*
X004253Y001845D02*
X006177Y001845D01*
X006177Y001844D02*
X004254Y001844D01*
X004255Y001843D02*
X006176Y001843D01*
X006175Y001842D02*
X004256Y001842D01*
X004256Y001841D02*
X006174Y001841D01*
X006173Y001840D02*
X004257Y001840D01*
X004258Y001839D02*
X006172Y001839D01*
X006172Y001838D02*
X004259Y001838D01*
X004260Y001837D02*
X006171Y001837D01*
X006170Y001836D02*
X004261Y001836D01*
X004261Y001835D02*
X006169Y001835D01*
X006168Y001834D02*
X004262Y001834D01*
X004263Y001833D02*
X006167Y001833D01*
X006167Y001832D02*
X004264Y001832D01*
X004265Y001831D02*
X006166Y001831D01*
X006165Y001830D02*
X004265Y001830D01*
X004266Y001829D02*
X006164Y001829D01*
X006163Y001828D02*
X004267Y001828D01*
X004268Y001827D02*
X006163Y001827D01*
X006162Y001826D02*
X004269Y001826D01*
X004270Y001825D02*
X006161Y001825D01*
X006160Y001824D02*
X004270Y001824D01*
X004271Y001823D02*
X006159Y001823D01*
X006158Y001822D02*
X004272Y001822D01*
X004273Y001821D02*
X006158Y001821D01*
X006157Y001820D02*
X004274Y001820D01*
X004274Y001819D02*
X006156Y001819D01*
X006155Y001818D02*
X004275Y001818D01*
X004276Y001817D02*
X006154Y001817D01*
X006153Y001816D02*
X004277Y001816D01*
X004278Y001815D02*
X006153Y001815D01*
X006152Y001814D02*
X004279Y001814D01*
X004279Y001813D02*
X006151Y001813D01*
X006150Y001812D02*
X004280Y001812D01*
X004281Y001811D02*
X006149Y001811D01*
X006148Y001810D02*
X004282Y001810D01*
X004283Y001809D02*
X006148Y001809D01*
X006147Y001808D02*
X004283Y001808D01*
X004284Y001807D02*
X006146Y001807D01*
X006145Y001806D02*
X004285Y001806D01*
X004286Y001805D02*
X006144Y001805D01*
X006143Y001804D02*
X004287Y001804D01*
X004288Y001803D02*
X006143Y001803D01*
X006142Y001802D02*
X004288Y001802D01*
X004289Y001801D02*
X006141Y001801D01*
X006140Y001800D02*
X004290Y001800D01*
X004291Y001799D02*
X006139Y001799D01*
X006138Y001798D02*
X004292Y001798D01*
X004293Y001797D02*
X006138Y001797D01*
X006137Y001796D02*
X004293Y001796D01*
X004294Y001795D02*
X006136Y001795D01*
X006135Y001794D02*
X004295Y001794D01*
X004296Y001793D02*
X006134Y001793D01*
X006133Y001792D02*
X004297Y001792D01*
X004297Y001791D02*
X006133Y001791D01*
X006132Y001790D02*
X004298Y001790D01*
X004299Y001789D02*
X006131Y001789D01*
X006130Y001788D02*
X004300Y001788D01*
X004301Y001787D02*
X006129Y001787D01*
X006129Y001786D02*
X004302Y001786D01*
X004302Y001785D02*
X006128Y001785D01*
X006127Y001784D02*
X004303Y001784D01*
X004304Y001783D02*
X006126Y001783D01*
X006125Y001782D02*
X004305Y001782D01*
X004306Y001781D02*
X006124Y001781D01*
X006124Y001780D02*
X004306Y001780D01*
X004307Y001779D02*
X006123Y001779D01*
X006122Y001778D02*
X004308Y001778D01*
X004309Y001777D02*
X006121Y001777D01*
X006120Y001776D02*
X004310Y001776D01*
X004311Y001775D02*
X006119Y001775D01*
X006119Y001774D02*
X004311Y001774D01*
X004312Y001773D02*
X006118Y001773D01*
X006117Y001772D02*
X004313Y001772D01*
X004314Y001771D02*
X006116Y001771D01*
X006115Y001770D02*
X004315Y001770D01*
X004316Y001769D02*
X006114Y001769D01*
X006114Y001768D02*
X004317Y001768D01*
X004318Y001767D02*
X006113Y001767D01*
X006112Y001766D02*
X004319Y001766D01*
X004320Y001765D02*
X006111Y001765D01*
X006110Y001764D02*
X004321Y001764D01*
X004322Y001763D02*
X006109Y001763D01*
X006109Y001762D02*
X004323Y001762D01*
X004325Y001761D02*
X006108Y001761D01*
X006107Y001760D02*
X004326Y001760D01*
X004327Y001759D02*
X006106Y001759D01*
X006105Y001758D02*
X004328Y001758D01*
X004329Y001757D02*
X006104Y001757D01*
X006102Y001756D02*
X004330Y001756D01*
X004331Y001755D02*
X006101Y001755D01*
X006100Y001754D02*
X004332Y001754D01*
X004333Y001753D02*
X006099Y001753D01*
X006098Y001752D02*
X004334Y001752D01*
X004335Y001751D02*
X006097Y001751D01*
X006096Y001750D02*
X004336Y001750D01*
X004337Y001749D02*
X006094Y001749D01*
X006093Y001748D02*
X004339Y001748D01*
X004340Y001747D02*
X006092Y001747D01*
X006091Y001746D02*
X004341Y001746D01*
X004342Y001745D02*
X006090Y001745D01*
X006089Y001744D02*
X004343Y001744D01*
X004344Y001743D02*
X006088Y001743D01*
X006087Y001742D02*
X004345Y001742D01*
X004346Y001741D02*
X006085Y001741D01*
X006084Y001740D02*
X004347Y001740D01*
X004348Y001739D02*
X006083Y001739D01*
X006082Y001738D02*
X004349Y001738D01*
X004350Y001737D02*
X006081Y001737D01*
X006080Y001736D02*
X004351Y001736D01*
X004353Y001735D02*
X006079Y001735D01*
X006077Y001734D02*
X004354Y001734D01*
X004355Y001733D02*
X006076Y001733D01*
X006075Y001732D02*
X004356Y001732D01*
X004357Y001731D02*
X006074Y001731D01*
X006073Y001730D02*
X004358Y001730D01*
X004359Y001729D02*
X006072Y001729D01*
X006071Y001728D02*
X004360Y001728D01*
X004361Y001727D02*
X006069Y001727D01*
X006068Y001726D02*
X004362Y001726D01*
X004363Y001725D02*
X006067Y001725D01*
X006066Y001724D02*
X004364Y001724D01*
X004365Y001723D02*
X006065Y001723D01*
X006064Y001722D02*
X004367Y001722D01*
X004368Y001721D02*
X006063Y001721D01*
X006061Y001720D02*
X004369Y001720D01*
X004370Y001719D02*
X006060Y001719D01*
X006059Y001718D02*
X004371Y001718D01*
X004372Y001717D02*
X006058Y001717D01*
X006057Y001716D02*
X004373Y001716D01*
X004374Y001715D02*
X006056Y001715D01*
X006055Y001714D02*
X004375Y001714D01*
X004376Y001713D02*
X006053Y001713D01*
X006052Y001712D02*
X004377Y001712D01*
X004378Y001711D02*
X006051Y001711D01*
X006050Y001710D02*
X004379Y001710D01*
X004381Y001709D02*
X006049Y001709D01*
X006048Y001708D02*
X004382Y001708D01*
X004383Y001707D02*
X006047Y001707D01*
X006045Y001706D02*
X004384Y001706D01*
X004385Y001705D02*
X006044Y001705D01*
X006043Y001704D02*
X004386Y001704D01*
X004387Y001703D02*
X006042Y001703D01*
X006041Y001702D02*
X004388Y001702D01*
X004389Y001701D02*
X006040Y001701D01*
X006039Y001700D02*
X004390Y001700D01*
X004391Y001699D02*
X006037Y001699D01*
X006036Y001698D02*
X004392Y001698D01*
X004393Y001697D02*
X006035Y001697D01*
X006034Y001696D02*
X004395Y001696D01*
X004396Y001695D02*
X006033Y001695D01*
X006032Y001694D02*
X004397Y001694D01*
X004398Y001693D02*
X006031Y001693D01*
X006029Y001692D02*
X004399Y001692D01*
X004400Y001691D02*
X006028Y001691D01*
X006027Y001690D02*
X004401Y001690D01*
X004402Y001689D02*
X006026Y001689D01*
X006025Y001688D02*
X004403Y001688D01*
X004404Y001687D02*
X006024Y001687D01*
X006023Y001686D02*
X004405Y001686D01*
X004406Y001685D02*
X006021Y001685D01*
X006020Y001684D02*
X004407Y001684D01*
X004409Y001683D02*
X006019Y001683D01*
X006018Y001682D02*
X004410Y001682D01*
X004411Y001681D02*
X006017Y001681D01*
X006016Y001680D02*
X004412Y001680D01*
X004413Y001679D02*
X006015Y001679D01*
X006014Y001678D02*
X004414Y001678D01*
X004415Y001677D02*
X006012Y001677D01*
X006011Y001676D02*
X004416Y001676D01*
X004417Y001675D02*
X006010Y001675D01*
X006009Y001674D02*
X004418Y001674D01*
X004419Y001673D02*
X006008Y001673D01*
X006007Y001672D02*
X004420Y001672D01*
X004421Y001671D02*
X006006Y001671D01*
X006004Y001670D02*
X004423Y001670D01*
X004424Y001669D02*
X006003Y001669D01*
X006002Y001668D02*
X004425Y001668D01*
X004426Y001667D02*
X006001Y001667D01*
X006000Y001666D02*
X004427Y001666D01*
X004428Y001665D02*
X005999Y001665D01*
X005998Y001664D02*
X004429Y001664D01*
X004430Y001663D02*
X005996Y001663D01*
X005995Y001662D02*
X004431Y001662D01*
X004432Y001661D02*
X005994Y001661D01*
X005993Y001660D02*
X004433Y001660D01*
X004434Y001659D02*
X005992Y001659D01*
X005991Y001658D02*
X004435Y001658D01*
X004437Y001657D02*
X005990Y001657D01*
X005988Y001656D02*
X004438Y001656D01*
X004439Y001655D02*
X005987Y001655D01*
X005986Y001654D02*
X004440Y001654D01*
X004441Y001653D02*
X005985Y001653D01*
X005984Y001652D02*
X004442Y001652D01*
X004443Y001651D02*
X005983Y001651D01*
X005982Y001650D02*
X004444Y001650D01*
X004445Y001649D02*
X005980Y001649D01*
X005979Y001648D02*
X004446Y001648D01*
X004447Y001647D02*
X005978Y001647D01*
X005977Y001646D02*
X004448Y001646D01*
X004449Y001645D02*
X005976Y001645D01*
X005975Y001644D02*
X004451Y001644D01*
X004452Y001643D02*
X005974Y001643D01*
X005972Y001642D02*
X004453Y001642D01*
X004454Y001641D02*
X005971Y001641D01*
X005970Y001640D02*
X004455Y001640D01*
X004456Y001639D02*
X005969Y001639D01*
X005968Y001638D02*
X004458Y001638D01*
X004460Y001637D02*
X005967Y001637D01*
X005966Y001636D02*
X004461Y001636D01*
X004463Y001635D02*
X005964Y001635D01*
X005963Y001634D02*
X004465Y001634D01*
X004466Y001633D02*
X005962Y001633D01*
X005961Y001632D02*
X004468Y001632D01*
X004470Y001631D02*
X005960Y001631D01*
X005959Y001630D02*
X004471Y001630D01*
X004473Y001629D02*
X005958Y001629D01*
X005956Y001628D02*
X004475Y001628D01*
X004476Y001627D02*
X005955Y001627D01*
X005954Y001626D02*
X004478Y001626D01*
X004480Y001625D02*
X005953Y001625D01*
X005952Y001624D02*
X004482Y001624D01*
X004483Y001623D02*
X005951Y001623D01*
X005950Y001622D02*
X004485Y001622D01*
X004487Y001621D02*
X005948Y001621D01*
X005947Y001620D02*
X004488Y001620D01*
X004490Y001619D02*
X005945Y001619D01*
X005943Y001618D02*
X004492Y001618D01*
X004493Y001617D02*
X005942Y001617D01*
X005940Y001616D02*
X004495Y001616D01*
X004497Y001615D02*
X005939Y001615D01*
X005937Y001614D02*
X004498Y001614D01*
X004500Y001613D02*
X005935Y001613D01*
X005934Y001612D02*
X004502Y001612D01*
X004504Y001611D02*
X005932Y001611D01*
X005930Y001610D02*
X004505Y001610D01*
X004507Y001609D02*
X005929Y001609D01*
X005927Y001608D02*
X004509Y001608D01*
X004510Y001607D02*
X005925Y001607D01*
X005924Y001606D02*
X004512Y001606D01*
X004514Y001605D02*
X005922Y001605D01*
X005921Y001604D02*
X004515Y001604D01*
X004517Y001603D02*
X005919Y001603D01*
X005917Y001602D02*
X004519Y001602D01*
X004521Y001601D02*
X005916Y001601D01*
X005914Y001600D02*
X004522Y001600D01*
X004524Y001599D02*
X005912Y001599D01*
X005911Y001598D02*
X004526Y001598D01*
X004527Y001597D02*
X005909Y001597D01*
X005907Y001596D02*
X004529Y001596D01*
X004531Y001595D02*
X005906Y001595D01*
X005904Y001594D02*
X004532Y001594D01*
X004534Y001593D02*
X005903Y001593D01*
X005901Y001593D02*
X004536Y001593D01*
X004537Y001592D02*
X005899Y001592D01*
X005898Y001591D02*
X004539Y001591D01*
X004541Y001590D02*
X005896Y001590D01*
X005894Y001589D02*
X004543Y001589D01*
X004544Y001588D02*
X005893Y001588D01*
X005891Y001587D02*
X004546Y001587D01*
X004548Y001586D02*
X005889Y001586D01*
X005888Y001585D02*
X004549Y001585D01*
X004551Y001584D02*
X005886Y001584D01*
X005885Y001583D02*
X004553Y001583D01*
X004554Y001582D02*
X005883Y001582D01*
X005881Y001581D02*
X004556Y001581D01*
X004558Y001580D02*
X005880Y001580D01*
X005878Y001579D02*
X004559Y001579D01*
X004561Y001578D02*
X005876Y001578D01*
X005875Y001577D02*
X004563Y001577D01*
X004565Y001576D02*
X005873Y001576D01*
X005871Y001575D02*
X004566Y001575D01*
X004568Y001574D02*
X005870Y001574D01*
X005868Y001573D02*
X004570Y001573D01*
X004571Y001572D02*
X005867Y001572D01*
X005865Y001571D02*
X004573Y001571D01*
X004575Y001570D02*
X005863Y001570D01*
X005862Y001569D02*
X004576Y001569D01*
X004578Y001568D02*
X005860Y001568D01*
X005858Y001567D02*
X004580Y001567D01*
X004581Y001566D02*
X005857Y001566D01*
X005855Y001565D02*
X004583Y001565D01*
X004585Y001564D02*
X005854Y001564D01*
X005852Y001563D02*
X004587Y001563D01*
X004588Y001562D02*
X005850Y001562D01*
X005849Y001561D02*
X004590Y001561D01*
X004592Y001560D02*
X005847Y001560D01*
X005845Y001559D02*
X004593Y001559D01*
X004595Y001558D02*
X005844Y001558D01*
X005842Y001557D02*
X004597Y001557D01*
X004598Y001556D02*
X005840Y001556D01*
X005839Y001555D02*
X004600Y001555D01*
X004602Y001554D02*
X005837Y001554D01*
X005836Y001553D02*
X004604Y001553D01*
X004605Y001552D02*
X005834Y001552D01*
X005832Y001551D02*
X004607Y001551D01*
X004609Y001550D02*
X005831Y001550D01*
X005829Y001549D02*
X004610Y001549D01*
X004612Y001548D02*
X005827Y001548D01*
X005826Y001547D02*
X004614Y001547D01*
X004615Y001546D02*
X005824Y001546D01*
X005822Y001545D02*
X004617Y001545D01*
X004619Y001544D02*
X005821Y001544D01*
X005819Y001543D02*
X004620Y001543D01*
X004622Y001542D02*
X005818Y001542D01*
X005816Y001541D02*
X004624Y001541D01*
X004626Y001540D02*
X005814Y001540D01*
X005813Y001539D02*
X004627Y001539D01*
X004629Y001538D02*
X005811Y001538D01*
X005809Y001537D02*
X004631Y001537D01*
X004632Y001536D02*
X005808Y001536D01*
X005806Y001535D02*
X004634Y001535D01*
X004636Y001534D02*
X005804Y001534D01*
X005803Y001533D02*
X004637Y001533D01*
X004639Y001532D02*
X005801Y001532D01*
X005800Y001531D02*
X004641Y001531D01*
X004642Y001530D02*
X005798Y001530D01*
X005796Y001529D02*
X004644Y001529D01*
X004646Y001528D02*
X005795Y001528D01*
X005793Y001527D02*
X004648Y001527D01*
X004649Y001526D02*
X005791Y001526D01*
X005790Y001525D02*
X004651Y001525D01*
X004653Y001524D02*
X005788Y001524D01*
X005786Y001523D02*
X004654Y001523D01*
X004656Y001522D02*
X005785Y001522D01*
X005783Y001521D02*
X004659Y001521D01*
X004661Y001520D02*
X005782Y001520D01*
X005780Y001519D02*
X004663Y001519D01*
X004666Y001518D02*
X005778Y001518D01*
X005777Y001517D02*
X004668Y001517D01*
X004671Y001516D02*
X005775Y001516D01*
X005773Y001515D02*
X004673Y001515D01*
X004675Y001514D02*
X005772Y001514D01*
X005770Y001513D02*
X004678Y001513D01*
X004680Y001512D02*
X005768Y001512D01*
X005765Y001511D02*
X004683Y001511D01*
X004685Y001510D02*
X005762Y001510D01*
X005760Y001509D02*
X004687Y001509D01*
X004690Y001508D02*
X005757Y001508D01*
X005754Y001507D02*
X004692Y001507D01*
X004694Y001506D02*
X005751Y001506D01*
X005749Y001505D02*
X004697Y001505D01*
X004699Y001504D02*
X005746Y001504D01*
X005743Y001503D02*
X004702Y001503D01*
X004704Y001502D02*
X005741Y001502D01*
X005738Y001501D02*
X004706Y001501D01*
X004709Y001500D02*
X005735Y001500D01*
X005733Y001499D02*
X004711Y001499D01*
X004714Y001498D02*
X005730Y001498D01*
X005727Y001497D02*
X004716Y001497D01*
X004718Y001496D02*
X005725Y001496D01*
X005722Y001495D02*
X004721Y001495D01*
X004723Y001494D02*
X005719Y001494D01*
X005717Y001493D02*
X004726Y001493D01*
X004728Y001492D02*
X005714Y001492D01*
X005711Y001491D02*
X004730Y001491D01*
X004733Y001490D02*
X005708Y001490D01*
X005706Y001489D02*
X004735Y001489D01*
X004738Y001488D02*
X005703Y001488D01*
X005700Y001487D02*
X004740Y001487D01*
X004742Y001486D02*
X005698Y001486D01*
X005695Y001485D02*
X004745Y001485D01*
X004747Y001484D02*
X005692Y001484D01*
X005690Y001483D02*
X004749Y001483D01*
X004752Y001482D02*
X005687Y001482D01*
X005684Y001481D02*
X004754Y001481D01*
X004757Y001480D02*
X005682Y001480D01*
X005679Y001479D02*
X004759Y001479D01*
X004761Y001478D02*
X005676Y001478D01*
X005673Y001477D02*
X004764Y001477D01*
X004766Y001476D02*
X005671Y001476D01*
X005668Y001475D02*
X004769Y001475D01*
X004771Y001474D02*
X005665Y001474D01*
X005663Y001473D02*
X004773Y001473D01*
X004776Y001472D02*
X005660Y001472D01*
X005657Y001471D02*
X004778Y001471D01*
X004781Y001470D02*
X005655Y001470D01*
X005652Y001469D02*
X004783Y001469D01*
X004785Y001468D02*
X005649Y001468D01*
X005647Y001467D02*
X004788Y001467D01*
X004790Y001466D02*
X005644Y001466D01*
X005641Y001465D02*
X004793Y001465D01*
X004795Y001464D02*
X005639Y001464D01*
X005636Y001463D02*
X004797Y001463D01*
X004800Y001462D02*
X005633Y001462D01*
X005630Y001461D02*
X004802Y001461D01*
X004804Y001460D02*
X005628Y001460D01*
X005625Y001459D02*
X004807Y001459D01*
X004809Y001458D02*
X005622Y001458D01*
X005620Y001457D02*
X004812Y001457D01*
X004814Y001456D02*
X005617Y001456D01*
X005614Y001455D02*
X004816Y001455D01*
X004819Y001454D02*
X005612Y001454D01*
X005609Y001453D02*
X004821Y001453D01*
X004824Y001452D02*
X005606Y001452D01*
X005604Y001451D02*
X004826Y001451D01*
X004828Y001450D02*
X005601Y001450D01*
X005598Y001449D02*
X004831Y001449D01*
X004833Y001448D02*
X005596Y001448D01*
X005593Y001447D02*
X004836Y001447D01*
X004838Y001446D02*
X005590Y001446D01*
X005587Y001445D02*
X004840Y001445D01*
X004843Y001444D02*
X005585Y001444D01*
X005580Y001443D02*
X004845Y001443D01*
X004848Y001442D02*
X005576Y001442D01*
X005571Y001441D02*
X004850Y001441D01*
X004852Y001440D02*
X005566Y001440D01*
X005562Y001439D02*
X004855Y001439D01*
X004857Y001438D02*
X005557Y001438D01*
X005553Y001437D02*
X004859Y001437D01*
X004862Y001436D02*
X005548Y001436D01*
X005544Y001435D02*
X004864Y001435D01*
X004867Y001434D02*
X005539Y001434D01*
X005534Y001433D02*
X004869Y001433D01*
X004873Y001432D02*
X005530Y001432D01*
X005525Y001431D02*
X004877Y001431D01*
X004881Y001430D02*
X005521Y001430D01*
X005516Y001429D02*
X004886Y001429D01*
X004890Y001428D02*
X005511Y001428D01*
X005507Y001427D02*
X004894Y001427D01*
X004898Y001426D02*
X005502Y001426D01*
X005498Y001425D02*
X004902Y001425D01*
X004906Y001424D02*
X005493Y001424D01*
X005488Y001423D02*
X004910Y001423D01*
X004914Y001422D02*
X005484Y001422D01*
X005479Y001421D02*
X004918Y001421D01*
X004922Y001420D02*
X005475Y001420D01*
X005470Y001419D02*
X004926Y001419D01*
X004931Y001418D02*
X005466Y001418D01*
X005461Y001417D02*
X004935Y001417D01*
X004939Y001416D02*
X005456Y001416D01*
X005452Y001415D02*
X004943Y001415D01*
X004947Y001414D02*
X005447Y001414D01*
X005443Y001413D02*
X004951Y001413D01*
X004955Y001412D02*
X005438Y001412D01*
X005433Y001411D02*
X004959Y001411D01*
X004963Y001410D02*
X005429Y001410D01*
X005424Y001409D02*
X004967Y001409D01*
X004971Y001408D02*
X005420Y001408D01*
X005415Y001407D02*
X004976Y001407D01*
X004980Y001406D02*
X005410Y001406D01*
X005406Y001405D02*
X004984Y001405D01*
X004988Y001404D02*
X005401Y001404D01*
X005397Y001403D02*
X004992Y001403D01*
X004996Y001402D02*
X005392Y001402D01*
X005383Y001401D02*
X005005Y001401D01*
X005016Y001400D02*
X005372Y001400D01*
X005361Y001399D02*
X005027Y001399D01*
X005038Y001398D02*
X005350Y001398D01*
X005339Y001397D02*
X005049Y001397D01*
X005060Y001396D02*
X005328Y001396D01*
X005317Y001395D02*
X005071Y001395D01*
X005082Y001394D02*
X005306Y001394D01*
X005295Y001393D02*
X005093Y001393D01*
X005103Y001392D02*
X005284Y001392D01*
X005274Y001391D02*
X005114Y001391D01*
X005125Y001390D02*
X005263Y001390D01*
X005252Y001389D02*
X005136Y001389D01*
X005147Y001388D02*
X005241Y001388D01*
X005230Y001387D02*
X005158Y001387D01*
X005169Y001386D02*
X005219Y001386D01*
X005208Y001385D02*
X005180Y001385D01*
X005191Y001384D02*
X005197Y001384D01*
X005184Y002034D02*
X006307Y002034D01*
X006307Y002035D02*
X005196Y002035D01*
X005208Y002036D02*
X006308Y002036D01*
X006309Y002037D02*
X005220Y002037D01*
X005233Y002038D02*
X006309Y002038D01*
X006310Y002039D02*
X005245Y002039D01*
X005257Y002040D02*
X006310Y002040D01*
X006311Y002041D02*
X005269Y002041D01*
X005282Y002042D02*
X006312Y002042D01*
X006312Y002043D02*
X005294Y002043D01*
X005306Y002044D02*
X006313Y002044D01*
X006313Y002045D02*
X005315Y002045D01*
X005318Y002046D02*
X006314Y002046D01*
X006315Y002047D02*
X005321Y002047D01*
X005324Y002048D02*
X006315Y002048D01*
X006316Y002049D02*
X005327Y002049D01*
X005329Y002050D02*
X006316Y002050D01*
X006317Y002051D02*
X005332Y002051D01*
X005335Y002052D02*
X006317Y002052D01*
X006318Y002053D02*
X005338Y002053D01*
X005341Y002054D02*
X006319Y002054D01*
X006319Y002055D02*
X005344Y002055D01*
X005346Y002056D02*
X006320Y002056D01*
X006320Y002057D02*
X005349Y002057D01*
X005352Y002058D02*
X006321Y002058D01*
X006322Y002059D02*
X005355Y002059D01*
X005358Y002060D02*
X006322Y002060D01*
X006323Y002061D02*
X005361Y002061D01*
X005363Y002062D02*
X006323Y002062D01*
X006324Y002063D02*
X005366Y002063D01*
X005369Y002064D02*
X006325Y002064D01*
X006325Y002065D02*
X005372Y002065D01*
X005375Y002066D02*
X006326Y002066D01*
X006326Y002067D02*
X005377Y002067D01*
X005380Y002068D02*
X006327Y002068D01*
X006327Y002069D02*
X005383Y002069D01*
X005386Y002070D02*
X006328Y002070D01*
X006329Y002071D02*
X005389Y002071D01*
X005392Y002072D02*
X006329Y002072D01*
X006330Y002073D02*
X005394Y002073D01*
X005397Y002074D02*
X006330Y002074D01*
X006331Y002075D02*
X005400Y002075D01*
X005403Y002076D02*
X006332Y002076D01*
X006332Y002077D02*
X005406Y002077D01*
X005409Y002078D02*
X006333Y002078D01*
X006333Y002079D02*
X005411Y002079D01*
X005414Y002080D02*
X006334Y002080D01*
X006335Y002081D02*
X005417Y002081D01*
X005420Y002082D02*
X006335Y002082D01*
X006336Y002083D02*
X005423Y002083D01*
X005425Y002084D02*
X006336Y002084D01*
X006337Y002085D02*
X005428Y002085D01*
X005431Y002086D02*
X006338Y002086D01*
X006338Y002087D02*
X005434Y002087D01*
X005437Y002088D02*
X006339Y002088D01*
X006339Y002089D02*
X005440Y002089D01*
X005441Y002090D02*
X006340Y002090D01*
X006340Y002091D02*
X005443Y002091D01*
X005444Y002092D02*
X006341Y002092D01*
X006342Y002093D02*
X005445Y002093D01*
X005446Y002094D02*
X006342Y002094D01*
X006343Y002095D02*
X005448Y002095D01*
X005449Y002096D02*
X006343Y002096D01*
X006344Y002097D02*
X005450Y002097D01*
X005452Y002098D02*
X006345Y002098D01*
X006345Y002099D02*
X005453Y002099D01*
X005454Y002100D02*
X006346Y002100D01*
X006346Y002101D02*
X005456Y002101D01*
X005457Y002102D02*
X006347Y002102D01*
X006347Y002103D02*
X005458Y002103D01*
X005460Y002104D02*
X006348Y002104D01*
X006348Y002105D02*
X005461Y002105D01*
X005462Y002106D02*
X006348Y002106D01*
X006349Y002107D02*
X005463Y002107D01*
X005465Y002108D02*
X006349Y002108D01*
X006350Y002109D02*
X005466Y002109D01*
X005467Y002110D02*
X006350Y002110D01*
X006350Y002111D02*
X005469Y002111D01*
X005470Y002112D02*
X006351Y002112D01*
X006351Y002113D02*
X005471Y002113D01*
X005473Y002114D02*
X006352Y002114D01*
X006352Y002115D02*
X005474Y002115D01*
X005475Y002116D02*
X006352Y002116D01*
X006353Y002117D02*
X005477Y002117D01*
X005478Y002118D02*
X006353Y002118D01*
X006353Y002119D02*
X005479Y002119D01*
X005481Y002120D02*
X006354Y002120D01*
X006354Y002121D02*
X005482Y002121D01*
X005483Y002122D02*
X006355Y002122D01*
X006355Y002123D02*
X005484Y002123D01*
X005486Y002124D02*
X006355Y002124D01*
X006356Y002125D02*
X005487Y002125D01*
X005488Y002126D02*
X006356Y002126D01*
X006357Y002127D02*
X005490Y002127D01*
X005491Y002128D02*
X006357Y002128D01*
X006357Y002129D02*
X005492Y002129D01*
X005494Y002130D02*
X006358Y002130D01*
X006358Y002131D02*
X005495Y002131D01*
X005496Y002132D02*
X006359Y002132D01*
X006359Y002133D02*
X005498Y002133D01*
X005499Y002134D02*
X006359Y002134D01*
X006360Y002135D02*
X005500Y002135D01*
X005501Y002136D02*
X006360Y002136D01*
X006361Y002137D02*
X005503Y002137D01*
X005504Y002138D02*
X006361Y002138D01*
X006361Y002139D02*
X005505Y002139D01*
X005507Y002140D02*
X006362Y002140D01*
X006362Y002141D02*
X005508Y002141D01*
X005509Y002142D02*
X006363Y002142D01*
X006363Y002143D02*
X005511Y002143D01*
X005512Y002144D02*
X006363Y002144D01*
X006364Y002145D02*
X005513Y002145D01*
X005515Y002146D02*
X006364Y002146D01*
X006364Y002147D02*
X005516Y002147D01*
X005517Y002148D02*
X006365Y002148D01*
X006365Y002149D02*
X005518Y002149D01*
X005520Y002150D02*
X006366Y002150D01*
X006366Y002151D02*
X005521Y002151D01*
X005522Y002152D02*
X006366Y002152D01*
X006367Y002153D02*
X005524Y002153D01*
X005525Y002154D02*
X006367Y002154D01*
X006368Y002155D02*
X005526Y002155D01*
X005528Y002156D02*
X006368Y002156D01*
X006368Y002157D02*
X005529Y002157D01*
X005530Y002158D02*
X006369Y002158D01*
X006369Y002159D02*
X005532Y002159D01*
X005533Y002160D02*
X006370Y002160D01*
X006370Y002161D02*
X005534Y002161D01*
X005535Y002162D02*
X006370Y002162D01*
X006371Y002163D02*
X005537Y002163D01*
X005538Y002164D02*
X006371Y002164D01*
X006372Y002165D02*
X005539Y002165D01*
X005541Y002166D02*
X006372Y002166D01*
X006372Y002167D02*
X005542Y002167D01*
X005543Y002168D02*
X006373Y002168D01*
X006373Y002169D02*
X005545Y002169D01*
X005546Y002170D02*
X006373Y002170D01*
X006374Y002171D02*
X005547Y002171D01*
X005549Y002172D02*
X006374Y002172D01*
X006375Y002173D02*
X005550Y002173D01*
X005551Y002174D02*
X006375Y002174D01*
X006375Y002175D02*
X005553Y002175D01*
X005554Y002176D02*
X006376Y002176D01*
X006376Y002177D02*
X005555Y002177D01*
X005556Y002178D02*
X006377Y002178D01*
X006377Y002179D02*
X005558Y002179D01*
X005559Y002180D02*
X006377Y002180D01*
X006378Y002181D02*
X005560Y002181D01*
X005562Y002182D02*
X006378Y002182D01*
X006379Y002183D02*
X005563Y002183D01*
X005564Y002184D02*
X006379Y002184D01*
X006379Y002185D02*
X005566Y002185D01*
X005567Y002186D02*
X006380Y002186D01*
X006380Y002187D02*
X005568Y002187D01*
X005570Y002188D02*
X006381Y002188D01*
X006381Y002189D02*
X005571Y002189D01*
X005572Y002190D02*
X006381Y002190D01*
X006382Y002191D02*
X005573Y002191D01*
X005575Y002192D02*
X006382Y002192D01*
X006382Y002193D02*
X005576Y002193D01*
X005577Y002194D02*
X006383Y002194D01*
X006383Y002195D02*
X005579Y002195D01*
X005580Y002196D02*
X006384Y002196D01*
X006384Y002197D02*
X005581Y002197D01*
X005583Y002198D02*
X006384Y002198D01*
X006385Y002199D02*
X005584Y002199D01*
X005585Y002200D02*
X006385Y002200D01*
X006386Y002201D02*
X005587Y002201D01*
X005588Y002202D02*
X006386Y002202D01*
X006386Y002203D02*
X005589Y002203D01*
X005590Y002204D02*
X006387Y002204D01*
X006387Y002205D02*
X005592Y002205D01*
X005593Y002206D02*
X006388Y002206D01*
X006388Y002207D02*
X005594Y002207D01*
X005596Y002208D02*
X006388Y002208D01*
X006389Y002209D02*
X005597Y002209D01*
X005598Y002210D02*
X006389Y002210D01*
X006390Y002211D02*
X005600Y002211D01*
X005601Y002212D02*
X006390Y002212D01*
X006390Y002213D02*
X005602Y002213D01*
X005604Y002214D02*
X006391Y002214D01*
X006391Y002215D02*
X005605Y002215D01*
X005606Y002216D02*
X006391Y002216D01*
X006392Y002217D02*
X005608Y002217D01*
X005609Y002218D02*
X006392Y002218D01*
X006393Y002219D02*
X005610Y002219D01*
X005611Y002220D02*
X006393Y002220D01*
X006393Y002221D02*
X005613Y002221D01*
X005614Y002222D02*
X006394Y002222D01*
X006394Y002223D02*
X005615Y002223D01*
X005616Y002224D02*
X006395Y002224D01*
X006395Y002225D02*
X005617Y002225D01*
X005617Y002226D02*
X006395Y002226D01*
X006396Y002227D02*
X005618Y002227D01*
X005619Y002228D02*
X006396Y002228D01*
X006397Y002229D02*
X005619Y002229D01*
X005620Y002230D02*
X006397Y002230D01*
X006397Y002231D02*
X005621Y002231D01*
X005622Y002232D02*
X006398Y002232D01*
X006398Y002233D02*
X005622Y002233D01*
X005623Y002234D02*
X006399Y002234D01*
X006399Y002235D02*
X005624Y002235D01*
X005624Y002236D02*
X006399Y002236D01*
X006400Y002237D02*
X005625Y002237D01*
X005626Y002238D02*
X006400Y002238D01*
X006400Y002239D02*
X005626Y002239D01*
X005627Y002240D02*
X006401Y002240D01*
X006401Y002241D02*
X005628Y002241D01*
X005628Y002242D02*
X006402Y002242D01*
X006402Y002243D02*
X005629Y002243D01*
X005630Y002244D02*
X006402Y002244D01*
X006403Y002245D02*
X005630Y002245D01*
X005631Y002246D02*
X006403Y002246D01*
X006404Y002247D02*
X005632Y002247D01*
X005632Y002248D02*
X006404Y002248D01*
X006404Y002249D02*
X005633Y002249D01*
X005634Y002250D02*
X006405Y002250D01*
X006405Y002251D02*
X005635Y002251D01*
X005635Y002252D02*
X006406Y002252D01*
X006406Y002253D02*
X005636Y002253D01*
X005637Y002254D02*
X006406Y002254D01*
X006407Y002255D02*
X005637Y002255D01*
X005638Y002256D02*
X006407Y002256D01*
X006408Y002257D02*
X005639Y002257D01*
X005639Y002258D02*
X006408Y002258D01*
X006408Y002259D02*
X005640Y002259D01*
X005641Y002260D02*
X006409Y002260D01*
X006409Y002261D02*
X005641Y002261D01*
X005642Y002262D02*
X006410Y002262D01*
X006410Y002263D02*
X005643Y002263D01*
X005643Y002264D02*
X006410Y002264D01*
X006411Y002265D02*
X005644Y002265D01*
X005645Y002266D02*
X006411Y002266D01*
X006411Y002267D02*
X005646Y002267D01*
X005646Y002268D02*
X006412Y002268D01*
X006412Y002269D02*
X005647Y002269D01*
X005648Y002270D02*
X006413Y002270D01*
X006413Y002271D02*
X005648Y002271D01*
X005649Y002272D02*
X006413Y002272D01*
X006414Y002273D02*
X005650Y002273D01*
X005650Y002274D02*
X006414Y002274D01*
X006415Y002275D02*
X005651Y002275D01*
X005652Y002276D02*
X006415Y002276D01*
X006415Y002277D02*
X005652Y002277D01*
X005653Y002278D02*
X006416Y002278D01*
X006416Y002279D02*
X005654Y002279D01*
X005654Y002280D02*
X006417Y002280D01*
X006417Y002281D02*
X005655Y002281D01*
X005656Y002282D02*
X006417Y002282D01*
X006418Y002283D02*
X005656Y002283D01*
X005657Y002284D02*
X006418Y002284D01*
X006419Y002285D02*
X005658Y002285D01*
X005659Y002286D02*
X006419Y002286D01*
X006419Y002287D02*
X005659Y002287D01*
X005660Y002288D02*
X006420Y002288D01*
X006420Y002289D02*
X005661Y002289D01*
X005661Y002290D02*
X006420Y002290D01*
X006421Y002291D02*
X005662Y002291D01*
X005663Y002292D02*
X006421Y002292D01*
X006422Y002293D02*
X005663Y002293D01*
X005664Y002294D02*
X006422Y002294D01*
X006422Y002295D02*
X005665Y002295D01*
X005665Y002296D02*
X006423Y002296D01*
X006423Y002297D02*
X005666Y002297D01*
X005667Y002298D02*
X006423Y002298D01*
X006424Y002299D02*
X005667Y002299D01*
X005668Y002300D02*
X006424Y002300D01*
X006424Y002301D02*
X005669Y002301D01*
X005670Y002302D02*
X006424Y002302D01*
X006424Y002303D02*
X005670Y002303D01*
X005671Y002304D02*
X006424Y002304D01*
X006425Y002305D02*
X005672Y002305D01*
X005672Y002306D02*
X006425Y002306D01*
X006425Y002307D02*
X005673Y002307D01*
X005674Y002308D02*
X006425Y002308D01*
X006425Y002309D02*
X005674Y002309D01*
X005675Y002310D02*
X006426Y002310D01*
X006426Y002311D02*
X005676Y002311D01*
X005676Y002312D02*
X006426Y002312D01*
X006426Y002313D02*
X005677Y002313D01*
X005678Y002314D02*
X006426Y002314D01*
X006426Y002315D02*
X005678Y002315D01*
X005679Y002316D02*
X006427Y002316D01*
X006427Y002317D02*
X005680Y002317D01*
X005680Y002318D02*
X006427Y002318D01*
X006427Y002319D02*
X005681Y002319D01*
X005682Y002320D02*
X006427Y002320D01*
X006427Y002321D02*
X005683Y002321D01*
X005683Y002322D02*
X006428Y002322D01*
X006428Y002323D02*
X005684Y002323D01*
X005685Y002324D02*
X006428Y002324D01*
X006428Y002325D02*
X005685Y002325D01*
X005686Y002326D02*
X006428Y002326D01*
X006428Y002327D02*
X005687Y002327D01*
X005687Y002328D02*
X006429Y002328D01*
X006429Y002329D02*
X005688Y002329D01*
X005689Y002330D02*
X006429Y002330D01*
X006429Y002331D02*
X005689Y002331D01*
X005690Y002332D02*
X006429Y002332D01*
X006429Y002333D02*
X005691Y002333D01*
X005691Y002334D02*
X006430Y002334D01*
X006430Y002335D02*
X005692Y002335D01*
X005693Y002336D02*
X006430Y002336D01*
X006430Y002337D02*
X005694Y002337D01*
X005694Y002338D02*
X006430Y002338D01*
X006431Y002339D02*
X005695Y002339D01*
X005696Y002340D02*
X006431Y002340D01*
X006431Y002341D02*
X005696Y002341D01*
X005697Y002342D02*
X006431Y002342D01*
X006431Y002343D02*
X005698Y002343D01*
X005698Y002344D02*
X006431Y002344D01*
X006432Y002345D02*
X005699Y002345D01*
X005700Y002346D02*
X006432Y002346D01*
X006432Y002347D02*
X005700Y002347D01*
X005701Y002348D02*
X006432Y002348D01*
X006432Y002349D02*
X005702Y002349D01*
X005702Y002350D02*
X006432Y002350D01*
X006433Y002351D02*
X005703Y002351D01*
X005704Y002352D02*
X006433Y002352D01*
X006433Y002353D02*
X005704Y002353D01*
X005705Y002354D02*
X006433Y002354D01*
X006433Y002355D02*
X005706Y002355D01*
X005707Y002356D02*
X006433Y002356D01*
X006434Y002357D02*
X005707Y002357D01*
X005708Y002358D02*
X006434Y002358D01*
X006434Y002359D02*
X005709Y002359D01*
X005709Y002360D02*
X006434Y002360D01*
X006434Y002361D02*
X005710Y002361D01*
X005711Y002362D02*
X006435Y002362D01*
X006435Y002363D02*
X005711Y002363D01*
X005712Y002364D02*
X006435Y002364D01*
X006435Y002365D02*
X005713Y002365D01*
X005713Y002366D02*
X006435Y002366D01*
X006435Y002367D02*
X005714Y002367D01*
X005715Y002368D02*
X006436Y002368D01*
X006436Y002369D02*
X005715Y002369D01*
X005716Y002370D02*
X006436Y002370D01*
X006436Y002371D02*
X005717Y002371D01*
X005718Y002372D02*
X006436Y002372D01*
X006436Y002373D02*
X005718Y002373D01*
X005719Y002374D02*
X006437Y002374D01*
X006437Y002375D02*
X005720Y002375D01*
X005720Y002376D02*
X006437Y002376D01*
X006437Y002377D02*
X005721Y002377D01*
X005722Y002378D02*
X006437Y002378D01*
X006437Y002379D02*
X005722Y002379D01*
X005723Y002380D02*
X006438Y002380D01*
X006438Y002381D02*
X005724Y002381D01*
X005724Y002382D02*
X006438Y002382D01*
X006438Y002383D02*
X005725Y002383D01*
X005726Y002384D02*
X006438Y002384D01*
X006438Y002385D02*
X005726Y002385D01*
X005727Y002386D02*
X006439Y002386D01*
X006439Y002387D02*
X005728Y002387D01*
X005728Y002388D02*
X006439Y002388D01*
X006439Y002389D02*
X005729Y002389D01*
X005730Y002390D02*
X006439Y002390D01*
X006440Y002391D02*
X005731Y002391D01*
X005731Y002392D02*
X006440Y002392D01*
X006440Y002393D02*
X005732Y002393D01*
X005733Y002394D02*
X006440Y002394D01*
X006440Y002395D02*
X005733Y002395D01*
X005734Y002396D02*
X006440Y002396D01*
X006441Y002397D02*
X005735Y002397D01*
X005735Y002398D02*
X006441Y002398D01*
X006441Y002399D02*
X005736Y002399D01*
X005737Y002400D02*
X006441Y002400D01*
X006441Y002401D02*
X005737Y002401D01*
X005738Y002402D02*
X006441Y002402D01*
X006442Y002403D02*
X005739Y002403D01*
X005739Y002404D02*
X006442Y002404D01*
X006442Y002405D02*
X005740Y002405D01*
X005740Y002406D02*
X006442Y002406D01*
X006442Y002407D02*
X005741Y002407D01*
X005741Y002408D02*
X006442Y002408D01*
X006443Y002409D02*
X005741Y002409D01*
X005741Y002410D02*
X006443Y002410D01*
X006443Y002411D02*
X005741Y002411D01*
X005742Y002412D02*
X006443Y002412D01*
X006443Y002413D02*
X005742Y002413D01*
X005742Y002414D02*
X006443Y002414D01*
X006444Y002415D02*
X005742Y002415D01*
X005743Y002416D02*
X006444Y002416D01*
X006444Y002417D02*
X005743Y002417D01*
X005743Y002418D02*
X006444Y002418D01*
X006444Y002419D02*
X005743Y002419D01*
X005743Y002420D02*
X006445Y002420D01*
X006445Y002421D02*
X005744Y002421D01*
X005744Y002422D02*
X006445Y002422D01*
X006445Y002423D02*
X005744Y002423D01*
X005744Y002424D02*
X006445Y002424D01*
X006445Y002425D02*
X005744Y002425D01*
X005745Y002426D02*
X006446Y002426D01*
X006446Y002427D02*
X005745Y002427D01*
X005745Y002428D02*
X006446Y002428D01*
X006446Y002429D02*
X005745Y002429D01*
X005745Y002430D02*
X006446Y002430D01*
X006446Y002431D02*
X005746Y002431D01*
X005746Y002432D02*
X006447Y002432D01*
X006447Y002433D02*
X005746Y002433D01*
X005746Y002434D02*
X006447Y002434D01*
X006447Y002435D02*
X005746Y002435D01*
X005747Y002436D02*
X006447Y002436D01*
X006447Y002437D02*
X005747Y002437D01*
X005747Y002438D02*
X006448Y002438D01*
X006448Y002439D02*
X005747Y002439D01*
X005747Y002440D02*
X006448Y002440D01*
X006448Y002441D02*
X005748Y002441D01*
X005748Y002442D02*
X006448Y002442D01*
X006449Y002443D02*
X005748Y002443D01*
X005748Y002444D02*
X006449Y002444D01*
X006449Y002445D02*
X005748Y002445D01*
X005749Y002446D02*
X006449Y002446D01*
X006449Y002447D02*
X005749Y002447D01*
X005749Y002448D02*
X006449Y002448D01*
X006450Y002449D02*
X005749Y002449D01*
X005749Y002450D02*
X006450Y002450D01*
X006450Y002451D02*
X005750Y002451D01*
X005750Y002452D02*
X006450Y002452D01*
X006450Y002453D02*
X005750Y002453D01*
X005750Y002454D02*
X006450Y002454D01*
X006451Y002455D02*
X005751Y002455D01*
X005751Y002456D02*
X006451Y002456D01*
X006451Y002457D02*
X005751Y002457D01*
X005751Y002458D02*
X006451Y002458D01*
X006451Y002459D02*
X005751Y002459D01*
X005752Y002460D02*
X006451Y002460D01*
X006452Y002461D02*
X005752Y002461D01*
X005752Y002462D02*
X006452Y002462D01*
X006452Y002463D02*
X005752Y002463D01*
X005752Y002464D02*
X006452Y002464D01*
X006452Y002465D02*
X005753Y002465D01*
X005753Y002466D02*
X006452Y002466D01*
X006453Y002467D02*
X005753Y002467D01*
X005753Y002468D02*
X006453Y002468D01*
X006453Y002469D02*
X005753Y002469D01*
X005754Y002470D02*
X006453Y002470D01*
X006453Y002471D02*
X005754Y002471D01*
X005754Y002472D02*
X006454Y002472D01*
X006454Y002473D02*
X005754Y002473D01*
X005754Y002474D02*
X006454Y002474D01*
X006454Y002475D02*
X005755Y002475D01*
X005755Y002476D02*
X006454Y002476D01*
X006454Y002477D02*
X005755Y002477D01*
X005755Y002478D02*
X006455Y002478D01*
X006455Y002479D02*
X005755Y002479D01*
X005756Y002480D02*
X006455Y002480D01*
X006455Y002481D02*
X005756Y002481D01*
X005756Y002482D02*
X006455Y002482D01*
X006455Y002483D02*
X005756Y002483D01*
X005756Y002484D02*
X006456Y002484D01*
X006456Y002485D02*
X005757Y002485D01*
X005757Y002486D02*
X006456Y002486D01*
X006456Y002487D02*
X005757Y002487D01*
X005757Y002488D02*
X006456Y002488D01*
X006456Y002489D02*
X005757Y002489D01*
X005758Y002490D02*
X006457Y002490D01*
X006457Y002491D02*
X005758Y002491D01*
X005758Y002492D02*
X006457Y002492D01*
X006457Y002493D02*
X005758Y002493D01*
X005759Y002494D02*
X006457Y002494D01*
X006458Y002495D02*
X005759Y002495D01*
X005759Y002496D02*
X006458Y002496D01*
X006458Y002497D02*
X005759Y002497D01*
X005759Y002498D02*
X006458Y002498D01*
X006458Y002499D02*
X005760Y002499D01*
X005760Y002500D02*
X006458Y002500D01*
X006459Y002501D02*
X005760Y002501D01*
X005760Y002502D02*
X006459Y002502D01*
X006459Y002503D02*
X005760Y002503D01*
X005761Y002504D02*
X006459Y002504D01*
X006459Y002505D02*
X005761Y002505D01*
X005761Y002506D02*
X006459Y002506D01*
X006460Y002507D02*
X005761Y002507D01*
X005761Y002508D02*
X006460Y002508D01*
X006460Y002509D02*
X005762Y002509D01*
X005762Y002510D02*
X006460Y002510D01*
X006460Y002511D02*
X005762Y002511D01*
X005762Y002512D02*
X006460Y002512D01*
X006461Y002513D02*
X005762Y002513D01*
X005763Y002514D02*
X006461Y002514D01*
X006461Y002515D02*
X005763Y002515D01*
X005763Y002516D02*
X006461Y002516D01*
X006461Y002517D02*
X005763Y002517D01*
X005763Y002518D02*
X006461Y002518D01*
X006462Y002519D02*
X005764Y002519D01*
X005764Y002520D02*
X006462Y002520D01*
X006462Y002521D02*
X005764Y002521D01*
X005764Y002522D02*
X006462Y002522D01*
X006462Y002523D02*
X005764Y002523D01*
X005765Y002524D02*
X006462Y002524D01*
X006462Y002525D02*
X005765Y002525D01*
X005765Y002526D02*
X006462Y002526D01*
X006462Y002527D02*
X005765Y002527D01*
X005766Y002528D02*
X006462Y002528D01*
X006462Y002529D02*
X005766Y002529D01*
X005766Y002530D02*
X006462Y002530D01*
X006462Y002531D02*
X005766Y002531D01*
X005766Y002532D02*
X006462Y002532D01*
X006462Y002533D02*
X005767Y002533D01*
X005767Y002534D02*
X006462Y002534D01*
X006462Y002535D02*
X005767Y002535D01*
X005767Y002536D02*
X006462Y002536D01*
X006462Y002537D02*
X005767Y002537D01*
X005768Y002538D02*
X006462Y002538D01*
X006462Y002539D02*
X005768Y002539D01*
X005768Y002540D02*
X006462Y002540D01*
X006462Y002541D02*
X005768Y002541D01*
X005768Y002542D02*
X006462Y002542D01*
X006462Y002543D02*
X005769Y002543D01*
X005769Y002544D02*
X006462Y002544D01*
X006462Y002545D02*
X005769Y002545D01*
X005769Y002546D02*
X006462Y002546D01*
X006462Y002547D02*
X005769Y002547D01*
X005770Y002548D02*
X006462Y002548D01*
X006462Y002549D02*
X005770Y002549D01*
X005770Y002550D02*
X006462Y002550D01*
X006462Y002551D02*
X005770Y002551D01*
X005770Y002552D02*
X006462Y002552D01*
X006462Y002553D02*
X005771Y002553D01*
X005771Y002554D02*
X006462Y002554D01*
X006462Y002555D02*
X005771Y002555D01*
X005771Y002556D02*
X006462Y002556D01*
X006462Y002557D02*
X005771Y002557D01*
X005772Y002558D02*
X006462Y002558D01*
X006462Y002559D02*
X005772Y002559D01*
X005772Y002560D02*
X006462Y002560D01*
X006462Y002561D02*
X005772Y002561D01*
X005772Y002562D02*
X006462Y002562D01*
X006462Y002563D02*
X005773Y002563D01*
X005773Y002564D02*
X006462Y002564D01*
X006462Y002565D02*
X005773Y002565D01*
X005773Y002566D02*
X006462Y002566D01*
X006462Y002567D02*
X005774Y002567D01*
X005774Y002568D02*
X006462Y002568D01*
X006462Y002569D02*
X005774Y002569D01*
X005774Y002570D02*
X006462Y002570D01*
X006462Y002571D02*
X005774Y002571D01*
X005775Y002572D02*
X006462Y002572D01*
X006462Y002573D02*
X005775Y002573D01*
X005775Y002574D02*
X006462Y002574D01*
X006462Y002575D02*
X005775Y002575D01*
X005775Y002576D02*
X006462Y002576D01*
X006462Y002577D02*
X005776Y002577D01*
X005776Y002578D02*
X006462Y002578D01*
X006462Y002579D02*
X005776Y002579D01*
X005776Y002580D02*
X006462Y002580D01*
X006462Y002581D02*
X005776Y002581D01*
X005777Y002582D02*
X006462Y002582D01*
X006462Y002583D02*
X005777Y002583D01*
X005777Y002584D02*
X006463Y002584D01*
X006463Y002585D02*
X005777Y002585D01*
X005777Y002586D02*
X006463Y002586D01*
X006463Y002587D02*
X005778Y002587D01*
X005778Y002588D02*
X006463Y002588D01*
X006463Y002589D02*
X005778Y002589D01*
X005778Y002590D02*
X006463Y002590D01*
X006463Y002591D02*
X005778Y002591D01*
X005779Y002592D02*
X006463Y002592D01*
X006463Y002593D02*
X005779Y002593D01*
X005779Y002594D02*
X006463Y002594D01*
X006463Y002595D02*
X005779Y002595D01*
X005779Y002596D02*
X006463Y002596D01*
X006463Y002597D02*
X005780Y002597D01*
X005780Y002598D02*
X006463Y002598D01*
X006463Y002599D02*
X005780Y002599D01*
X005780Y002600D02*
X006463Y002600D01*
X006463Y002601D02*
X005780Y002601D01*
X005781Y002602D02*
X006463Y002602D01*
X006463Y002603D02*
X005781Y002603D01*
X005781Y002604D02*
X006463Y002604D01*
X006463Y002605D02*
X005781Y002605D01*
X005782Y002606D02*
X006463Y002606D01*
X006463Y002607D02*
X005782Y002607D01*
X005782Y002608D02*
X006463Y002608D01*
X005782Y002608D01*
X005782Y002609D02*
X006463Y002609D01*
X006463Y002610D02*
X005783Y002610D01*
X005783Y002611D02*
X006463Y002611D01*
X006463Y002612D02*
X005783Y002612D01*
X005783Y002613D02*
X006463Y002613D01*
X006463Y002614D02*
X005783Y002614D01*
X005784Y002615D02*
X006463Y002615D01*
X006463Y002616D02*
X005784Y002616D01*
X005784Y002617D02*
X006463Y002617D01*
X006463Y002618D02*
X005784Y002618D01*
X005784Y002619D02*
X006463Y002619D01*
X006463Y002620D02*
X005785Y002620D01*
X005785Y002621D02*
X006463Y002621D01*
X006463Y002622D02*
X005785Y002622D01*
X005785Y002623D02*
X006463Y002623D01*
X006463Y002624D02*
X005785Y002624D01*
X005786Y002625D02*
X006463Y002625D01*
X006463Y002626D02*
X005786Y002626D01*
X005786Y002627D02*
X006463Y002627D01*
X006463Y002628D02*
X005786Y002628D01*
X005786Y002629D02*
X006463Y002629D01*
X006463Y002630D02*
X005787Y002630D01*
X005787Y002631D02*
X006463Y002631D01*
X006463Y002632D02*
X005787Y002632D01*
X005787Y002633D02*
X006463Y002633D01*
X006463Y002634D02*
X005787Y002634D01*
X005788Y002635D02*
X006463Y002635D01*
X006463Y002636D02*
X005788Y002636D01*
X005788Y002637D02*
X006463Y002637D01*
X006463Y002638D02*
X005788Y002638D01*
X005788Y002639D02*
X006463Y002639D01*
X006463Y002640D02*
X005788Y002640D01*
X005789Y002641D02*
X006463Y002641D01*
X006463Y002642D02*
X005789Y002642D01*
X005789Y002643D02*
X006463Y002643D01*
X006463Y002644D02*
X005789Y002644D01*
X005789Y002645D02*
X006463Y002645D01*
X006463Y002646D02*
X005789Y002646D01*
X005789Y002647D02*
X006463Y002647D01*
X006463Y002648D02*
X005789Y002648D01*
X005789Y002649D02*
X006463Y002649D01*
X006463Y002650D02*
X005789Y002650D01*
X005789Y002651D02*
X006463Y002651D01*
X006463Y002652D02*
X005789Y002652D01*
X005789Y002653D02*
X006463Y002653D01*
X006463Y002654D02*
X005789Y002654D01*
X005789Y002655D02*
X006463Y002655D01*
X006463Y002656D02*
X005789Y002656D01*
X005789Y002657D02*
X006463Y002657D01*
X006463Y002658D02*
X005789Y002658D01*
X005788Y002659D02*
X006463Y002659D01*
X006463Y002660D02*
X005788Y002660D01*
X005788Y002661D02*
X006463Y002661D01*
X006463Y002662D02*
X005788Y002662D01*
X005788Y002663D02*
X006463Y002663D01*
X006463Y002664D02*
X005788Y002664D01*
X005788Y002665D02*
X006463Y002665D01*
X006463Y002666D02*
X005788Y002666D01*
X005788Y002667D02*
X006463Y002667D01*
X006463Y002668D02*
X005788Y002668D01*
X005788Y002669D02*
X006463Y002669D01*
X006463Y002670D02*
X005788Y002670D01*
X005787Y002671D02*
X006463Y002671D01*
X006463Y002672D02*
X005787Y002672D01*
X005787Y002673D02*
X006463Y002673D01*
X006463Y002674D02*
X005787Y002674D01*
X005787Y002675D02*
X006464Y002675D01*
X006464Y002676D02*
X005787Y002676D01*
X005787Y002677D02*
X006464Y002677D01*
X006464Y002678D02*
X005787Y002678D01*
X005787Y002679D02*
X006464Y002679D01*
X006464Y002680D02*
X005787Y002680D01*
X005787Y002681D02*
X006464Y002681D01*
X006464Y002682D02*
X005787Y002682D01*
X005787Y002683D02*
X006464Y002683D01*
X006464Y002684D02*
X005786Y002684D01*
X005786Y002685D02*
X006464Y002685D01*
X006464Y002686D02*
X005786Y002686D01*
X005786Y002687D02*
X006464Y002687D01*
X006464Y002688D02*
X005786Y002688D01*
X005786Y002689D02*
X006464Y002689D01*
X006464Y002690D02*
X005786Y002690D01*
X005786Y002691D02*
X006464Y002691D01*
X006464Y002692D02*
X005786Y002692D01*
X005786Y002693D02*
X006464Y002693D01*
X006464Y002694D02*
X005786Y002694D01*
X005786Y002695D02*
X006464Y002695D01*
X006464Y002696D02*
X005785Y002696D01*
X005785Y002697D02*
X006464Y002697D01*
X006464Y002698D02*
X005785Y002698D01*
X005785Y002699D02*
X006464Y002699D01*
X006464Y002700D02*
X005785Y002700D01*
X005785Y002701D02*
X006464Y002701D01*
X006464Y002702D02*
X005785Y002702D01*
X005785Y002703D02*
X006464Y002703D01*
X006464Y002704D02*
X005785Y002704D01*
X005785Y002705D02*
X006464Y002705D01*
X006464Y002706D02*
X005785Y002706D01*
X005785Y002707D02*
X006464Y002707D01*
X006464Y002708D02*
X005785Y002708D01*
X005784Y002709D02*
X006464Y002709D01*
X006464Y002710D02*
X005784Y002710D01*
X005784Y002711D02*
X006464Y002711D01*
X006464Y002712D02*
X005784Y002712D01*
X005784Y002713D02*
X006464Y002713D01*
X006464Y002714D02*
X005784Y002714D01*
X005784Y002715D02*
X006464Y002715D01*
X006464Y002716D02*
X005784Y002716D01*
X005784Y002717D02*
X006464Y002717D01*
X006464Y002718D02*
X005784Y002718D01*
X005784Y002719D02*
X006464Y002719D01*
X006464Y002720D02*
X005784Y002720D01*
X005783Y002721D02*
X006464Y002721D01*
X006464Y002722D02*
X005783Y002722D01*
X005783Y002723D02*
X006464Y002723D01*
X006464Y002724D02*
X005783Y002724D01*
X005783Y002725D02*
X006464Y002725D01*
X006464Y002726D02*
X005783Y002726D01*
X005783Y002727D02*
X006464Y002727D01*
X006464Y002728D02*
X005783Y002728D01*
X005783Y002729D02*
X006464Y002729D01*
X006464Y002730D02*
X005783Y002730D01*
X005783Y002731D02*
X006464Y002731D01*
X006464Y002732D02*
X005783Y002732D01*
X005783Y002733D02*
X006464Y002733D01*
X006464Y002734D02*
X005782Y002734D01*
X005782Y002735D02*
X006464Y002735D01*
X006464Y002736D02*
X005782Y002736D01*
X005782Y002737D02*
X006464Y002737D01*
X006464Y002738D02*
X005782Y002738D01*
X005782Y002739D02*
X006464Y002739D01*
X006464Y002740D02*
X005782Y002740D01*
X005782Y002741D02*
X006464Y002741D01*
X006464Y002742D02*
X005782Y002742D01*
X005782Y002743D02*
X006464Y002743D01*
X006464Y002744D02*
X005782Y002744D01*
X005782Y002745D02*
X006464Y002745D01*
X006464Y002746D02*
X005781Y002746D01*
X005781Y002747D02*
X006463Y002747D01*
X006463Y002748D02*
X005781Y002748D01*
X005781Y002749D02*
X006463Y002749D01*
X006463Y002750D02*
X005781Y002750D01*
X005781Y002751D02*
X006463Y002751D01*
X006463Y002752D02*
X005781Y002752D01*
X005781Y002753D02*
X006462Y002753D01*
X006462Y002754D02*
X005781Y002754D01*
X005781Y002755D02*
X006462Y002755D01*
X006462Y002756D02*
X005781Y002756D01*
X005781Y002757D02*
X006462Y002757D01*
X006462Y002758D02*
X005780Y002758D01*
X005780Y002759D02*
X006461Y002759D01*
X006461Y002760D02*
X005780Y002760D01*
X005780Y002761D02*
X006461Y002761D01*
X006461Y002762D02*
X005780Y002762D01*
X005780Y002763D02*
X006461Y002763D01*
X006461Y002764D02*
X005780Y002764D01*
X005780Y002765D02*
X006460Y002765D01*
X006460Y002766D02*
X005780Y002766D01*
X005780Y002767D02*
X006460Y002767D01*
X006460Y002768D02*
X005780Y002768D01*
X005780Y002769D02*
X006460Y002769D01*
X006460Y002770D02*
X005780Y002770D01*
X005779Y002771D02*
X006459Y002771D01*
X006459Y002772D02*
X005779Y002772D01*
X005779Y002773D02*
X006459Y002773D01*
X006459Y002774D02*
X005779Y002774D01*
X005779Y002775D02*
X006459Y002775D01*
X006459Y002776D02*
X005779Y002776D01*
X005779Y002777D02*
X006459Y002777D01*
X006458Y002778D02*
X005779Y002778D01*
X005779Y002779D02*
X006458Y002779D01*
X006458Y002780D02*
X005779Y002780D01*
X005779Y002781D02*
X006458Y002781D01*
X006458Y002782D02*
X005779Y002782D01*
X005778Y002783D02*
X006458Y002783D01*
X006457Y002784D02*
X005778Y002784D01*
X005778Y002785D02*
X006457Y002785D01*
X006457Y002786D02*
X005778Y002786D01*
X005778Y002787D02*
X006457Y002787D01*
X006457Y002788D02*
X005778Y002788D01*
X005778Y002789D02*
X006457Y002789D01*
X006456Y002790D02*
X005778Y002790D01*
X005778Y002791D02*
X006456Y002791D01*
X006456Y002792D02*
X005778Y002792D01*
X005777Y002793D02*
X006456Y002793D01*
X006456Y002794D02*
X005777Y002794D01*
X005776Y002795D02*
X006456Y002795D01*
X006455Y002796D02*
X005776Y002796D01*
X005776Y002797D02*
X006455Y002797D01*
X006455Y002798D02*
X005775Y002798D01*
X005775Y002799D02*
X006455Y002799D01*
X006455Y002800D02*
X005774Y002800D01*
X005774Y002801D02*
X006455Y002801D01*
X006454Y002802D02*
X005773Y002802D01*
X005773Y002803D02*
X006454Y002803D01*
X006454Y002804D02*
X005773Y002804D01*
X005772Y002805D02*
X006454Y002805D01*
X006454Y002806D02*
X005772Y002806D01*
X005771Y002807D02*
X006454Y002807D01*
X006453Y002808D02*
X005771Y002808D01*
X005771Y002809D02*
X006453Y002809D01*
X006453Y002810D02*
X005770Y002810D01*
X005770Y002811D02*
X006453Y002811D01*
X006453Y002812D02*
X005769Y002812D01*
X005769Y002813D02*
X006453Y002813D01*
X006453Y002814D02*
X005768Y002814D01*
X005768Y002815D02*
X006452Y002815D01*
X006452Y002816D02*
X005768Y002816D01*
X005767Y002817D02*
X006452Y002817D01*
X006452Y002818D02*
X005767Y002818D01*
X005766Y002819D02*
X006452Y002819D01*
X006452Y002820D02*
X005766Y002820D01*
X005766Y002821D02*
X006451Y002821D01*
X006451Y002822D02*
X005765Y002822D01*
X005765Y002823D02*
X006451Y002823D01*
X006451Y002824D02*
X005764Y002824D01*
X005764Y002825D02*
X006451Y002825D01*
X006451Y002826D02*
X005763Y002826D01*
X005763Y002827D02*
X006450Y002827D01*
X006450Y002828D02*
X005763Y002828D01*
X005762Y002829D02*
X006450Y002829D01*
X006450Y002830D02*
X005762Y002830D01*
X005761Y002831D02*
X006450Y002831D01*
X006450Y002832D02*
X005761Y002832D01*
X005761Y002833D02*
X006449Y002833D01*
X006449Y002834D02*
X005760Y002834D01*
X005760Y002835D02*
X006449Y002835D01*
X006449Y002836D02*
X005759Y002836D01*
X005759Y002837D02*
X006449Y002837D01*
X006449Y002838D02*
X005758Y002838D01*
X005758Y002839D02*
X006448Y002839D01*
X006448Y002840D02*
X005758Y002840D01*
X005757Y002841D02*
X006448Y002841D01*
X006448Y002842D02*
X005757Y002842D01*
X005756Y002843D02*
X006448Y002843D01*
X006448Y002844D02*
X005756Y002844D01*
X005756Y002845D02*
X006448Y002845D01*
X006447Y002846D02*
X005755Y002846D01*
X005755Y002847D02*
X006447Y002847D01*
X006447Y002848D02*
X005754Y002848D01*
X005754Y002849D02*
X006447Y002849D01*
X006447Y002850D02*
X005754Y002850D01*
X005753Y002851D02*
X006447Y002851D01*
X006446Y002852D02*
X005753Y002852D01*
X005752Y002853D02*
X006446Y002853D01*
X006446Y002854D02*
X005752Y002854D01*
X005751Y002855D02*
X006446Y002855D01*
X006446Y002856D02*
X005751Y002856D01*
X005751Y002857D02*
X006446Y002857D01*
X006445Y002858D02*
X005750Y002858D01*
X005750Y002859D02*
X006445Y002859D01*
X006445Y002860D02*
X005749Y002860D01*
X005749Y002861D02*
X006445Y002861D01*
X006445Y002862D02*
X005749Y002862D01*
X005748Y002863D02*
X006445Y002863D01*
X006444Y002864D02*
X005748Y002864D01*
X005747Y002865D02*
X006444Y002865D01*
X006444Y002866D02*
X005747Y002866D01*
X005746Y002867D02*
X006444Y002867D01*
X006444Y002868D02*
X005746Y002868D01*
X005746Y002869D02*
X006444Y002869D01*
X006443Y002870D02*
X005745Y002870D01*
X005745Y002871D02*
X006443Y002871D01*
X006443Y002872D02*
X005744Y002872D01*
X005744Y002873D02*
X006443Y002873D01*
X006443Y002874D02*
X005744Y002874D01*
X005743Y002875D02*
X006443Y002875D01*
X006443Y002876D02*
X005743Y002876D01*
X005742Y002877D02*
X006442Y002877D01*
X006442Y002878D02*
X005742Y002878D01*
X005741Y002879D02*
X006442Y002879D01*
X006442Y002880D02*
X005741Y002880D01*
X005741Y002881D02*
X006442Y002881D01*
X006442Y002882D02*
X005740Y002882D01*
X005740Y002883D02*
X006441Y002883D01*
X006441Y002884D02*
X005739Y002884D01*
X005739Y002885D02*
X006441Y002885D01*
X006441Y002886D02*
X005739Y002886D01*
X005738Y002887D02*
X006441Y002887D01*
X006441Y002888D02*
X005738Y002888D01*
X005737Y002889D02*
X006440Y002889D01*
X006440Y002890D02*
X005737Y002890D01*
X005736Y002891D02*
X006440Y002891D01*
X006440Y002892D02*
X005736Y002892D01*
X005736Y002893D02*
X006440Y002893D01*
X006440Y002894D02*
X005735Y002894D01*
X005735Y002895D02*
X006439Y002895D01*
X006439Y002896D02*
X005734Y002896D01*
X005734Y002897D02*
X006439Y002897D01*
X006439Y002898D02*
X005734Y002898D01*
X005733Y002899D02*
X006439Y002899D01*
X006439Y002900D02*
X005733Y002900D01*
X005732Y002901D02*
X006438Y002901D01*
X006438Y002902D02*
X005732Y002902D01*
X005731Y002903D02*
X006438Y002903D01*
X006438Y002904D02*
X005731Y002904D01*
X005731Y002905D02*
X006438Y002905D01*
X006438Y002906D02*
X005730Y002906D01*
X005730Y002907D02*
X006437Y002907D01*
X006437Y002908D02*
X005729Y002908D01*
X005729Y002909D02*
X006437Y002909D01*
X006437Y002910D02*
X005729Y002910D01*
X005728Y002911D02*
X006437Y002911D01*
X006437Y002912D02*
X005728Y002912D01*
X005727Y002913D02*
X006437Y002913D01*
X006436Y002914D02*
X005727Y002914D01*
X005726Y002915D02*
X006436Y002915D01*
X006436Y002916D02*
X005726Y002916D01*
X005726Y002917D02*
X006436Y002917D01*
X006436Y002918D02*
X005725Y002918D01*
X005725Y002919D02*
X006436Y002919D01*
X006435Y002920D02*
X005724Y002920D01*
X005724Y002921D02*
X006435Y002921D01*
X006435Y002922D02*
X005724Y002922D01*
X005723Y002923D02*
X006435Y002923D01*
X006435Y002924D02*
X005723Y002924D01*
X005722Y002925D02*
X006435Y002925D01*
X006434Y002926D02*
X005722Y002926D01*
X005721Y002927D02*
X006434Y002927D01*
X006434Y002928D02*
X005721Y002928D01*
X005720Y002929D02*
X006434Y002929D01*
X006434Y002930D02*
X005720Y002930D01*
X005719Y002931D02*
X006434Y002931D01*
X006433Y002932D02*
X005719Y002932D01*
X005718Y002933D02*
X006433Y002933D01*
X006433Y002934D02*
X005717Y002934D01*
X005717Y002935D02*
X006433Y002935D01*
X006433Y002936D02*
X005716Y002936D01*
X005716Y002937D02*
X006433Y002937D01*
X006432Y002938D02*
X005715Y002938D01*
X005714Y002939D02*
X006432Y002939D01*
X006432Y002940D02*
X005714Y002940D01*
X005713Y002941D02*
X006432Y002941D01*
X006432Y002942D02*
X005713Y002942D01*
X005712Y002943D02*
X006432Y002943D01*
X006432Y002944D02*
X005712Y002944D01*
X005711Y002945D02*
X006431Y002945D01*
X006431Y002946D02*
X005710Y002946D01*
X005710Y002947D02*
X006431Y002947D01*
X006431Y002948D02*
X005709Y002948D01*
X005709Y002949D02*
X006431Y002949D01*
X006431Y002950D02*
X005708Y002950D01*
X005707Y002951D02*
X006430Y002951D01*
X006430Y002952D02*
X005707Y002952D01*
X005706Y002953D02*
X006430Y002953D01*
X006430Y002954D02*
X005706Y002954D01*
X005705Y002955D02*
X006430Y002955D01*
X006430Y002956D02*
X005705Y002956D01*
X005704Y002957D02*
X006429Y002957D01*
X006429Y002958D02*
X005703Y002958D01*
X005703Y002959D02*
X006429Y002959D01*
X006429Y002960D02*
X005702Y002960D01*
X005702Y002961D02*
X006429Y002961D01*
X006429Y002962D02*
X005701Y002962D01*
X005700Y002963D02*
X006428Y002963D01*
X006428Y002964D02*
X005700Y002964D01*
X005699Y002965D02*
X006428Y002965D01*
X006428Y002966D02*
X005699Y002966D01*
X005698Y002967D02*
X006427Y002967D01*
X006427Y002968D02*
X005698Y002968D01*
X005697Y002969D02*
X006427Y002969D01*
X006426Y002970D02*
X005696Y002970D01*
X005696Y002971D02*
X006426Y002971D01*
X006426Y002972D02*
X005695Y002972D01*
X005695Y002973D02*
X006425Y002973D01*
X006425Y002974D02*
X005694Y002974D01*
X005693Y002975D02*
X006424Y002975D01*
X006424Y002976D02*
X005693Y002976D01*
X005692Y002977D02*
X006424Y002977D01*
X006423Y002978D02*
X005692Y002978D01*
X005691Y002979D02*
X006423Y002979D01*
X006422Y002980D02*
X005691Y002980D01*
X005690Y002981D02*
X006422Y002981D01*
X006422Y002982D02*
X005689Y002982D01*
X005689Y002983D02*
X006421Y002983D01*
X006421Y002984D02*
X005688Y002984D01*
X005688Y002985D02*
X006421Y002985D01*
X006420Y002986D02*
X005687Y002986D01*
X005686Y002987D02*
X006420Y002987D01*
X006419Y002988D02*
X005686Y002988D01*
X005685Y002989D02*
X006419Y002989D01*
X006419Y002990D02*
X005685Y002990D01*
X005684Y002991D02*
X006418Y002991D01*
X006418Y002992D02*
X005684Y002992D01*
X005683Y002993D02*
X006418Y002993D01*
X006417Y002994D02*
X005682Y002994D01*
X005682Y002995D02*
X006417Y002995D01*
X006416Y002996D02*
X005681Y002996D01*
X005681Y002997D02*
X006416Y002997D01*
X006416Y002998D02*
X005680Y002998D01*
X005680Y002999D02*
X006415Y002999D01*
X006415Y003000D02*
X005679Y003000D01*
X005678Y003001D02*
X006415Y003001D01*
X006414Y003002D02*
X005678Y003002D01*
X005677Y003003D02*
X006414Y003003D01*
X006413Y003004D02*
X005677Y003004D01*
X005676Y003005D02*
X006413Y003005D01*
X006413Y003006D02*
X005675Y003006D01*
X005675Y003007D02*
X006412Y003007D01*
X006412Y003008D02*
X005674Y003008D01*
X005674Y003009D02*
X006412Y003009D01*
X006411Y003010D02*
X005673Y003010D01*
X005673Y003011D02*
X006411Y003011D01*
X006410Y003012D02*
X005672Y003012D01*
X005671Y003013D02*
X006410Y003013D01*
X006410Y003014D02*
X005671Y003014D01*
X005670Y003015D02*
X006409Y003015D01*
X006409Y003016D02*
X005670Y003016D01*
X005669Y003017D02*
X006408Y003017D01*
X006408Y003018D02*
X005668Y003018D01*
X005668Y003019D02*
X006408Y003019D01*
X006407Y003020D02*
X005667Y003020D01*
X005667Y003021D02*
X006407Y003021D01*
X006407Y003022D02*
X005666Y003022D01*
X005666Y003023D02*
X006406Y003023D01*
X006406Y003024D02*
X005665Y003024D01*
X005664Y003025D02*
X006405Y003025D01*
X006405Y003026D02*
X005664Y003026D01*
X005663Y003027D02*
X006405Y003027D01*
X006404Y003028D02*
X005663Y003028D01*
X005662Y003029D02*
X006404Y003029D01*
X006404Y003030D02*
X005661Y003030D01*
X005661Y003031D02*
X006403Y003031D01*
X006403Y003032D02*
X005660Y003032D01*
X005660Y003033D02*
X006402Y003033D01*
X006402Y003034D02*
X005659Y003034D01*
X005659Y003035D02*
X006402Y003035D01*
X006401Y003036D02*
X005658Y003036D01*
X005657Y003037D02*
X006401Y003037D01*
X006401Y003038D02*
X005657Y003038D01*
X005656Y003039D02*
X006400Y003039D01*
X006400Y003040D02*
X005656Y003040D01*
X005655Y003041D02*
X006399Y003041D01*
X006399Y003042D02*
X005654Y003042D01*
X005654Y003043D02*
X006399Y003043D01*
X006398Y003044D02*
X005653Y003044D01*
X005653Y003045D02*
X006398Y003045D01*
X006398Y003046D02*
X005652Y003046D01*
X005652Y003047D02*
X006397Y003047D01*
X006397Y003048D02*
X005651Y003048D01*
X005650Y003049D02*
X006396Y003049D01*
X006396Y003050D02*
X005649Y003050D01*
X005648Y003051D02*
X006396Y003051D01*
X006395Y003052D02*
X005647Y003052D01*
X005646Y003053D02*
X006395Y003053D01*
X006394Y003054D02*
X005645Y003054D01*
X005644Y003055D02*
X006394Y003055D01*
X006394Y003056D02*
X005643Y003056D01*
X005642Y003057D02*
X006393Y003057D01*
X006393Y003058D02*
X005641Y003058D01*
X005640Y003059D02*
X006393Y003059D01*
X006392Y003060D02*
X005639Y003060D01*
X005638Y003061D02*
X006392Y003061D01*
X006391Y003062D02*
X005637Y003062D01*
X005636Y003063D02*
X006391Y003063D01*
X006391Y003064D02*
X005635Y003064D01*
X005634Y003065D02*
X006390Y003065D01*
X006390Y003066D02*
X005633Y003066D01*
X005632Y003067D02*
X006390Y003067D01*
X006389Y003068D02*
X005631Y003068D01*
X005630Y003069D02*
X006389Y003069D01*
X006388Y003070D02*
X005629Y003070D01*
X005628Y003071D02*
X006388Y003071D01*
X006388Y003072D02*
X005627Y003072D01*
X005626Y003073D02*
X006387Y003073D01*
X006387Y003074D02*
X005625Y003074D01*
X005624Y003075D02*
X006387Y003075D01*
X006386Y003076D02*
X005623Y003076D01*
X005622Y003077D02*
X006386Y003077D01*
X006385Y003078D02*
X005621Y003078D01*
X005620Y003079D02*
X006385Y003079D01*
X006385Y003080D02*
X005619Y003080D01*
X005618Y003081D02*
X006384Y003081D01*
X006384Y003082D02*
X005617Y003082D01*
X005616Y003083D02*
X006384Y003083D01*
X006383Y003084D02*
X005615Y003084D01*
X005614Y003085D02*
X006383Y003085D01*
X006382Y003086D02*
X005613Y003086D01*
X005612Y003087D02*
X006382Y003087D01*
X006382Y003088D02*
X005611Y003088D01*
X005610Y003089D02*
X006381Y003089D01*
X006381Y003090D02*
X005609Y003090D01*
X005608Y003091D02*
X006380Y003091D01*
X006380Y003092D02*
X005607Y003092D01*
X005606Y003093D02*
X006380Y003093D01*
X006379Y003094D02*
X005605Y003094D01*
X005604Y003095D02*
X006379Y003095D01*
X006379Y003096D02*
X005603Y003096D01*
X005602Y003097D02*
X006378Y003097D01*
X006378Y003098D02*
X005601Y003098D01*
X005600Y003099D02*
X006377Y003099D01*
X006377Y003100D02*
X005599Y003100D01*
X005598Y003101D02*
X006377Y003101D01*
X006376Y003102D02*
X005597Y003102D01*
X005596Y003103D02*
X006376Y003103D01*
X006376Y003104D02*
X005595Y003104D01*
X005594Y003105D02*
X006375Y003105D01*
X006375Y003106D02*
X005593Y003106D01*
X005592Y003107D02*
X006374Y003107D01*
X006374Y003108D02*
X005591Y003108D01*
X005590Y003109D02*
X006374Y003109D01*
X006373Y003110D02*
X005589Y003110D01*
X005588Y003111D02*
X006373Y003111D01*
X006373Y003112D02*
X005587Y003112D01*
X005586Y003113D02*
X006372Y003113D01*
X006372Y003114D02*
X005585Y003114D01*
X005584Y003115D02*
X006371Y003115D01*
X006371Y003116D02*
X005583Y003116D01*
X005582Y003117D02*
X006371Y003117D01*
X006370Y003118D02*
X005581Y003118D01*
X005580Y003119D02*
X006370Y003119D01*
X006370Y003120D02*
X005579Y003120D01*
X005578Y003121D02*
X006369Y003121D01*
X006369Y003122D02*
X005577Y003122D01*
X005576Y003123D02*
X006368Y003123D01*
X006368Y003124D02*
X005575Y003124D01*
X005574Y003125D02*
X006368Y003125D01*
X006367Y003126D02*
X005573Y003126D01*
X005572Y003127D02*
X006367Y003127D01*
X006366Y003128D02*
X005571Y003128D01*
X005570Y003129D02*
X006366Y003129D01*
X006366Y003130D02*
X005569Y003130D01*
X005568Y003131D02*
X006365Y003131D01*
X006365Y003132D02*
X005567Y003132D01*
X005566Y003133D02*
X006365Y003133D01*
X006364Y003134D02*
X005565Y003134D01*
X005564Y003135D02*
X006364Y003135D01*
X006363Y003136D02*
X005563Y003136D01*
X005562Y003137D02*
X006363Y003137D01*
X006363Y003138D02*
X005561Y003138D01*
X005560Y003139D02*
X006362Y003139D01*
X006362Y003140D02*
X005559Y003140D01*
X005558Y003141D02*
X006362Y003141D01*
X006361Y003142D02*
X005557Y003142D01*
X005556Y003143D02*
X006361Y003143D01*
X006360Y003144D02*
X005555Y003144D01*
X005554Y003145D02*
X006360Y003145D01*
X006360Y003146D02*
X005553Y003146D01*
X005552Y003147D02*
X006359Y003147D01*
X006359Y003148D02*
X005550Y003148D01*
X005549Y003149D02*
X006359Y003149D01*
X006358Y003150D02*
X005547Y003150D01*
X005545Y003151D02*
X006358Y003151D01*
X006357Y003152D02*
X005543Y003152D01*
X005541Y003153D02*
X006357Y003153D01*
X006357Y003154D02*
X005539Y003154D01*
X005538Y003155D02*
X006356Y003155D01*
X006356Y003156D02*
X005536Y003156D01*
X005534Y003157D02*
X006356Y003157D01*
X006355Y003158D02*
X005532Y003158D01*
X005530Y003159D02*
X006355Y003159D01*
X006354Y003160D02*
X005528Y003160D01*
X005526Y003161D02*
X006354Y003161D01*
X006354Y003162D02*
X005525Y003162D01*
X005523Y003163D02*
X006353Y003163D01*
X006353Y003164D02*
X005521Y003164D01*
X005519Y003165D02*
X006352Y003165D01*
X006352Y003166D02*
X005517Y003166D01*
X005515Y003167D02*
X006351Y003167D01*
X006351Y003168D02*
X005514Y003168D01*
X005512Y003169D02*
X006350Y003169D01*
X006350Y003170D02*
X005510Y003170D01*
X005508Y003171D02*
X006349Y003171D01*
X006349Y003172D02*
X005506Y003172D01*
X005504Y003173D02*
X006348Y003173D01*
X006348Y003174D02*
X005503Y003174D01*
X005501Y003175D02*
X006347Y003175D01*
X006347Y003176D02*
X005499Y003176D01*
X005497Y003177D02*
X006346Y003177D01*
X006345Y003178D02*
X005495Y003178D01*
X005493Y003179D02*
X006345Y003179D01*
X006344Y003180D02*
X005492Y003180D01*
X005490Y003181D02*
X006344Y003181D01*
X006343Y003182D02*
X005488Y003182D01*
X005486Y003183D02*
X006343Y003183D01*
X006342Y003184D02*
X005484Y003184D01*
X005482Y003185D02*
X006342Y003185D01*
X006341Y003186D02*
X005480Y003186D01*
X005479Y003187D02*
X006341Y003187D01*
X006340Y003188D02*
X005477Y003188D01*
X005475Y003189D02*
X006339Y003189D01*
X006339Y003190D02*
X005473Y003190D01*
X005471Y003191D02*
X006338Y003191D01*
X006338Y003192D02*
X005469Y003192D01*
X005468Y003193D02*
X006337Y003193D01*
X006337Y003194D02*
X005466Y003194D01*
X005464Y003195D02*
X006336Y003195D01*
X006336Y003196D02*
X005462Y003196D01*
X005460Y003197D02*
X006335Y003197D01*
X006334Y003198D02*
X005458Y003198D01*
X005457Y003199D02*
X006334Y003199D01*
X006333Y003200D02*
X005455Y003200D01*
X005453Y003201D02*
X006333Y003201D01*
X006332Y003202D02*
X005451Y003202D01*
X005449Y003203D02*
X006332Y003203D01*
X006331Y003204D02*
X005447Y003204D01*
X005446Y003205D02*
X006331Y003205D01*
X006330Y003206D02*
X005444Y003206D01*
X005442Y003207D02*
X006330Y003207D01*
X006329Y003208D02*
X005440Y003208D01*
X005438Y003209D02*
X006328Y003209D01*
X006328Y003210D02*
X005436Y003210D01*
X005434Y003211D02*
X006327Y003211D01*
X006327Y003212D02*
X005433Y003212D01*
X005431Y003213D02*
X006326Y003213D01*
X006326Y003214D02*
X005429Y003214D01*
X005427Y003215D02*
X006325Y003215D01*
X006325Y003216D02*
X005425Y003216D01*
X005423Y003217D02*
X006324Y003217D01*
X006324Y003218D02*
X005422Y003218D01*
X005420Y003219D02*
X006323Y003219D01*
X006322Y003220D02*
X005418Y003220D01*
X005416Y003221D02*
X006322Y003221D01*
X006321Y003222D02*
X005414Y003222D01*
X005412Y003223D02*
X006321Y003223D01*
X006320Y003224D02*
X005411Y003224D01*
X005409Y003225D02*
X006320Y003225D01*
X006319Y003226D02*
X005407Y003226D01*
X005405Y003227D02*
X006319Y003227D01*
X006318Y003228D02*
X005403Y003228D01*
X005401Y003229D02*
X006318Y003229D01*
X006317Y003230D02*
X005400Y003230D01*
X005398Y003231D02*
X006316Y003231D01*
X006316Y003232D02*
X005396Y003232D01*
X005394Y003233D02*
X006315Y003233D01*
X006315Y003234D02*
X005392Y003234D01*
X005390Y003235D02*
X006314Y003235D01*
X006314Y003236D02*
X005388Y003236D01*
X005387Y003237D02*
X006313Y003237D01*
X006313Y003238D02*
X005385Y003238D01*
X005383Y003239D02*
X006312Y003239D01*
X006311Y003240D02*
X005381Y003240D01*
X005379Y003241D02*
X006311Y003241D01*
X006310Y003242D02*
X005377Y003242D01*
X005376Y003243D02*
X006310Y003243D01*
X006309Y003244D02*
X005374Y003244D01*
X005372Y003245D02*
X006309Y003245D01*
X006308Y003246D02*
X005370Y003246D01*
X005368Y003247D02*
X006308Y003247D01*
X006307Y003248D02*
X005366Y003248D01*
X005365Y003249D02*
X006307Y003249D01*
X006306Y003250D02*
X005363Y003250D01*
X005361Y003251D02*
X006305Y003251D01*
X006305Y003252D02*
X005359Y003252D01*
X005357Y003253D02*
X006304Y003253D01*
X006304Y003254D02*
X005355Y003254D01*
X005354Y003255D02*
X006303Y003255D01*
X006303Y003256D02*
X005348Y003256D01*
X005340Y003257D02*
X006302Y003257D01*
X006302Y003258D02*
X005333Y003258D01*
X005325Y003259D02*
X006301Y003259D01*
X006301Y003260D02*
X005317Y003260D01*
X005309Y003261D02*
X006300Y003261D01*
X006299Y003262D02*
X005301Y003262D01*
X005293Y003263D02*
X006299Y003263D01*
X006298Y003264D02*
X005285Y003264D01*
X005277Y003265D02*
X006298Y003265D01*
X006297Y003266D02*
X005269Y003266D01*
X005261Y003267D02*
X006297Y003267D01*
X006296Y003268D02*
X005253Y003268D01*
X005245Y003269D02*
X006296Y003269D01*
X006295Y003270D02*
X005237Y003270D01*
X005229Y003271D02*
X006295Y003271D01*
X006294Y003272D02*
X005221Y003272D01*
X005213Y003273D02*
X006293Y003273D01*
X006293Y003274D02*
X005205Y003274D01*
X005197Y003275D02*
X006292Y003275D01*
X006292Y003276D02*
X005190Y003276D01*
X005182Y003277D02*
X006291Y003277D01*
X006291Y003278D02*
X005174Y003278D01*
X005166Y003279D02*
X006290Y003279D01*
X006290Y003280D02*
X005158Y003280D01*
X005150Y003281D02*
X006289Y003281D01*
X006288Y003282D02*
X005142Y003282D01*
X005222Y002708D02*
X005225Y002708D01*
X005225Y002707D02*
X005216Y002707D01*
X005210Y002706D02*
X005225Y002706D01*
X005226Y002705D02*
X005203Y002705D01*
X005197Y002704D02*
X005226Y002704D01*
X005226Y002703D02*
X005191Y002703D01*
X005185Y002702D02*
X005226Y002702D01*
X005226Y002701D02*
X005179Y002701D01*
X005173Y002700D02*
X005226Y002700D01*
X005226Y002699D02*
X005166Y002699D01*
X005160Y002698D02*
X005226Y002698D01*
X005226Y002697D02*
X005154Y002697D01*
X005148Y002696D02*
X005226Y002696D01*
X005226Y002695D02*
X005142Y002695D01*
X005135Y002694D02*
X005226Y002694D01*
X005226Y002693D02*
X005129Y002693D01*
X005123Y002692D02*
X005226Y002692D01*
X005226Y002691D02*
X005117Y002691D01*
X005111Y002690D02*
X005226Y002690D01*
X005227Y002689D02*
X005104Y002689D01*
X005098Y002688D02*
X005227Y002688D01*
X005227Y002687D02*
X005092Y002687D01*
X005086Y002686D02*
X005227Y002686D01*
X005227Y002685D02*
X005083Y002685D01*
X005082Y002684D02*
X005227Y002684D01*
X005227Y002683D02*
X005081Y002683D01*
X005079Y002682D02*
X005227Y002682D01*
X005227Y002681D02*
X005078Y002681D01*
X005076Y002680D02*
X005227Y002680D01*
X005227Y002679D02*
X005075Y002679D01*
X005074Y002678D02*
X005227Y002678D01*
X005227Y002677D02*
X005072Y002677D01*
X005071Y002676D02*
X005227Y002676D01*
X005227Y002675D02*
X005069Y002675D01*
X005068Y002674D02*
X005227Y002674D01*
X005227Y002673D02*
X005067Y002673D01*
X005065Y002672D02*
X005228Y002672D01*
X005228Y002671D02*
X005064Y002671D01*
X005063Y002670D02*
X005228Y002670D01*
X005228Y002669D02*
X005061Y002669D01*
X005060Y002668D02*
X005228Y002668D01*
X005228Y002667D02*
X005058Y002667D01*
X005057Y002666D02*
X005228Y002666D01*
X005228Y002665D02*
X005056Y002665D01*
X005054Y002664D02*
X005228Y002664D01*
X005228Y002663D02*
X005053Y002663D01*
X005051Y002662D02*
X005228Y002662D01*
X005228Y002661D02*
X005050Y002661D01*
X005049Y002660D02*
X005228Y002660D01*
X005228Y002659D02*
X005047Y002659D01*
X005046Y002658D02*
X005228Y002658D01*
X005228Y002657D02*
X005044Y002657D01*
X005043Y002656D02*
X005229Y002656D01*
X005229Y002655D02*
X005042Y002655D01*
X005041Y002654D02*
X005229Y002654D01*
X005229Y002653D02*
X005042Y002653D01*
X005044Y002652D02*
X005229Y002652D01*
X005229Y002651D02*
X005045Y002651D01*
X005046Y002650D02*
X005229Y002650D01*
X005229Y002649D02*
X005047Y002649D01*
X005048Y002648D02*
X005229Y002648D01*
X005229Y002647D02*
X005049Y002647D01*
X005050Y002646D02*
X005229Y002646D01*
X005229Y002645D02*
X005052Y002645D01*
X005053Y002644D02*
X005229Y002644D01*
X005229Y002643D02*
X005054Y002643D01*
X005055Y002642D02*
X005229Y002642D01*
X005229Y002641D02*
X005056Y002641D01*
X005057Y002640D02*
X005230Y002640D01*
X005230Y002639D02*
X005058Y002639D01*
X005060Y002638D02*
X005230Y002638D01*
X005230Y002637D02*
X005061Y002637D01*
X005062Y002636D02*
X005230Y002636D01*
X005230Y002635D02*
X005063Y002635D01*
X005064Y002634D02*
X005230Y002634D01*
X005230Y002633D02*
X005065Y002633D01*
X005067Y002632D02*
X005230Y002632D01*
X005230Y002631D02*
X005068Y002631D01*
X005069Y002630D02*
X005230Y002630D01*
X005230Y002629D02*
X005070Y002629D01*
X005071Y002628D02*
X005230Y002628D01*
X005230Y002627D02*
X005072Y002627D01*
X005074Y002626D02*
X005230Y002626D01*
X005230Y002625D02*
X005075Y002625D01*
X005076Y002624D02*
X005231Y002624D01*
X005231Y002623D02*
X005077Y002623D01*
X005078Y002622D02*
X005231Y002622D01*
X005231Y002621D02*
X005079Y002621D01*
X005080Y002620D02*
X005231Y002620D01*
X005231Y002619D02*
X005082Y002619D01*
X005083Y002618D02*
X005231Y002618D01*
X005231Y002617D02*
X005084Y002617D01*
X005085Y002616D02*
X005231Y002616D01*
X005231Y002615D02*
X005086Y002615D01*
X005087Y002614D02*
X005231Y002614D01*
X005231Y002613D02*
X005088Y002613D01*
X005090Y002612D02*
X005231Y002612D01*
X005231Y002611D02*
X005095Y002611D01*
X005104Y002610D02*
X005231Y002610D01*
X005231Y002609D02*
X005113Y002609D01*
X005122Y002608D02*
X005232Y002608D01*
X005131Y002608D01*
X005140Y002607D02*
X005232Y002607D01*
X005232Y002606D02*
X005150Y002606D01*
X005159Y002605D02*
X005232Y002605D01*
X005232Y002604D02*
X005168Y002604D01*
X005177Y002603D02*
X005232Y002603D01*
X005232Y002602D02*
X005186Y002602D01*
X005195Y002601D02*
X005232Y002601D01*
X005232Y002600D02*
X005204Y002600D01*
X005213Y002599D02*
X005232Y002599D01*
X005232Y002598D02*
X005222Y002598D01*
X005232Y002597D02*
X005232Y002597D01*
X005276Y003881D02*
X005135Y003881D01*
X005159Y003882D02*
X005241Y003882D01*
X005205Y003883D02*
X005183Y003883D01*
X005111Y003880D02*
X005312Y003880D01*
D15*
X005975Y004964D02*
X005975Y005279D01*
X005975Y004964D02*
X006211Y004964D01*
X006841Y004964D02*
X007077Y004964D01*
X007077Y005279D01*
X005840Y007248D02*
X005629Y007248D01*
X005277Y007384D02*
X005277Y008014D01*
X005276Y008014D02*
X005271Y008030D01*
X005263Y008046D01*
X005253Y008060D01*
X005241Y008072D01*
X005226Y008082D01*
X005210Y008089D01*
X005193Y008093D01*
X005176Y008094D01*
X005158Y008092D01*
X005174Y007736D02*
X005174Y007398D01*
X005158Y007305D02*
X005176Y007303D01*
X005193Y007304D01*
X005210Y007308D01*
X005226Y007315D01*
X005241Y007325D01*
X005253Y007337D01*
X005263Y007351D01*
X005271Y007367D01*
X005276Y007383D01*
X004608Y007305D02*
X004588Y007303D01*
X004569Y007305D01*
X004550Y007311D01*
X004533Y007320D01*
X004517Y007332D01*
X004505Y007347D01*
X004496Y007365D01*
X004490Y007383D01*
X004489Y007384D02*
X004489Y008014D01*
X004490Y008014D02*
X004496Y008032D01*
X004505Y008050D01*
X004517Y008065D01*
X004533Y008077D01*
X004550Y008086D01*
X004569Y008092D01*
X004588Y008094D01*
X004608Y008092D01*
X006294Y007736D02*
X006294Y007398D01*
X006220Y011386D02*
X006401Y011386D01*
X006493Y011508D01*
X006582Y011386D02*
X006401Y011386D01*
X006391Y011392D02*
X006315Y011508D01*
X005842Y011529D02*
X005661Y011529D01*
X005569Y011407D01*
X005480Y011529D02*
X005661Y011529D01*
X005671Y011523D02*
X005747Y011407D01*
X005093Y011521D02*
X004912Y011521D01*
X004820Y011399D01*
X004731Y011521D02*
X004912Y011521D01*
X004922Y011515D02*
X004998Y011399D01*
M02*
