%
M48
M72
T01C0.0157
T02C0.0400
%
T01
X3451Y6662
X4408Y8162
X3064Y8830
X3058Y9447
X2329Y12272
X5754Y7548
X4750Y6012
X5282Y4181
X6404Y3473
X8057Y12154
T02
X1001Y875
X1001Y1875
X1001Y2875
X1001Y3875
X1001Y4875
X1001Y5875
X1001Y6875
X1001Y7875
X1001Y8875
X1001Y9875
X1001Y10875
X1001Y11875
X1001Y12875
X1650Y14010
X2650Y14010
X3650Y14010
X4650Y14010
X5650Y14010
X6650Y14010
X7650Y14010
X8650Y14010
X9211Y12839
X9211Y11839
X9211Y10839
X9211Y9839
X9211Y8839
X9211Y7839
X9211Y6839
X9211Y5839
X9211Y4839
X9211Y3839
X9211Y2839
X9211Y1839
X9211Y839
M30
