G75*
G70*
%OFA0B0*%
%FSLAX24Y24*%
%IPPOS*%
%LPD*%
%AMOC8*
5,1,8,0,0,1.08239X$1,22.5*
%
%ADD10C,0.0600*%
%ADD11R,0.0650X0.0650*%
%ADD12C,0.0650*%
%ADD13C,0.0520*%
%ADD14OC8,0.1250*%
%ADD15OC8,0.1500*%
D10*
X001180Y024800D02*
X001180Y025400D01*
X002180Y025400D02*
X002180Y024800D01*
X003180Y024800D02*
X003180Y025400D01*
X012680Y025400D02*
X012680Y024800D01*
X013680Y024800D02*
X013680Y025400D01*
X014680Y025400D02*
X014680Y024800D01*
D11*
X010180Y028600D03*
X008180Y027100D03*
X008680Y024100D03*
X006180Y028100D03*
D12*
X005180Y028100D03*
X007680Y024100D03*
X008180Y028100D03*
X011180Y028600D03*
D13*
X009940Y021100D02*
X009420Y021100D01*
X009420Y020100D02*
X009940Y020100D01*
X009940Y019100D02*
X009420Y019100D01*
X009420Y018100D02*
X009940Y018100D01*
X009940Y017100D02*
X009420Y017100D01*
X009420Y016100D02*
X009940Y016100D01*
X009940Y015100D02*
X009420Y015100D01*
X009420Y014100D02*
X009940Y014100D01*
X009940Y011600D02*
X009420Y011600D01*
X009420Y010600D02*
X009940Y010600D01*
X009940Y009600D02*
X009420Y009600D01*
X009420Y008600D02*
X009940Y008600D01*
X009940Y007600D02*
X009420Y007600D01*
X009420Y006600D02*
X009940Y006600D01*
X009940Y005600D02*
X009420Y005600D01*
X009420Y004600D02*
X009940Y004600D01*
X006940Y004600D02*
X006420Y004600D01*
X006420Y005600D02*
X006940Y005600D01*
X006940Y006600D02*
X006420Y006600D01*
X006420Y007600D02*
X006940Y007600D01*
X006940Y008600D02*
X006420Y008600D01*
X006420Y009600D02*
X006940Y009600D01*
X006940Y010600D02*
X006420Y010600D01*
X006420Y011600D02*
X006940Y011600D01*
X006940Y014100D02*
X006420Y014100D01*
X006420Y015100D02*
X006940Y015100D01*
X006940Y016100D02*
X006420Y016100D01*
X006420Y017100D02*
X006940Y017100D01*
X006940Y018100D02*
X006420Y018100D01*
X006420Y019100D02*
X006940Y019100D01*
X006940Y020100D02*
X006420Y020100D01*
X006420Y021100D02*
X006940Y021100D01*
D14*
X002680Y003600D03*
X002680Y005600D03*
X002680Y007600D03*
X002680Y009600D03*
X002680Y011600D03*
X002680Y014600D03*
X002680Y016600D03*
X002680Y018600D03*
X002680Y020600D03*
X002680Y022600D03*
X009180Y030100D03*
X013680Y022100D03*
X013680Y020100D03*
X013680Y018100D03*
X013680Y016100D03*
X013680Y014100D03*
X013680Y011600D03*
X013680Y009600D03*
X013680Y007600D03*
X013680Y005600D03*
X013680Y003600D03*
D15*
X005680Y030100D03*
M02*
